<?xml version="1.0" standalone="no"?>
<!DOCTYPE svg PUBLIC "-//W3C//DTD SVG 1.1//EN" "http://www.w3.org/Graphics/SVG/1.1/DTD/svg11.dtd" >
<svg xmlns="http://www.w3.org/2000/svg" xmlns:xlink="http://www.w3.org/1999/xlink" version="1.1">
<metadata></metadata>
<defs>
<font id="renault_lifelight" horiz-adv-x="1179" >
<font-face units-per-em="2048" ascent="1526" descent="-522" />
<missing-glyph horiz-adv-x="458" />
<glyph unicode="&#xfb01;" horiz-adv-x="1110" d="M49 936l8 53h136v164q0 166 73.5 239.5t239.5 73.5q96 0 166 -22l-17 -84q-66 24 -141 24q-120 0 -171.5 -53t-51.5 -176v-166h627q18 0 18 -16v-973h-98v909h-547v-909h-98v893q0 17 -17 20zM811 1305q0 38 17.5 54.5t56.5 16.5t56 -16.5t17 -54.5t-17.5 -55t-55.5 -17 q-39 0 -56.5 17t-17.5 55z" />
<glyph unicode="&#xfb02;" horiz-adv-x="1105" d="M49 936l8 53h136v144q0 155 88 237q102 96 317 96q170 0 307 -39q16 -4 20.5 -9.5t4.5 -16.5v-1307q0 -9 2 -12t10 -6l70 -27l-8 -49h-154q-11 0 -15 4t-4 16v1342q-87 22 -223 22q-175 0 -252 -71q-65 -59 -65 -178v-146h317v-80h-317v-909h-98v893q0 17 -17 20z" />
<glyph unicode="&#xfb03;" horiz-adv-x="1755" d="M49 936l8 53h136v150q0 166 73.5 239.5t239.5 73.5q96 0 166 -22l-17 -84q-66 24 -141 24q-120 0 -171.5 -53t-51.5 -176v-152h547v164q0 166 73.5 239.5t239.5 73.5q96 0 166 -22l-17 -84q-66 24 -141 24q-120 0 -171.5 -53t-51.5 -176v-166h627q18 0 18 -16v-973h-98 v909h-547v-909h-98v909h-547v-909h-98v893q0 17 -17 20zM1456 1305q0 38 17.5 54.5t56.5 16.5t56.5 -16.5t17.5 -54.5t-17.5 -55t-56.5 -17t-56.5 17t-17.5 55z" />
<glyph unicode="&#xfb04;" horiz-adv-x="1751" d="M49 936l8 53h136v150q0 165 77 239t244 74q94 0 174 -25l-16 -81q-66 24 -150 24q-121 0 -176 -53.5t-55 -175.5v-152h547v144q0 155 88 237q102 96 317 96q170 0 307 -39q16 -4 20.5 -9.5t4.5 -16.5v-1307q0 -9 2 -12t10 -6l70 -27l-8 -49h-154q-11 0 -14.5 4t-3.5 16 v1342q-87 22 -224 22q-175 0 -252 -71q-65 -59 -65 -178v-146h317v-80h-317v-909h-98v909h-547v-909h-98v893q0 17 -17 20z" />
<glyph horiz-adv-x="0" />
<glyph horiz-adv-x="0" />
<glyph horiz-adv-x="682" />
<glyph unicode="&#xd;" horiz-adv-x="458" />
<glyph unicode=" "  horiz-adv-x="458" />
<glyph unicode="&#x09;" horiz-adv-x="458" />
<glyph unicode="&#xa0;" horiz-adv-x="458" />
<glyph unicode="!" horiz-adv-x="483" d="M164 57q0 41 18.5 59.5t59.5 18.5t59 -18.5t18 -59.5q0 -40 -18 -57.5t-59 -17.5t-59.5 17.5t-18.5 57.5zM190 1376h103l-8 -970h-88z" />
<glyph unicode="&#x22;" horiz-adv-x="833" d="M182 948v428h86v-428h-86zM565 948v428h86v-428h-86z" />
<glyph unicode="#" horiz-adv-x="1323" d="M59 385v76h279l57 454h-270v76h278l50 385h79l-47 -385h428l48 385h81l-49 -385h271v-76h-279l-57 -454h270v-76h-280l-48 -385h-79l47 385h-428l-50 -385h-79l49 385h-271zM418 461h430l57 454h-430z" />
<glyph unicode="$" d="M160 1001q0 163 91.5 242.5t293.5 89.5v338h90v-336q183 -3 334 -49v-86q-174 53 -357 53q-189 0 -269.5 -58.5t-80.5 -193.5q0 -60 26 -104t70.5 -70.5t102 -45.5t121 -33.5t127 -31t121 -42t102 -61t70.5 -94t26 -136.5q0 -167 -94 -249t-299 -91v-338h-90v336 q-194 3 -375 61v86q192 -65 397 -65q192 0 275.5 61.5t83.5 198.5q0 63 -26 109t-70.5 73.5t-102 47.5t-121 35t-127 31t-121 41t-102 59t-70.5 90.5t-26 131.5z" />
<glyph unicode="%" horiz-adv-x="1769" d="M102 1032q0 193 77.5 281t246.5 88t246.5 -88t77.5 -281t-77.5 -280.5t-246.5 -87.5t-246.5 87.5t-77.5 280.5zM184 1032q0 -158 57 -227.5t185 -69.5t185 69.5t57 227.5t-57 227.5t-185 69.5t-185 -69.5t-57 -227.5zM539 0l618 1376h74l-619 -1376h-73zM1020 344 q0 193 77 281t246 88t246.5 -88t77.5 -281t-77.5 -281t-246.5 -88t-246 88t-77 281zM1102 344q0 -158 56.5 -227.5t184.5 -69.5t185 69.5t57 227.5t-57 227.5t-185 69.5t-184.5 -69.5t-56.5 -227.5z" />
<glyph unicode="&#x26;" horiz-adv-x="1361" d="M117 352q0 275 329 422q-107 93 -152.5 172.5t-45.5 165.5q0 289 340 289q166 0 245.5 -69t79.5 -210q0 -112 -77 -199.5t-250 -172.5l418 -414q47 117 47 326h92q-3 -253 -72 -396l264 -266h-118l-201 201q-71 -112 -184.5 -169t-256.5 -57q-232 0 -345 93t-113 284z M211 358q0 -154 89.5 -228.5t274.5 -74.5q250 0 379 211l-452 449q-291 -132 -291 -357zM340 1110q0 -72 43.5 -141t144.5 -158q153 70 222 143t69 164q0 104 -55.5 154.5t-175.5 50.5q-128 0 -188 -52.5t-60 -160.5z" />
<glyph unicode="'" horiz-adv-x="450" d="M182 948v428h86v-428h-86z" />
<glyph unicode="(" horiz-adv-x="614" d="M166 590q0 499 278 852h103q-141 -173 -215 -391t-74 -461t74 -461t215 -391h-103q-278 353 -278 852z" />
<glyph unicode=")" horiz-adv-x="614" d="M68 -262q140 173 213 390.5t73 461.5t-73 461.5t-213 390.5h100q281 -357 281 -852t-281 -852h-100z" />
<glyph unicode="*" horiz-adv-x="942" d="M80 1065l22 72l332 -109v348h74v-348l330 109l24 -72l-332 -107l205 -282l-61 -45l-203 284l-205 -284l-59 45l203 282z" />
<glyph unicode="+" d="M158 547v86h389v389h86v-389h389v-86h-389v-389h-86v389h-389z" />
<glyph unicode="," horiz-adv-x="450" d="M80 -295l119 428h108l-143 -428h-84z" />
<glyph unicode="-" horiz-adv-x="655" d="M59 463v80h537v-80h-537z" />
<glyph unicode="." horiz-adv-x="450" d="M147 59q0 41 17.5 58.5t60.5 17.5q42 0 60 -17.5t18 -58.5t-18.5 -59t-59.5 -18q-43 0 -60.5 18t-17.5 59z" />
<glyph unicode="/" horiz-adv-x="786" d="M41 -262l614 1704h90l-614 -1704h-90z" />
<glyph unicode="0" d="M100 688q0 376 116 544.5t374 168.5t373.5 -168.5t115.5 -544.5t-115.5 -544.5t-373.5 -168.5t-374 168.5t-116 544.5zM195 688q0 -335 92 -482t303 -147t303 147t92 482t-92 482t-303 147t-303 -147t-92 -482z" />
<glyph unicode="1" d="M260 1112v88l412 176h82v-1376h-99v1284z" />
<glyph unicode="2" d="M123 0v78l569 561q100 100 146.5 189t46.5 184q0 163 -83.5 234t-273.5 71q-177 0 -360 -62v88q168 58 373 58q233 0 338.5 -90.5t105.5 -290.5q0 -110 -51 -212.5t-160 -209.5l-518 -514h741v-84h-874z" />
<glyph unicode="3" d="M123 25v86q164 -54 330 -54q239 0 343.5 75t104.5 247q0 169 -111 242t-366 73h-43v64l436 538h-678v80h797v-71l-438 -539q262 -6 382.5 -99t120.5 -290q0 -211 -128.5 -306.5t-413.5 -95.5q-178 0 -336 50z" />
<glyph unicode="4" d="M70 315v78l708 983h103v-981h215v-80h-215v-315h-90v315h-721zM172 395h619v858z" />
<glyph unicode="5" d="M166 25v86q164 -54 330 -54q230 0 333 77.5t103 252.5q0 172 -106 248t-347 76q-112 0 -268 -13v678h754v-80h-662v-516q93 8 207 8q275 0 397.5 -95t122.5 -308q0 -214 -125.5 -312t-402.5 -98q-178 0 -336 50z" />
<glyph unicode="6" d="M129 623q0 412 137.5 595t454.5 183q154 0 291 -41v-86q-146 45 -285 45q-273 0 -386.5 -158.5t-113.5 -517.5q32 114 132.5 168.5t281.5 54.5q231 0 334.5 -104.5t103.5 -335.5q0 -234 -112.5 -342.5t-360.5 -108.5q-254 0 -365.5 151.5t-111.5 496.5zM246 459 q0 -199 90.5 -300.5t267.5 -101.5q201 0 291 87.5t90 281.5q0 191 -81.5 274.5t-270.5 83.5q-201 0 -294 -78t-93 -247z" />
<glyph unicode="7" d="M135 1292v84h895v-73l-596 -1303h-100l592 1292h-791z" />
<glyph unicode="8" d="M113 344q0 166 77.5 249t260.5 112q-160 26 -233 108t-73 236q0 186 105.5 269t339.5 83t339 -83t105 -269q0 -154 -72.5 -236t-232.5 -108q183 -29 260.5 -112t77.5 -249q0 -194 -113.5 -281.5t-363.5 -87.5t-363.5 87.5t-113.5 281.5zM209 348q0 -156 89 -224.5 t292 -68.5t292 68.5t89 224.5q0 154 -84.5 223t-296.5 91q-212 -22 -296.5 -91t-84.5 -223zM242 1044q0 -140 79.5 -208t268.5 -88q189 20 268.5 88t79.5 208q0 149 -81 213t-267 64t-267 -64t-81 -213z" />
<glyph unicode="9" d="M100 950q0 234 112.5 342.5t360.5 108.5q254 0 366 -151t112 -496q0 -412 -138 -595.5t-454 -183.5q-154 0 -291 41v86q146 -45 285 -45q273 0 386 158.5t113 517.5q-32 -114 -132 -168.5t-281 -54.5q-231 0 -335 104.5t-104 335.5zM195 950q0 -191 81.5 -274.5 t270.5 -83.5q201 0 294 78.5t93 247.5q0 199 -91 300t-268 101q-201 0 -290.5 -87.5t-89.5 -281.5z" />
<glyph unicode=":" horiz-adv-x="483" d="M164 59q0 41 17.5 58.5t60.5 17.5q41 0 59 -17.5t18 -58.5t-18 -59t-59 -18q-42 0 -60 18t-18 59zM164 930q0 41 17.5 58.5t60.5 17.5q41 0 59 -17.5t18 -58.5t-18 -59.5t-59 -18.5q-42 0 -60 18t-18 60z" />
<glyph unicode=";" horiz-adv-x="483" d="M96 -295l119 428h109l-144 -428h-84zM164 930q0 41 17.5 58.5t60.5 17.5q41 0 59 -17.5t18 -58.5t-18 -59.5t-59 -18.5q-42 0 -60 18t-18 60z" />
<glyph unicode="&#x3c;" d="M158 541v98l864 369v-95l-762 -323l762 -324v-94z" />
<glyph unicode="=" d="M158 354v86h864v-86h-864zM158 739v86h864v-86h-864z" />
<glyph unicode="&#x3e;" d="M158 172v94l762 324l-762 323v95l864 -369v-98z" />
<glyph unicode="?" horiz-adv-x="897" d="M74 1262v86q143 53 309 53q218 0 316 -78.5t98 -253.5q0 -68 -21.5 -125.5t-55.5 -99t-75 -79.5t-82.5 -73.5t-75.5 -73.5t-55.5 -88t-21.5 -108v-16h-86v22q0 68 20.5 125.5t53.5 99t72.5 79t79 72.5t72.5 71.5t53.5 84.5t20.5 103q0 137 -74 196.5t-247 59.5 q-152 0 -301 -57zM289 57q0 41 18.5 59.5t59.5 18.5t59 -18.5t18 -59.5q0 -40 -18 -57.5t-59 -17.5t-59.5 17.5t-18.5 57.5z" />
<glyph unicode="@" horiz-adv-x="1984" d="M133 494q0 483 207.5 698t671.5 215q442 0 640.5 -192t198.5 -619q0 -283 -81 -418t-263 -135q-184 0 -223 137q-41 -71 -117.5 -104t-197.5 -33q-197 0 -284 107t-87 344q0 238 87 344t284 106q119 0 193 -32t112 -101l4 109h82v-631q0 -87 38 -126.5t122 -39.5 q130 0 186.5 113t56.5 354q0 392 -177 564.5t-578 172.5q-418 0 -602.5 -194.5t-184.5 -638.5t193 -639t633 -195q286 0 561 90v-82q-266 -86 -564 -86q-482 0 -696.5 215t-214.5 697zM694 494q0 -196 69 -282.5t224 -86.5q149 0 214 62.5t65 203.5v207q0 141 -65 203.5 t-214 62.5q-155 0 -224 -87t-69 -283z" />
<glyph unicode="A" horiz-adv-x="1302" d="M74 0q204 703 520 1376h115q316 -673 520 -1376h-101q-72 234 -129 397h-698q-84 -249 -127 -397h-100zM330 477h643q-165 467 -322 803q-144 -302 -321 -803z" />
<glyph unicode="B" horiz-adv-x="1296" d="M113 1329l8 47h608q211 0 306 -85t95 -269q0 -129 -48.5 -206t-149.5 -109q126 -23 187 -106.5t61 -233.5q0 -190 -99 -278.5t-319 -88.5h-569v1286q0 14 -13 19zM293 80h452q179 0 256.5 69t77.5 222t-77.5 222t-256.5 69h-452v-582zM293 739h420q170 0 244.5 66.5 t74.5 212.5t-74.5 212t-244.5 66h-420v-557z" />
<glyph unicode="C" horiz-adv-x="1224" d="M117 688q0 376 149 544.5t479 168.5q217 0 385 -51l-16 -86q-175 53 -356 53q-286 0 -412.5 -147.5t-126.5 -481.5t126.5 -481.5t412.5 -147.5q180 0 364 54v-88q-180 -50 -377 -50q-330 0 -479 168.5t-149 544.5z" />
<glyph unicode="D" horiz-adv-x="1427" d="M113 1329l8 47h479q375 0 543 -163t168 -525t-168 -525t-543 -163h-407v1286q0 14 -13 19zM293 84h301q327 0 470.5 141.5t143.5 462.5t-143.5 462.5t-470.5 141.5h-301v-1208z" />
<glyph unicode="E" horiz-adv-x="1191" d="M113 1329l8 47h952v-84h-780v-551h633v-82h-633v-575h797v-84h-897v1286q0 14 -13 19z" />
<glyph unicode="F" horiz-adv-x="1159" d="M113 1329l8 47h952v-84h-780v-551h633v-82h-633v-659h-100v1286q0 14 -13 19z" />
<glyph unicode="G" horiz-adv-x="1361" d="M117 688q0 376 156.5 544.5t504.5 168.5q229 0 404 -51l-17 -86q-71 23 -174.5 38t-199.5 15q-305 0 -440.5 -147.5t-135.5 -481.5q0 -335 130.5 -482t426.5 -147q172 0 348 39v520h-372v78h466v-667q-221 -54 -452 -54q-340 0 -492.5 168.5t-152.5 544.5z" />
<glyph unicode="H" horiz-adv-x="1492" d="M113 1329l8 47h153q11 0 15 -4t4 -16v-615h907v635h100v-1376h-100v659h-907v-659h-100v1286q0 14 -13 19z" />
<glyph unicode="I" horiz-adv-x="485" d="M113 1329l8 47h153q11 0 15 -4t4 -16v-1356h-100v1286q0 14 -13 19z" />
<glyph unicode="J" horiz-adv-x="876" d="M63 0v88q116 -29 213 -29q163 0 235.5 73.5t72.5 240.5v1003h100v-1005q0 -206 -95 -301t-302 -95q-115 0 -224 25z" />
<glyph unicode="K" horiz-adv-x="1208" d="M113 1329l8 47h153q11 0 15 -4t4 -16v-713l715 733h125l-621 -637l637 -739h-123l-580 674l-153 -158v-516h-100v1286q0 14 -13 19z" />
<glyph unicode="L" horiz-adv-x="1034" d="M113 1329l8 47h153q11 0 15 -4t4 -16v-1272h694v-84h-794v1286q0 14 -13 19z" />
<glyph unicode="M" horiz-adv-x="1656" d="M113 1329l8 47h133q29 0 40.5 -8t33.5 -43l499 -788l537 839h100v-1376h-96v1223l-504 -789h-12h-38t-23 8.5t-17 15t-22 34.5l-465 729v-1221h-94v1286q0 14 -13 19z" />
<glyph unicode="N" horiz-adv-x="1492" d="M113 1329l8 47h135h12t10 -1.5t8 -1.5t7 -3t5.5 -4t6 -6.5t6.5 -7.5t8 -10.5t9 -12.5l876 -1186v1233h96v-1376h-102l-911 1233v-1233h-94v1286q0 14 -13 19z" />
<glyph unicode="O" horiz-adv-x="1492" d="M117 688q0 376 148 544.5t480 168.5q333 0 482 -168.5t149 -544.5t-149 -544.5t-482 -168.5q-332 0 -480 168.5t-148 544.5zM219 688q0 -335 122.5 -482t403.5 -147t405 147.5t124 481.5t-124 481.5t-405 147.5t-403.5 -147t-122.5 -482z" />
<glyph unicode="P" horiz-adv-x="1263" d="M113 1329l8 47h579q243 0 353 -96.5t110 -310.5q0 -215 -110 -311.5t-353 -96.5h-407v-561h-100v1286q0 14 -13 19zM293 643h401q196 0 282.5 76.5t86.5 249.5q0 172 -86.5 247.5t-282.5 75.5h-401v-649z" />
<glyph unicode="Q" horiz-adv-x="1492" d="M117 688q0 376 148 544.5t480 168.5q333 0 482 -168.5t149 -544.5q0 -266 -72.5 -425t-226.5 -228l187 -291h-107l-168 258q-105 -27 -244 -27q-332 0 -480 168.5t-148 544.5zM215 688q0 -337 123.5 -484t406.5 -147q111 0 197 21l-125 196h107l104 -163q128 61 188 201 t60 376q0 335 -124 482t-407 147t-406.5 -147t-123.5 -482z" />
<glyph unicode="R" horiz-adv-x="1296" d="M113 1329l8 47h596q236 0 341 -92t105 -299q0 -187 -87.5 -279t-278.5 -104l389 -602h-115l-379 594h-399v-594h-100v1286q0 14 -13 19zM293 674h414q192 0 274 72t82 239t-81.5 237t-274.5 70h-414v-618z" />
<glyph unicode="S" horiz-adv-x="1191" d="M125 1034q-1 190 121 280q119 88 355 87h11q210 0 404 -60l-17 -84q-76 28 -179.5 45t-201.5 17q-213 0 -304 -66t-91 -219q0 -67 29 -116t78.5 -79t113.5 -51.5t134.5 -38.5t141 -35.5t134.5 -46.5t113.5 -67t78.5 -102.5t29 -147.5q0 -195 -120 -285t-375 -90 q-238 0 -445 66v86q213 -70 438 -70q214 0 309 68.5t95 224.5q0 69 -29 120t-78.5 82t-113.5 53.5t-134.5 40t-141 35.5t-134.5 45.5t-113.5 65t-78.5 99t-29 143.5z" />
<glyph unicode="T" horiz-adv-x="1198" d="M47 1292v84h1104v-84h-502v-1292h-100v1292h-502z" />
<glyph unicode="U" horiz-adv-x="1492" d="M113 1329l8 47h153q11 0 15 -4t4 -16v-834q0 -247 105 -355t347 -108q243 0 349 108t106 355v854h100v-860q0 -286 -131 -413.5t-424 -127.5q-292 0 -422 127.5t-130 413.5v770q0 14 -13 19z" />
<glyph unicode="V" horiz-adv-x="1302" d="M74 1376h100q89 -302 226.5 -671.5t250.5 -608.5q113 239 250.5 608.5t226.5 671.5h101q-211 -727 -520 -1376h-115q-309 649 -520 1376z" />
<glyph unicode="W" horiz-adv-x="1918" d="M88 1376h102q18 -78 43.5 -176t60.5 -229t52 -195q105 -386 207 -676h2q94 266 205 676q93 350 147 576h105q54 -226 147 -576q111 -410 205 -676h2q102 290 207 676q17 64 52 195t60.5 229t43.5 176h102q-75 -318 -187.5 -712.5t-209.5 -663.5h-129q-150 421 -224 707 q-70 259 -120 514h-3q-50 -255 -120 -514q-74 -286 -224 -707h-129q-97 269 -209.5 663.5t-187.5 712.5z" />
<glyph unicode="X" horiz-adv-x="1302" d="M78 0l510 702l-494 674h115l446 -610l441 610h112l-497 -678l514 -698h-117l-461 635l-457 -635h-112z" />
<glyph unicode="Y" horiz-adv-x="1204" d="M45 1376h117l440 -680l440 680h117l-508 -772v-604h-100v604z" />
<glyph unicode="Z" horiz-adv-x="1257" d="M102 2v74l908 1218h-891v84h1020v-73l-908 -1219h924v-84h-1053z" />
<glyph unicode="[" horiz-adv-x="614" d="M211 -262v1704h342v-80h-250v-1544h250v-80h-342z" />
<glyph unicode="\" horiz-adv-x="786" d="M41 1442h90l614 -1704h-90z" />
<glyph unicode="]" horiz-adv-x="614" d="M59 -182h250v1544h-250v80h342v-1704h-342v80z" />
<glyph unicode="^" d="M135 512l402 864h106l401 -864h-98l-356 764l-357 -764h-98z" />
<glyph unicode="_" horiz-adv-x="983" d="M0 -221h983v-82h-983v82z" />
<glyph unicode="`" horiz-adv-x="491" d="M-35 1442h113l246 -275h-97z" />
<glyph unicode="a" horiz-adv-x="1071" d="M102 260q0 147 93.5 214t296.5 67q175 0 317 -52v175q0 144 -74.5 207t-245.5 63q-155 0 -301 -49v84q136 45 310 45q213 0 309 -84.5t96 -272.5v-563q0 -9 2 -12t10 -6l70 -27l-8 -49h-133q-7 0 -10.5 0.5t-6 4.5t-2.5 13l-4 95q-85 -138 -348 -138q-189 0 -280 70 t-91 215zM199 260q0 -108 69.5 -158.5t218.5 -50.5q168 0 245 60.5t77 191.5v113q-133 53 -305 53q-163 0 -234 -48t-71 -161z" />
<glyph unicode="b" horiz-adv-x="1138" d="M82 1393l8 49h154q10 0 14 -4.5t4 -16.5v-553q47 75 131 110.5t217 35.5q225 0 325.5 -122t100.5 -398q0 -275 -100.5 -397t-325.5 -122t-360 115l-6 -90h-80v1348q0 9 -2 12t-10 6zM262 160q142 -103 330 -103q185 0 265.5 102t80.5 335q0 234 -80.5 336t-265.5 102 q-175 0 -252.5 -73t-77.5 -238v-461z" />
<glyph unicode="c" horiz-adv-x="935" d="M102 494q0 275 110.5 397.5t356.5 122.5q178 0 287 -41l-18 -82q-121 41 -256 41q-202 0 -290.5 -102.5t-88.5 -335.5q0 -232 88.5 -334.5t290.5 -102.5q143 0 264 41v-86q-121 -37 -277 -37q-246 0 -356.5 122.5t-110.5 396.5z" />
<glyph unicode="d" horiz-adv-x="1150" d="M102 494q0 276 100.5 398t325.5 122q132 0 214 -33.5t135 -108.5v570h98v-1348q0 -9 2 -12t10 -6l70 -27l-8 -49h-136q-10 0 -14 3.5t-4 14.5l-4 74q-131 -117 -363 -117q-225 0 -325.5 122t-100.5 397zM203 494q0 -234 80 -335.5t264 -101.5q188 0 330 103v461 q0 166 -76.5 238.5t-253.5 72.5q-184 0 -264 -101.5t-80 -336.5z" />
<glyph unicode="e" horiz-adv-x="1071" d="M102 494q0 275 107.5 397.5t347.5 122.5q215 0 310.5 -119t95.5 -385v-43h-764q5 -220 103 -316t319 -96q159 0 307 49v-84q-139 -45 -314 -45q-269 0 -390.5 123t-121.5 396zM199 539h669q-3 215 -75 307t-236 92q-186 0 -269.5 -94t-88.5 -305z" />
<glyph unicode="f" horiz-adv-x="624" d="M49 936l8 53h136v164q0 166 73.5 239.5t239.5 73.5q96 0 166 -22l-17 -84q-66 24 -141 24q-120 0 -171.5 -53t-51.5 -176v-166h317v-80h-317v-909h-98v893q0 17 -17 20z" />
<glyph unicode="g" horiz-adv-x="1134" d="M102 494q0 276 100.5 398t325.5 122q226 0 361 -115l6 90h80v-1016q0 -225 -91.5 -324.5t-316.5 -99.5q-120 0 -194 19v82q75 -21 190 -21q81 0 138.5 17t91.5 45t53 74.5t25 94t6 115.5v146q-48 -75 -131.5 -110.5t-217.5 -35.5q-225 0 -325.5 122t-100.5 397zM203 496 q0 -235 80 -337t264 -102q177 0 253.5 73t76.5 239v460q-142 103 -330 103q-184 0 -264 -101.5t-80 -334.5z" />
<glyph unicode="h" horiz-adv-x="1144" d="M82 1393l8 49h154q10 0 14 -4.5t4 -16.5v-518q127 111 346 111q194 0 281.5 -90t87.5 -291v-539q0 -9 2 -12t10 -6l70 -27l-8 -49h-154q-11 0 -14.5 4t-3.5 16v611q0 160 -66.5 229.5t-218.5 69.5q-191 0 -332 -96v-834h-98v1348q0 9 -2 12t-10 6z" />
<glyph unicode="i" horiz-adv-x="452" d="M98 940l8 49h154q19 0 19 -16v-973h-99v895q0 9 -2 12t-10 6zM154 1305q0 38 17 54.5t56 16.5t56.5 -16.5t17.5 -54.5t-17.5 -55t-56.5 -17q-38 0 -55.5 17t-17.5 55z" />
<glyph unicode="j" horiz-adv-x="452" d="M-92 -369q32 -4 63 -4q115 0 162 53.5t47 174.5v1040q0 9 -2 12t-10 6l-70 27l8 49h154q19 0 19 -16v-1114q0 -159 -69 -234.5t-222 -75.5q-30 0 -80 5v77zM154 1305q0 38 17 54.5t56 16.5t56.5 -16.5t17.5 -54.5t-17.5 -55t-56.5 -17q-38 0 -55.5 17t-17.5 55z" />
<glyph unicode="k" horiz-adv-x="944" d="M82 1393l8 49h154q10 0 14 -4.5t4 -16.5v-942l502 510h119l-434 -444l442 -545h-117l-389 481l-123 -123v-358h-98v1348q0 9 -2 12t-10 6z" />
<glyph unicode="l" horiz-adv-x="446" d="M90 1393l8 49h154q10 0 14 -4.5t4 -16.5v-1327q0 -13 13 -18l69 -27l-8 -49h-154q-11 0 -14.5 4t-3.5 16v1328q0 9 -2 12t-10 6z" />
<glyph unicode="m" horiz-adv-x="1777" d="M90 940l8 49h154q11 0 14.5 -4t3.5 -16v-66q127 111 326 111q216 0 295 -127q68 65 154.5 96t220.5 31q182 0 263 -84.5t81 -274.5v-561q0 -9 2 -12t10 -6l70 -27l-9 -49h-153q-11 0 -15 4t-4 16v633q0 148 -60.5 212.5t-201.5 64.5q-208 0 -334 -96q25 -77 25 -177v-657 h-98v653q0 148 -60.5 212.5t-201.5 64.5q-158 0 -310 -96v-834h-98v895q0 9 -2 12t-10 6z" />
<glyph unicode="n" horiz-adv-x="1153" d="M90 940l8 49h154q11 0 14.5 -4t3.5 -16v-66q127 111 346 111q194 0 281.5 -90t87.5 -291v-539q0 -9 2 -12t10 -6l70 -27l-8 -49h-154q-11 0 -14.5 4t-3.5 16v611q0 160 -66.5 229.5t-218.5 69.5q-191 0 -332 -96v-834h-98v895q0 9 -2 12t-10 6z" />
<glyph unicode="o" horiz-adv-x="1132" d="M100 494q0 275 110.5 397.5t356.5 122.5q245 0 355 -122.5t110 -397.5q0 -274 -110 -396.5t-355 -122.5q-246 0 -356.5 122.5t-110.5 396.5zM199 494q0 -232 86.5 -334.5t281.5 -102.5t281 102.5t86 334.5q0 233 -86 335.5t-281 102.5t-281.5 -102.5t-86.5 -335.5z" />
<glyph unicode="p" horiz-adv-x="1146" d="M90 940l8 49h154q11 0 14.5 -4t3.5 -16v-101q47 75 131.5 110.5t219.5 35.5q223 0 323 -122.5t100 -397.5t-100.5 -397t-325.5 -122q-222 0 -348 105v-506h-98v1321q0 9 -2 12t-10 6zM270 160q142 -103 330 -103q185 0 265.5 102t80.5 335q0 234 -80.5 336t-265.5 102 q-175 0 -252.5 -73t-77.5 -238v-461z" />
<glyph unicode="q" horiz-adv-x="1134" d="M102 494q0 276 100.5 398t325.5 122q138 0 226 -37t135 -115l6 127h80v-1405l-98 -20v516q-126 -105 -349 -105q-225 0 -325.5 122t-100.5 397zM203 494q0 -234 80 -335.5t264 -101.5q188 0 330 103v461q0 166 -76.5 238.5t-253.5 72.5q-184 0 -264 -101.5t-80 -336.5z " />
<glyph unicode="r" horiz-adv-x="716" d="M90 940l8 49h154q11 0 14.5 -4t3.5 -16v-111q66 80 146 118t200 38q48 0 72 -8l-18 -82q-30 6 -68 6q-200 0 -332 -152v-778h-98v895q0 9 -2 12t-10 6z" />
<glyph unicode="s" horiz-adv-x="935" d="M111 743q0 131 97 201t275 70q176 0 303 -43l-18 -82q-127 45 -279 45q-141 0 -211.5 -48.5t-70.5 -140.5q0 -63 34.5 -103.5t89.5 -59.5t121.5 -32.5t133 -30.5t121.5 -44t89.5 -83t34.5 -138q0 -137 -97 -208t-283 -71q-180 0 -328 50v84q154 -54 321 -54 q293 0 293 197q0 51 -21.5 87.5t-57.5 57.5t-83 35.5t-99 25t-104 22t-99 31t-83 47.5t-57.5 75t-21.5 110z" />
<glyph unicode="t" horiz-adv-x="739" d="M45 936l8 53h135v303h99v-303h358v-80h-358v-635q0 -117 48.5 -167t162.5 -50q68 0 147 21v-86q-80 -17 -160 -17q-157 0 -227 70t-70 227v621q0 17 -16 20z" />
<glyph unicode="u" horiz-adv-x="1138" d="M86 940l8 49h154q11 0 14.5 -4t3.5 -16v-594q0 -170 71.5 -244t237.5 -74q163 0 235.5 74t72.5 244v614h98v-620q0 -207 -96 -300.5t-310 -93.5q-215 0 -311 93.5t-96 300.5v526q0 9 -2 12t-10 6z" />
<glyph unicode="v" horiz-adv-x="1011" d="M63 989h101q43 -169 152 -452t190 -443q81 160 190 443t152 452h100q-62 -215 -170.5 -493t-220.5 -496h-102q-112 219 -221.5 497t-170.5 492z" />
<glyph unicode="w" horiz-adv-x="1560" d="M74 989h94q49 -176 137 -465q64 -203 150 -430h2q43 118 141 430q84 271 131 447h100q28 -103 134 -447q98 -312 141 -430h2q81 212 149 430q98 321 138 465h94q-139 -503 -324 -989h-114q-140 361 -269 856q-131 -503 -268 -856h-115q-182 476 -323 989z" />
<glyph unicode="x" horiz-adv-x="1011" d="M80 0l364 502l-352 487h111l303 -422l305 422h109l-353 -487l365 -502h-111l-315 438l-316 -438h-110z" />
<glyph unicode="y" horiz-adv-x="970" d="M27 989h108l369 -866l319 866h105l-422 -1120q-67 -178 -142 -249t-206 -71q-38 0 -68 5v75q25 -2 62 -2q95 0 152.5 56.5t111.5 203.5l41 111z" />
<glyph unicode="z" horiz-adv-x="935" d="M86 0v72l623 837h-607v80h729v-71l-620 -838h637v-80h-762z" />
<glyph unicode="{" horiz-adv-x="614" d="M27 549v82h20q105 0 151 45.5t46 150.5v340q0 143 66.5 209t211.5 66h31v-80h-18q-106 0 -152.5 -46.5t-46.5 -152.5v-342q0 -184 -129 -231q129 -47 129 -232v-342q0 -107 46.5 -152.5t152.5 -45.5h18v-80h-31q-145 0 -211.5 65.5t-66.5 208.5v340q0 105 -46 151 t-151 46h-20z" />
<glyph unicode="|" horiz-adv-x="491" d="M203 -459v1966h86v-1966h-86z" />
<glyph unicode="}" horiz-adv-x="614" d="M59 -182h21q104 0 150 46t46 152v342q0 184 132 232q-132 48 -132 231v342q0 107 -45.5 153t-150.5 46h-21v80h31q146 0 212.5 -66t66.5 -209v-340q0 -105 46 -150.5t152 -45.5h19v-82h-19q-106 0 -152 -45.5t-46 -151.5v-340q0 -143 -66.5 -208.5t-212.5 -65.5h-31v80z " />
<glyph unicode="~" d="M111 440q3 167 64 243.5t192 76.5q59 0 111 -26t90 -63t73.5 -74t78 -63t87.5 -26q91 0 132 55t44 176h86q-3 -166 -64 -242.5t-192 -76.5q-59 0 -111 26t-90 63t-73.5 74t-78 63t-87.5 26q-91 0 -132 -55.5t-44 -176.5h-86z" />
<glyph unicode="&#xa1;" horiz-adv-x="483" d="M164 930q0 41 18.5 59.5t59.5 18.5t59 -18.5t18 -59.5q0 -40 -18 -58t-59 -18t-59.5 18t-18.5 58zM190 -387l7 971h88l8 -971h-103z" />
<glyph unicode="&#xa2;" d="M225 688q0 254 94.5 376.5t303.5 137.5v340h92v-336q142 -3 254 -37v-84q-121 41 -267 41q-201 0 -289.5 -102.5t-88.5 -335.5t88.5 -335.5t289.5 -102.5q146 0 267 41v-84q-112 -34 -254 -37v-336h-92v338q-209 17 -303.5 139.5t-94.5 376.5z" />
<glyph unicode="&#xa3;" d="M178 0v82h191v577h-158v82h158v240q0 220 99.5 320t319.5 100q113 0 226 -29v-86q-108 31 -213 31q-177 0 -253.5 -78.5t-76.5 -259.5v-238h432v-82h-432v-577h559v-82h-852z" />
<glyph unicode="&#xa4;" d="M135 293l150 149q-66 84 -66 246t66 246l-150 149l60 60l149 -150q87 66 246 66t246 -66l149 150l59 -60l-149 -149q66 -87 66 -246t-66 -246l149 -149l-59 -60l-149 150q-84 -66 -246 -66t-246 66l-149 -150zM301 688q0 -154 67.5 -221.5t221.5 -67.5t221.5 67.5 t67.5 221.5t-67.5 221.5t-221.5 67.5t-221.5 -67.5t-67.5 -221.5z" />
<glyph unicode="&#xa5;" d="M49 1376h115l426 -659l426 659h114l-460 -702h325v-70h-354v-231h354v-70h-354v-303h-102v303h-355v70h355v231h-355v70h326z" />
<glyph unicode="&#xa6;" horiz-adv-x="491" d="M203 -360v786h86v-786h-86zM203 623v786h86v-786h-86z" />
<glyph unicode="&#xa7;" horiz-adv-x="1126" d="M123 639q0 160 98 242q-65 71 -65 186q0 177 104 255.5t336 78.5q197 0 354 -49v-86q-168 53 -348 53q-186 0 -265 -58.5t-79 -193.5q0 -75 41.5 -125t108 -76t146.5 -45t160 -43t146.5 -59t108 -102.5t41.5 -165.5q0 -156 -95 -242q62 -75 62 -186q0 -178 -106 -260 t-341 -82q-211 0 -397 61v86q189 -66 391 -66q189 0 269.5 61.5t80.5 199.5q0 61 -25.5 106.5t-69 73t-100 47.5t-119 35.5t-124.5 32t-118.5 41t-100 59t-69 91t-25.5 130.5zM223 641q0 -81 44.5 -134.5t118.5 -81t152.5 -47t164 -48.5t135.5 -70q71 65 71 189 q0 84 -43.5 139t-116 84t-149 48.5t-162.5 47.5t-137 66q-78 -60 -78 -193z" />
<glyph unicode="&#xa8;" horiz-adv-x="491" d="M-18 1305q0 71 71 71q72 0 72 -71q0 -70 -72 -70q-71 0 -71 70zM367 1305q0 71 71 71q72 0 72 -71q0 -70 -72 -70q-71 0 -71 70z" />
<glyph unicode="&#xa9;" horiz-adv-x="1703" d="M92 688q0 395 180 574.5t580 179.5t580 -179.5t180 -574.5t-180 -574.5t-580 -179.5t-580 179.5t-180 574.5zM160 688q0 -368 163.5 -530t528.5 -162t528.5 162t163.5 530q0 369 -161.5 530.5t-530.5 161.5t-530.5 -161.5t-161.5 -530.5zM479 688q0 233 94.5 337.5 t303.5 104.5q117 0 239 -32v-72q-122 37 -229 37q-174 0 -250 -87.5t-76 -287.5t76 -287.5t250 -87.5q107 0 229 37v-71q-125 -33 -239 -33q-209 0 -303.5 104.5t-94.5 337.5z" />
<glyph unicode="&#xaa;" horiz-adv-x="763" d="M90 897q0 98 62 143t200 45q128 0 207 -32v102q0 93 -48 133.5t-157 40.5q-115 0 -204 -31v68q95 27 208 27q145 0 211 -57.5t66 -184.5v-432h-66l-4 67q-60 -84 -227 -84q-129 0 -188.5 47t-59.5 148zM92 487v68h580v-68h-580zM166 897q0 -72 42.5 -102.5t139.5 -30.5 q111 0 161 39.5t50 126.5v67q-85 31 -199 31q-106 0 -150 -29.5t-44 -101.5z" />
<glyph unicode="&#xab;" horiz-adv-x="964" d="M80 494l289 387h96l-277 -387l277 -385h-96zM498 494l288 387h95l-275 -387l275 -385h-95z" />
<glyph unicode="&#xac;" d="M158 547v86h864v-475h-86v389h-778z" />
<glyph unicode="&#xad;" horiz-adv-x="688" d="M59 463v80h537v-80h-537z" />
<glyph unicode="&#xae;" horiz-adv-x="1703" d="M92 688q0 395 180 574.5t580 179.5t580 -179.5t180 -574.5t-180 -574.5t-580 -179.5t-580 179.5t-180 574.5zM160 688q0 -368 163.5 -530t528.5 -162t528.5 162t163.5 530q0 369 -161.5 530.5t-530.5 161.5t-530.5 -161.5t-161.5 -530.5zM569 262v852h334 q150 0 217.5 -58t67.5 -188q0 -115 -54.5 -174.5t-168.5 -68.5l235 -363h-90l-229 359h-236v-359h-76zM645 686h254q113 0 161 42t48 140t-48 139.5t-161 41.5h-254v-363z" />
<glyph unicode="&#xaf;" horiz-adv-x="491" d="M-47 1268v73h586v-73h-586z" />
<glyph unicode="&#xb0;" horiz-adv-x="679" d="M106 1161q0 113 61 173.5t173 60.5t172.5 -60.5t60.5 -173.5q0 -111 -60.5 -171t-172.5 -60q-113 0 -173.5 60t-60.5 171zM172 1161q0 -82 43 -125t125 -43t125 43t43 125q0 83 -43 126.5t-125 43.5q-168 0 -168 -170z" />
<glyph unicode="&#xb1;" d="M158 0v86h864v-86h-864zM158 702v86h389v388h86v-388h389v-86h-389v-389h-86v389h-389z" />
<glyph unicode="&#xb2;" horiz-adv-x="708" d="M61 786v60l347 342q116 113 116 219q0 97 -48.5 138.5t-162.5 41.5q-113 0 -225 -37v72q106 33 234 33q148 0 215 -58.5t67 -183.5q0 -128 -129 -254l-307 -305h444v-68h-551z" />
<glyph unicode="&#xb3;" horiz-adv-x="708" d="M61 799v67q105 -30 207 -30q143 0 206 43.5t63 144.5q0 98 -66 140t-221 42h-27v51l254 316h-407v65h505v-53l-260 -319q161 -7 231 -65t70 -179q0 -132 -81.5 -192t-262.5 -60q-112 0 -211 29z" />
<glyph unicode="&#xb4;" horiz-adv-x="491" d="M168 1167l246 275h112l-262 -275h-96z" />
<glyph unicode="&#xb5;" horiz-adv-x="1138" d="M162 -426v1415h98v-620q0 -164 69 -237t226 -73q171 0 246.5 75t75.5 245v610h98v-989h-80l-6 141q-81 -164 -336 -164q-228 0 -293 140v-543h-98z" />
<glyph unicode="&#xb6;" horiz-adv-x="1198" d="M100 969q0 407 443 407h463v-1671h-86v1591h-273v-735h-104q-443 0 -443 408z" />
<glyph unicode="&#xb7;" horiz-adv-x="450" d="M147 504q0 41 17.5 58.5t60.5 17.5q42 0 60 -17.5t18 -58.5t-18.5 -59.5t-59.5 -18.5q-42 0 -60 18t-18 60z" />
<glyph unicode="&#xb8;" horiz-adv-x="491" d="M53 -379q83 -22 158 -22q89 0 126.5 23t37.5 79t-34 79t-116 23h-16v197h74v-143q90 -3 132 -41t42 -117q0 -86 -57 -126t-179 -40q-81 0 -168 23v65z" />
<glyph unicode="&#xb9;" horiz-adv-x="540" d="M70 1466v70l245 102h64v-852h-78v777z" />
<glyph unicode="&#xba;" horiz-adv-x="808" d="M90 1049q0 181 75 262.5t241 81.5q165 0 240 -81.5t75 -262.5q0 -182 -75 -264.5t-240 -82.5q-166 0 -241 82t-75 265zM92 487v68h625v-68h-625zM168 1049q0 -150 55 -214.5t183 -64.5q126 0 180.5 64.5t54.5 214.5t-54 214t-181 64q-128 0 -183 -64.5t-55 -213.5z" />
<glyph unicode="&#xbb;" horiz-adv-x="964" d="M84 109l276 385l-276 387h94l289 -387l-289 -385h-94zM500 109l276 385l-276 387h96l289 -387l-289 -385h-96z" />
<glyph unicode="&#xbc;" horiz-adv-x="1769" d="M176 1204v70l246 102h63v-852h-77v776zM539 0l618 1376h74l-619 -1376h-73zM1063 193v59l434 600h84v-596h131v-63h-131v-193h-74v193h-444zM1143 256h364v504z" />
<glyph unicode="&#xbd;" horiz-adv-x="1769" d="M176 1204v70l246 102h63v-852h-77v776zM539 0l618 1376h74l-619 -1376h-73zM1100 0v59l346 342q117 114 117 220q0 97 -48.5 138.5t-162.5 41.5t-226 -37v72q103 32 234 32q148 0 215 -58t67 -183q0 -128 -129 -254l-307 -305h445v-68h-551z" />
<glyph unicode="&#xbe;" horiz-adv-x="1769" d="M84 537v67q108 -31 207 -31q143 0 205.5 44t62.5 145q0 98 -66 140t-221 42h-26v51l254 316h-408v65h506v-53l-260 -319q161 -7 231 -65t70 -179q0 -132 -81.5 -192t-262.5 -60q-112 0 -211 29zM539 0l618 1376h74l-619 -1376h-73zM1063 193v59l434 600h84v-596h131v-63 h-131v-193h-74v193h-444zM1143 256h364v504z" />
<glyph unicode="&#xbf;" horiz-adv-x="831" d="M100 -80q0 68 21.5 125.5t55.5 99t75.5 79.5t82.5 73.5t75 73.5t55.5 88t21.5 108v17h86v-23q0 -68 -20.5 -125.5t-53.5 -99t-73 -79t-80 -72.5t-73 -71.5t-53.5 -84.5t-20.5 -103q0 -138 75 -197t248 -59q149 0 301 58v-86q-146 -54 -309 -54q-219 0 -316.5 78.5 t-97.5 253.5zM453 930q0 41 18 59.5t59 18.5t59.5 -18.5t18.5 -59.5q0 -40 -18.5 -58t-59.5 -18t-59 18t-18 58z" />
<glyph unicode="&#xc0;" horiz-adv-x="1302" d="M74 0q204 703 520 1376h115q316 -673 520 -1376h-101q-72 234 -129 397h-698q-84 -249 -127 -397h-100zM330 477h643q-165 467 -322 803q-144 -302 -321 -803zM354 1802h113l246 -274h-97z" />
<glyph unicode="&#xc1;" horiz-adv-x="1302" d="M74 0q204 703 520 1376h115q316 -673 520 -1376h-101q-72 234 -129 397h-698q-84 -249 -127 -397h-100zM330 477h643q-165 467 -322 803q-144 -302 -321 -803zM567 1528l246 274h113l-262 -274h-97z" />
<glyph unicode="&#xc2;" horiz-adv-x="1302" d="M74 0q204 703 520 1376h115q316 -673 520 -1376h-101q-72 234 -129 397h-698q-84 -249 -127 -397h-100zM330 477h643q-165 467 -322 803q-144 -302 -321 -803zM354 1528l250 274h103l249 -274h-96l-205 213l-204 -213h-97z" />
<glyph unicode="&#xc3;" horiz-adv-x="1302" d="M74 0q204 703 520 1376h115q316 -673 520 -1376h-101q-72 234 -129 397h-698q-84 -249 -127 -397h-100zM330 477h643q-165 467 -322 803q-144 -302 -321 -803zM358 1554v21q0 98 37.5 142t122.5 44q39 0 78 -18.5t65.5 -41t59.5 -41t61 -18.5q52 0 73.5 27t21.5 92v15h75 v-21q0 -97 -37.5 -140.5t-121.5 -43.5q-39 0 -78 18.5t-66 40t-60 40t-61 18.5q-52 0 -73 -26t-21 -91v-17h-76z" />
<glyph unicode="&#xc4;" horiz-adv-x="1302" d="M74 0q204 703 520 1376h115q316 -673 520 -1376h-101q-72 234 -129 397h-698q-84 -249 -127 -397h-100zM330 477h643q-165 467 -322 803q-144 -302 -321 -803zM391 1665q0 72 72 72t72 -72q0 -70 -72 -70t-72 70zM776 1665q0 72 72 72t72 -72q0 -70 -72 -70t-72 70z" />
<glyph unicode="&#xc5;" horiz-adv-x="1302" d="M74 0q204 703 520 1376h115q316 -673 520 -1376h-101q-72 234 -129 397h-698q-84 -249 -127 -397h-100zM330 477h643q-165 467 -322 803q-144 -302 -321 -803zM465 1665q0 95 45 138.5t145 43.5t145.5 -43.5t45.5 -138.5q0 -94 -46 -138t-145 -44q-100 0 -145 43.5 t-45 138.5zM532 1665q0 -66 28.5 -94.5t94.5 -28.5q65 0 94 28.5t29 94.5t-28.5 94.5t-94.5 28.5t-94.5 -28.5t-28.5 -94.5z" />
<glyph unicode="&#xc6;" horiz-adv-x="1990" d="M8 0q431 753 926 1376h938v-84h-780v-551h632v-82h-632v-575h796v-84h-897v397h-639q-101 -160 -237 -397h-107zM403 477h588v834q-279 -355 -588 -834z" />
<glyph unicode="&#xc7;" horiz-adv-x="1224" d="M117 688q0 376 149 544.5t479 168.5q200 0 377 -49v-88q-180 53 -364 53q-286 0 -412.5 -147.5t-126.5 -481.5t126.5 -481.5t412.5 -147.5q180 0 364 54v-88q-175 -47 -358 -50v-118q90 -3 132 -41t42 -117q0 -86 -57 -126t-179 -40q-80 0 -167 23v65q83 -22 157 -22 q89 0 126.5 23t37.5 79t-33.5 79t-115.5 23h-17v174q-301 12 -437 181t-136 530z" />
<glyph unicode="&#xc8;" horiz-adv-x="1191" d="M113 1329l8 47h952v-84h-780v-551h633v-82h-633v-575h797v-84h-897v1286q0 14 -13 19zM344 1802h113l245 -274h-96z" />
<glyph unicode="&#xc9;" horiz-adv-x="1191" d="M113 1329l8 47h952v-84h-780v-551h633v-82h-633v-575h797v-84h-897v1286q0 14 -13 19zM547 1528l246 274h112l-262 -274h-96z" />
<glyph unicode="&#xca;" horiz-adv-x="1191" d="M113 1329l8 47h952v-84h-780v-551h633v-82h-633v-575h797v-84h-897v1286q0 14 -13 19zM324 1528l249 274h103l250 -274h-97l-204 213l-205 -213h-96z" />
<glyph unicode="&#xcb;" horiz-adv-x="1191" d="M113 1329l8 47h952v-84h-780v-551h633v-82h-633v-575h797v-84h-897v1286q0 14 -13 19zM360 1665q0 72 72 72t72 -72q0 -70 -72 -70t-72 70zM745 1665q0 72 72 72t72 -72q0 -70 -72 -70t-72 70z" />
<glyph unicode="&#xcc;" horiz-adv-x="485" d="M-37 1802h113l246 -274h-97zM113 1329l8 47h153q11 0 15 -4t4 -16v-1356h-100v1286q0 14 -13 19z" />
<glyph unicode="&#xcd;" horiz-adv-x="485" d="M113 1329l8 47h153q11 0 15 -4t4 -16v-1356h-100v1286q0 14 -13 19zM166 1528l246 274h112l-262 -274h-96z" />
<glyph unicode="&#xce;" horiz-adv-x="485" d="M-57 1528l250 274h102l250 -274h-96l-205 213l-205 -213h-96zM113 1329l8 47h153q11 0 15 -4t4 -16v-1356h-100v1286q0 14 -13 19z" />
<glyph unicode="&#xcf;" horiz-adv-x="485" d="M-20 1665q0 72 71 72q72 0 72 -72q0 -70 -72 -70q-71 0 -71 70zM113 1329l8 47h153q11 0 15 -4t4 -16v-1356h-100v1286q0 14 -13 19zM365 1665q0 72 71 72q72 0 72 -72q0 -70 -72 -70q-71 0 -71 70z" />
<glyph unicode="&#xd0;" horiz-adv-x="1460" d="M47 662v77h178v547q0 14 -12 19l-68 24l9 47h479q375 0 542.5 -162.5t167.5 -525.5t-167.5 -525.5t-542.5 -162.5h-408v662h-178zM326 84h301q327 0 470.5 141.5t143.5 462.5t-143.5 462.5t-470.5 141.5h-301v-553h399v-77h-399v-578z" />
<glyph unicode="&#xd1;" horiz-adv-x="1492" d="M113 1329l8 47h135h12t10 -1.5t8 -1.5t7 -3t5.5 -4t6 -6.5t6.5 -7.5t8 -10.5t9 -12.5l876 -1186v1233h96v-1376h-102l-911 1233v-1233h-94v1286q0 14 -13 19zM449 1554v21q0 98 37 142t122 44q39 0 78 -18.5t65.5 -41t59.5 -41t61 -18.5q52 0 73.5 27t21.5 92v15h75v-21 q0 -97 -37.5 -140.5t-121.5 -43.5q-39 0 -78 18.5t-66 40t-60 40t-61 18.5q-52 0 -73 -26t-21 -91v-17h-75z" />
<glyph unicode="&#xd2;" horiz-adv-x="1492" d="M117 688q0 376 148 544.5t480 168.5q333 0 482 -168.5t149 -544.5t-149 -544.5t-482 -168.5q-332 0 -480 168.5t-148 544.5zM219 688q0 -335 122.5 -482t403.5 -147t405 147.5t124 481.5t-124 481.5t-405 147.5t-403.5 -147t-122.5 -482zM465 1802h113l245 -274h-96z" />
<glyph unicode="&#xd3;" horiz-adv-x="1492" d="M117 688q0 376 148 544.5t480 168.5q333 0 482 -168.5t149 -544.5t-149 -544.5t-482 -168.5q-332 0 -480 168.5t-148 544.5zM219 688q0 -335 122.5 -482t403.5 -147t405 147.5t124 481.5t-124 481.5t-405 147.5t-403.5 -147t-122.5 -482zM668 1528l245 274h113l-262 -274 h-96z" />
<glyph unicode="&#xd4;" horiz-adv-x="1492" d="M117 688q0 376 148 544.5t480 168.5q333 0 482 -168.5t149 -544.5t-149 -544.5t-482 -168.5q-332 0 -480 168.5t-148 544.5zM219 688q0 -335 122.5 -482t403.5 -147t405 147.5t124 481.5t-124 481.5t-405 147.5t-403.5 -147t-122.5 -482zM444 1528l250 274h103l250 -274 h-97l-205 213l-204 -213h-97z" />
<glyph unicode="&#xd5;" horiz-adv-x="1492" d="M117 688q0 376 148 544.5t480 168.5q333 0 482 -168.5t149 -544.5t-149 -544.5t-482 -168.5q-332 0 -480 168.5t-148 544.5zM219 688q0 -335 122.5 -482t403.5 -147t405 147.5t124 481.5t-124 481.5t-405 147.5t-403.5 -147t-122.5 -482zM449 1554v21q0 98 37 142t122 44 q39 0 78 -18.5t65.5 -41t59.5 -41t61 -18.5q52 0 73.5 27t21.5 92v15h75v-21q0 -97 -37.5 -140.5t-121.5 -43.5q-39 0 -78 18.5t-66 40t-60 40t-61 18.5q-52 0 -73 -26t-21 -91v-17h-75z" />
<glyph unicode="&#xd6;" horiz-adv-x="1492" d="M117 688q0 376 148 544.5t480 168.5q333 0 482 -168.5t149 -544.5t-149 -544.5t-482 -168.5q-332 0 -480 168.5t-148 544.5zM219 688q0 -335 122.5 -482t403.5 -147t405 147.5t124 481.5t-124 481.5t-405 147.5t-403.5 -147t-122.5 -482zM481 1665q0 72 72 72t72 -72 q0 -70 -72 -70t-72 70zM866 1665q0 72 72 72t72 -72q0 -70 -72 -70t-72 70z" />
<glyph unicode="&#xd7;" d="M209 268l321 322l-321 321l59 60l322 -322l321 322l60 -60l-322 -321l322 -322l-60 -59l-321 321l-322 -321z" />
<glyph unicode="&#xd8;" horiz-adv-x="1492" d="M117 688q0 376 148 544.5t480 168.5q266 0 412 -107l111 148h86l-144 -193q166 -169 166 -561q0 -376 -149 -544.5t-482 -168.5q-269 0 -411 107l-111 -148h-86l144 191q-164 167 -164 563zM213 688q0 -340 125 -485l764 1018q-121 98 -357 98q-284 0 -408 -147 t-124 -484zM389 154q123 -97 356 -97q285 0 410 147.5t125 483.5q0 339 -127 486z" />
<glyph unicode="&#xd9;" horiz-adv-x="1492" d="M113 1329l8 47h153q11 0 15 -4t4 -16v-834q0 -247 105 -355t347 -108q243 0 349 108t106 355v854h100v-860q0 -286 -131 -413.5t-424 -127.5q-292 0 -422 127.5t-130 413.5v770q0 14 -13 19zM465 1802h113l245 -274h-96z" />
<glyph unicode="&#xda;" horiz-adv-x="1492" d="M113 1329l8 47h153q11 0 15 -4t4 -16v-834q0 -247 105 -355t347 -108q243 0 349 108t106 355v854h100v-860q0 -286 -131 -413.5t-424 -127.5q-292 0 -422 127.5t-130 413.5v770q0 14 -13 19zM668 1528l245 274h113l-262 -274h-96z" />
<glyph unicode="&#xdb;" horiz-adv-x="1492" d="M113 1329l8 47h153q11 0 15 -4t4 -16v-834q0 -247 105 -355t347 -108q243 0 349 108t106 355v854h100v-860q0 -286 -131 -413.5t-424 -127.5q-292 0 -422 127.5t-130 413.5v770q0 14 -13 19zM444 1528l250 274h103l250 -274h-97l-205 213l-204 -213h-97z" />
<glyph unicode="&#xdc;" horiz-adv-x="1492" d="M113 1329l8 47h153q11 0 15 -4t4 -16v-834q0 -247 105 -355t347 -108q243 0 349 108t106 355v854h100v-860q0 -286 -131 -413.5t-424 -127.5q-292 0 -422 127.5t-130 413.5v770q0 14 -13 19zM481 1665q0 72 72 72t72 -72q0 -70 -72 -70t-72 70zM866 1665q0 72 72 72 t72 -72q0 -70 -72 -70t-72 70z" />
<glyph unicode="&#xdd;" horiz-adv-x="1204" d="M45 1376h117l440 -680l440 680h117l-508 -772v-604h-100v604zM524 1528l246 274h113l-262 -274h-97z" />
<glyph unicode="&#xde;" horiz-adv-x="1263" d="M113 1329l8 47h151q11 0 15 -4t4 -16v-248h409q243 0 353 -97t110 -311t-110 -310.5t-353 -96.5h-409v-293h-98v1286q0 14 -13 19zM291 375h403q197 0 283 76t86 249t-86.5 249.5t-282.5 76.5h-403v-651z" />
<glyph unicode="&#xdf;" horiz-adv-x="1138" d="M162 0v1014q0 236 103 344t327 108q207 0 300 -88.5t93 -285.5q0 -140 -51.5 -220.5t-161.5 -111.5q138 -23 208.5 -118.5t70.5 -258.5q0 -214 -103.5 -311t-333.5 -97q-110 0 -204 17v84q100 -19 192 -19q189 0 270.5 77.5t81.5 254.5q0 172 -85.5 248t-282.5 76h-90v82 h73q171 0 246.5 67.5t75.5 222.5q0 160 -70 229.5t-231 69.5q-177 0 -254.5 -88t-77.5 -288v-1008h-96z" />
<glyph unicode="&#xe0;" horiz-adv-x="1071" d="M102 260q0 147 93.5 214t296.5 67q175 0 317 -52v175q0 144 -74.5 207t-245.5 63q-155 0 -301 -49v84q136 45 310 45q213 0 309 -84.5t96 -272.5v-563q0 -9 2 -12t10 -6l70 -27l-8 -49h-133q-7 0 -10.5 0.5t-6 4.5t-2.5 13l-4 95q-85 -138 -348 -138q-189 0 -280 70 t-91 215zM199 260q0 -108 69.5 -158.5t218.5 -50.5q168 0 245 60.5t77 191.5v113q-133 53 -305 53q-163 0 -234 -48t-71 -161zM252 1442h113l245 -275h-96z" />
<glyph unicode="&#xe1;" horiz-adv-x="1071" d="M102 260q0 147 93.5 214t296.5 67q175 0 317 -52v175q0 144 -74.5 207t-245.5 63q-155 0 -301 -49v84q136 45 310 45q213 0 309 -84.5t96 -272.5v-563q0 -9 2 -12t10 -6l70 -27l-8 -49h-133q-7 0 -10.5 0.5t-6 4.5t-2.5 13l-4 95q-85 -138 -348 -138q-189 0 -280 70 t-91 215zM199 260q0 -108 69.5 -158.5t218.5 -50.5q168 0 245 60.5t77 191.5v113q-133 53 -305 53q-163 0 -234 -48t-71 -161zM455 1167l245 275h113l-262 -275h-96z" />
<glyph unicode="&#xe2;" horiz-adv-x="1071" d="M102 260q0 147 93.5 214t296.5 67q175 0 317 -52v175q0 144 -74.5 207t-245.5 63q-155 0 -301 -49v84q136 45 310 45q213 0 309 -84.5t96 -272.5v-563q0 -9 2 -12t10 -6l70 -27l-8 -49h-133q-7 0 -10.5 0.5t-6 4.5t-2.5 13l-4 95q-85 -138 -348 -138q-189 0 -280 70 t-91 215zM199 260q0 -108 69.5 -158.5t218.5 -50.5q168 0 245 60.5t77 191.5v113q-133 53 -305 53q-163 0 -234 -48t-71 -161zM231 1167l250 275h103l250 -275h-97l-205 213l-204 -213h-97z" />
<glyph unicode="&#xe3;" horiz-adv-x="1071" d="M102 260q0 147 93.5 214t296.5 67q175 0 317 -52v175q0 144 -74.5 207t-245.5 63q-155 0 -301 -49v84q136 45 310 45q213 0 309 -84.5t96 -272.5v-563q0 -9 2 -12t10 -6l70 -27l-8 -49h-133q-7 0 -10.5 0.5t-6 4.5t-2.5 13l-4 95q-85 -138 -348 -138q-189 0 -280 70 t-91 215zM199 260q0 -108 69.5 -158.5t218.5 -50.5q168 0 245 60.5t77 191.5v113q-133 53 -305 53q-163 0 -234 -48t-71 -161zM236 1194v20q0 99 37.5 143t121.5 44q39 0 78 -18.5t65.5 -41t59.5 -41t61 -18.5q52 0 73.5 27t21.5 92v14h75v-20q0 -97 -37.5 -141t-121.5 -44 q-39 0 -78 18.5t-65.5 40t-59.5 40t-61 18.5q-52 0 -73.5 -26t-21.5 -91v-16h-75z" />
<glyph unicode="&#xe4;" horiz-adv-x="1071" d="M102 260q0 147 93.5 214t296.5 67q175 0 317 -52v175q0 144 -74.5 207t-245.5 63q-155 0 -301 -49v84q136 45 310 45q213 0 309 -84.5t96 -272.5v-563q0 -9 2 -12t10 -6l70 -27l-8 -49h-133q-7 0 -10.5 0.5t-6 4.5t-2.5 13l-4 95q-85 -138 -348 -138q-189 0 -280 70 t-91 215zM199 260q0 -108 69.5 -158.5t218.5 -50.5q168 0 245 60.5t77 191.5v113q-133 53 -305 53q-163 0 -234 -48t-71 -161zM268 1305q0 71 72 71t72 -71q0 -70 -72 -70t-72 70zM653 1305q0 71 72 71t72 -71q0 -70 -72 -70t-72 70z" />
<glyph unicode="&#xe5;" horiz-adv-x="1071" d="M102 260q0 147 93.5 214t296.5 67q175 0 317 -52v175q0 144 -74.5 207t-245.5 63q-155 0 -301 -49v84q136 45 310 45q213 0 309 -84.5t96 -272.5v-563q0 -9 2 -12t10 -6l70 -27l-8 -49h-133q-7 0 -10.5 0.5t-6 4.5t-2.5 13l-4 95q-85 -138 -348 -138q-189 0 -280 70 t-91 215zM199 260q0 -108 69.5 -158.5t218.5 -50.5q168 0 245 60.5t77 191.5v113q-133 53 -305 53q-163 0 -234 -48t-71 -161zM342 1305q0 95 45 138.5t145 43.5t145.5 -43.5t45.5 -138.5q0 -94 -46 -138.5t-145 -44.5q-100 0 -145 44t-45 139zM410 1305q0 -66 28 -94.5 t94 -28.5q65 0 94 28.5t29 94.5t-28.5 94t-94.5 28t-94 -28t-28 -94z" />
<glyph unicode="&#xe6;" horiz-adv-x="1775" d="M102 260q0 147 93.5 214t296.5 67q175 0 317 -52v175q0 144 -74.5 207t-245.5 63q-155 0 -301 -49v84q136 45 310 45q169 0 257 -51t113 -166q82 217 392 217q215 0 311 -119t96 -385q0 -29 -2 -43h-762q1 -218 101 -315t321 -97q157 0 305 49v-84q-139 -45 -311 -45 q-183 0 -294 54.5t-163 171.5q-55 -226 -383 -226q-192 0 -284.5 70t-92.5 215zM199 260q0 -107 72 -158t223 -51q165 0 240 60.5t75 191.5v113q-133 53 -305 53q-163 0 -234 -48t-71 -161zM903 539h668q-3 215 -75 307t-236 92q-187 0 -270.5 -93t-86.5 -306z" />
<glyph unicode="&#xe7;" horiz-adv-x="935" d="M102 494q0 275 110.5 397.5t356.5 122.5q156 0 277 -37v-86q-121 41 -264 41q-202 0 -290.5 -102.5t-88.5 -335.5q0 -232 88.5 -334.5t290.5 -102.5q143 0 264 41v-86q-115 -34 -262 -37v-118q90 -3 132 -41t42 -117q0 -86 -57 -126t-179 -40q-81 0 -168 23v65 q83 -22 158 -22q89 0 126.5 23t37.5 79t-34 79t-116 23h-16v174q-215 13 -311.5 136.5t-96.5 380.5z" />
<glyph unicode="&#xe8;" horiz-adv-x="1071" d="M102 494q0 275 107.5 397.5t347.5 122.5q215 0 310.5 -119t95.5 -385v-43h-764q5 -220 103 -316t319 -96q159 0 307 49v-84q-139 -45 -314 -45q-269 0 -390.5 123t-121.5 396zM199 539h669q-3 215 -75 307t-236 92q-186 0 -269.5 -94t-88.5 -305zM268 1442h113l246 -275 h-97z" />
<glyph unicode="&#xe9;" horiz-adv-x="1071" d="M102 494q0 275 107.5 397.5t347.5 122.5q215 0 310.5 -119t95.5 -385v-43h-764q5 -220 103 -316t319 -96q159 0 307 49v-84q-139 -45 -314 -45q-269 0 -390.5 123t-121.5 396zM199 539h669q-3 215 -75 307t-236 92q-186 0 -269.5 -94t-88.5 -305zM471 1167l246 275h112 l-262 -275h-96z" />
<glyph unicode="&#xea;" horiz-adv-x="1071" d="M102 494q0 275 107.5 397.5t347.5 122.5q215 0 310.5 -119t95.5 -385v-43h-764q5 -220 103 -316t319 -96q159 0 307 49v-84q-139 -45 -314 -45q-269 0 -390.5 123t-121.5 396zM199 539h669q-3 215 -75 307t-236 92q-186 0 -269.5 -94t-88.5 -305zM248 1167l250 275h102 l250 -275h-96l-205 213l-205 -213h-96z" />
<glyph unicode="&#xeb;" horiz-adv-x="1071" d="M102 494q0 275 107.5 397.5t347.5 122.5q215 0 310.5 -119t95.5 -385v-43h-764q5 -220 103 -316t319 -96q159 0 307 49v-84q-139 -45 -314 -45q-269 0 -390.5 123t-121.5 396zM199 539h669q-3 215 -75 307t-236 92q-186 0 -269.5 -94t-88.5 -305zM285 1305q0 71 71 71 q72 0 72 -71q0 -70 -72 -70q-71 0 -71 70zM670 1305q0 71 71 71q72 0 72 -71q0 -70 -72 -70q-71 0 -71 70z" />
<glyph unicode="&#xec;" horiz-adv-x="452" d="M-51 1442h112l246 -275h-96zM98 940l8 49h154q19 0 19 -16v-973h-99v895q0 9 -2 12t-10 6z" />
<glyph unicode="&#xed;" horiz-adv-x="452" d="M98 940l8 49h154q19 0 19 -16v-973h-99v895q0 9 -2 12t-10 6zM152 1167l245 275h113l-262 -275h-96z" />
<glyph unicode="&#xee;" horiz-adv-x="452" d="M-72 1167l250 275h103l249 -275h-96l-205 213l-204 -213h-97zM98 940l8 49h154q19 0 19 -16v-973h-99v895q0 9 -2 12t-10 6z" />
<glyph unicode="&#xef;" horiz-adv-x="452" d="M-35 1305q0 71 72 71t72 -71q0 -70 -72 -70t-72 70zM98 940l8 49h154q19 0 19 -16v-973h-99v895q0 9 -2 12t-10 6zM350 1305q0 71 72 71t72 -71q0 -70 -72 -70t-72 70z" />
<glyph unicode="&#xf0;" horiz-adv-x="1138" d="M102 489q0 269 107 390.5t342 121.5q253 0 340 -161q-59 307 -244 438l-133 -150h-98l168 187q-121 62 -301 71v80q210 -6 360 -84l88 99h98l-122 -138q311 -213 311 -827q0 -284 -110.5 -412.5t-354.5 -128.5q-237 0 -344 121.5t-107 392.5zM203 489q0 -232 82 -334 t268 -102q195 0 281 103t86 336q0 222 -84.5 327t-268.5 105q-194 0 -279 -101.5t-85 -333.5z" />
<glyph unicode="&#xf1;" horiz-adv-x="1153" d="M90 940l8 49h154q11 0 14.5 -4t3.5 -16v-66q127 111 346 111q194 0 281.5 -90t87.5 -291v-539q0 -9 2 -12t10 -6l70 -27l-8 -49h-154q-11 0 -14.5 4t-3.5 16v611q0 160 -66.5 229.5t-218.5 69.5q-191 0 -332 -96v-834h-98v895q0 9 -2 12t-10 6zM350 1194v20 q0 98 37.5 142.5t122.5 44.5q39 0 78 -18.5t65.5 -41t59.5 -41t61 -18.5q52 0 73 27t21 92v14h76v-20q0 -97 -38 -141t-122 -44q-39 0 -78 18.5t-65.5 40t-59.5 40t-61 18.5q-52 0 -73 -26t-21 -91v-16h-76z" />
<glyph unicode="&#xf2;" horiz-adv-x="1132" d="M100 494q0 275 110.5 397.5t356.5 122.5q245 0 355 -122.5t110 -397.5q0 -274 -110 -396.5t-355 -122.5q-246 0 -356.5 122.5t-110.5 396.5zM199 494q0 -232 86.5 -334.5t281.5 -102.5t281 102.5t86 334.5q0 233 -86 335.5t-281 102.5t-281.5 -102.5t-86.5 -335.5z M287 1442h112l246 -275h-96z" />
<glyph unicode="&#xf3;" horiz-adv-x="1132" d="M100 494q0 275 110.5 397.5t356.5 122.5q245 0 355 -122.5t110 -397.5q0 -274 -110 -396.5t-355 -122.5q-246 0 -356.5 122.5t-110.5 396.5zM199 494q0 -232 86.5 -334.5t281.5 -102.5t281 102.5t86 334.5q0 233 -86 335.5t-281 102.5t-281.5 -102.5t-86.5 -335.5z M489 1167l246 275h113l-262 -275h-97z" />
<glyph unicode="&#xf4;" horiz-adv-x="1132" d="M100 494q0 275 110.5 397.5t356.5 122.5q245 0 355 -122.5t110 -397.5q0 -274 -110 -396.5t-355 -122.5q-246 0 -356.5 122.5t-110.5 396.5zM199 494q0 -232 86.5 -334.5t281.5 -102.5t281 102.5t86 334.5q0 233 -86 335.5t-281 102.5t-281.5 -102.5t-86.5 -335.5z M266 1167l250 275h102l250 -275h-96l-205 213l-205 -213h-96z" />
<glyph unicode="&#xf5;" horiz-adv-x="1132" d="M100 494q0 275 110.5 397.5t356.5 122.5q245 0 355 -122.5t110 -397.5q0 -274 -110 -396.5t-355 -122.5q-246 0 -356.5 122.5t-110.5 396.5zM199 494q0 -232 86.5 -334.5t281.5 -102.5t281 102.5t86 334.5q0 233 -86 335.5t-281 102.5t-281.5 -102.5t-86.5 -335.5z M270 1194v20q0 98 37.5 142.5t122.5 44.5q39 0 78 -18.5t65.5 -41t59.5 -41t61 -18.5q52 0 73 27t21 92v14h76v-20q0 -97 -37.5 -141t-121.5 -44q-39 0 -78 18.5t-66 40t-60 40t-61 18.5q-52 0 -73 -26t-21 -91v-16h-76z" />
<glyph unicode="&#xf6;" horiz-adv-x="1132" d="M100 494q0 275 110.5 397.5t356.5 122.5q245 0 355 -122.5t110 -397.5q0 -274 -110 -396.5t-355 -122.5q-246 0 -356.5 122.5t-110.5 396.5zM199 494q0 -232 86.5 -334.5t281.5 -102.5t281 102.5t86 334.5q0 233 -86 335.5t-281 102.5t-281.5 -102.5t-86.5 -335.5z M303 1305q0 71 72 71q71 0 71 -71q0 -70 -71 -70q-72 0 -72 70zM688 1305q0 71 72 71q71 0 71 -71q0 -70 -71 -70q-72 0 -72 70z" />
<glyph unicode="&#xf7;" d="M158 549v82h864v-82h-864zM520 229q0 35 16.5 51.5t53.5 16.5q36 0 52.5 -16.5t16.5 -51.5t-16 -51t-53 -16t-53.5 16t-16.5 51zM520 950q0 35 16.5 51.5t53.5 16.5q36 0 52.5 -16t16.5 -52q0 -35 -16 -51t-53 -16t-53.5 16t-16.5 51z" />
<glyph unicode="&#xf8;" horiz-adv-x="1132" d="M100 494q0 275 110.5 397.5t356.5 122.5q189 0 295 -72l86 113h78l-115 -154q121 -124 121 -407q0 -274 -110 -396.5t-355 -122.5q-187 0 -297 72l-84 -113h-77l112 152q-121 118 -121 408zM190 494q0 -231 86 -336l535 714q-87 66 -244 66q-200 0 -288.5 -104 t-88.5 -340zM322 115q88 -64 245 -64q199 0 287 104t88 339q0 229 -84 335z" />
<glyph unicode="&#xf9;" horiz-adv-x="1138" d="M86 940l8 49h154q11 0 14.5 -4t3.5 -16v-594q0 -170 71.5 -244t237.5 -74q163 0 235.5 74t72.5 244v614h98v-620q0 -207 -96 -300.5t-310 -93.5q-215 0 -311 93.5t-96 300.5v526q0 9 -2 12t-10 6zM295 1442h113l245 -275h-96z" />
<glyph unicode="&#xfa;" horiz-adv-x="1138" d="M86 940l8 49h154q11 0 14.5 -4t3.5 -16v-594q0 -170 71.5 -244t237.5 -74q163 0 235.5 74t72.5 244v614h98v-620q0 -207 -96 -300.5t-310 -93.5q-215 0 -311 93.5t-96 300.5v526q0 9 -2 12t-10 6zM498 1167l245 275h113l-262 -275h-96z" />
<glyph unicode="&#xfb;" horiz-adv-x="1138" d="M86 940l8 49h154q11 0 14.5 -4t3.5 -16v-594q0 -170 71.5 -244t237.5 -74q163 0 235.5 74t72.5 244v614h98v-620q0 -207 -96 -300.5t-310 -93.5q-215 0 -311 93.5t-96 300.5v526q0 9 -2 12t-10 6zM274 1167l250 275h103l250 -275h-97l-205 213l-204 -213h-97z" />
<glyph unicode="&#xfc;" horiz-adv-x="1138" d="M86 940l8 49h154q11 0 14.5 -4t3.5 -16v-594q0 -170 71.5 -244t237.5 -74q163 0 235.5 74t72.5 244v614h98v-620q0 -207 -96 -300.5t-310 -93.5q-215 0 -311 93.5t-96 300.5v526q0 9 -2 12t-10 6zM311 1305q0 71 72 71t72 -71q0 -70 -72 -70t-72 70zM696 1305q0 71 72 71 t72 -71q0 -70 -72 -70t-72 70z" />
<glyph unicode="&#xfd;" horiz-adv-x="970" d="M27 989h108l369 -866l319 866h105l-422 -1120q-67 -178 -142 -249t-206 -71q-38 0 -68 5v75q25 -2 62 -2q95 0 152.5 56.5t111.5 203.5l41 111zM408 1167l245 275h113l-262 -275h-96z" />
<glyph unicode="&#xfe;" horiz-adv-x="1146" d="M90 1393l8 49h154q10 0 14 -4.5t4 -16.5v-553q47 75 131.5 110.5t219.5 35.5q223 0 323 -122t100 -398q0 -275 -100 -397t-323 -122q-135 0 -219.5 35t-131.5 111v-547h-98v1774q0 9 -2 12t-10 6zM270 369q0 -167 77.5 -239.5t252.5 -72.5q185 0 265.5 102t80.5 335 q0 234 -80.5 336t-265.5 102q-175 0 -252.5 -73t-77.5 -238v-252z" />
<glyph unicode="&#xff;" horiz-adv-x="970" d="M27 989h108l369 -866l319 866h105l-422 -1120q-67 -178 -142 -249t-206 -71q-38 0 -68 5v75q25 -2 62 -2q95 0 152.5 56.5t111.5 203.5l41 111zM221 1305q0 71 72 71t72 -71q0 -70 -72 -70t-72 70zM606 1305q0 71 72 71t72 -71q0 -70 -72 -70t-72 70z" />
<glyph unicode="&#x152;" horiz-adv-x="2086" d="M117 688q0 363 167 525.5t543 162.5h1141v-82h-764v-553h617v-82h-617v-577h781v-82h-1158q-376 0 -543 162.5t-167 525.5zM219 688q0 -321 144 -462.5t471 -141.5h270v1208h-270q-327 0 -471 -141.5t-144 -462.5z" />
<glyph unicode="&#x153;" horiz-adv-x="1904" d="M100 494q0 275 110.5 397.5t356.5 122.5q347 0 416 -277q35 142 135.5 209.5t270.5 67.5q215 0 311 -119t96 -385q0 -29 -2 -43h-762q3 -220 101 -316t321 -96q157 0 305 49v-84q-139 -45 -311 -45q-196 0 -310 68.5t-153 214.5q-25 -137 -132 -210t-286 -73 q-246 0 -356.5 122.5t-110.5 396.5zM201 494q0 -232 85.5 -334.5t280.5 -102.5t281 102.5t86 334.5q0 233 -86 335.5t-281 102.5t-280.5 -102.5t-85.5 -335.5zM1032 539h668q-3 215 -75 307t-236 92q-186 0 -270.5 -95t-86.5 -304z" />
<glyph unicode="&#x178;" horiz-adv-x="1204" d="M45 1376h117l440 -680l440 680h117l-508 -772v-604h-100v604zM338 1692q0 71 72 71q71 0 71 -71q0 -70 -71 -70q-72 0 -72 70zM723 1692q0 71 72 71q71 0 71 -71q0 -70 -71 -70q-72 0 -72 70z" />
<glyph unicode="&#x2c6;" horiz-adv-x="491" d="M-55 1167l250 275h102l250 -275h-96l-205 213l-205 -213h-96z" />
<glyph unicode="&#x2dc;" horiz-adv-x="491" d="M-51 1194v20q0 98 37.5 142.5t122.5 44.5q39 0 78 -18.5t65.5 -41t59.5 -41t61 -18.5q52 0 73 27t21 92v14h76v-20q0 -97 -38 -141t-122 -44q-39 0 -78 18.5t-65.5 40t-59.5 40t-61 18.5q-52 0 -73 -26t-21 -91v-16h-76z" />
<glyph unicode="&#x2000;" horiz-adv-x="923" />
<glyph unicode="&#x2001;" horiz-adv-x="1847" />
<glyph unicode="&#x2002;" horiz-adv-x="923" />
<glyph unicode="&#x2003;" horiz-adv-x="1847" />
<glyph unicode="&#x2004;" horiz-adv-x="615" />
<glyph unicode="&#x2005;" horiz-adv-x="461" />
<glyph unicode="&#x2006;" horiz-adv-x="307" />
<glyph unicode="&#x2007;" horiz-adv-x="307" />
<glyph unicode="&#x2008;" horiz-adv-x="230" />
<glyph unicode="&#x2009;" horiz-adv-x="369" />
<glyph unicode="&#x200a;" horiz-adv-x="102" />
<glyph unicode="&#x2010;" horiz-adv-x="655" d="M59 463v80h537v-80h-537z" />
<glyph unicode="&#x2011;" horiz-adv-x="655" d="M59 463v80h537v-80h-537z" />
<glyph unicode="&#x2012;" horiz-adv-x="655" d="M59 463v80h537v-80h-537z" />
<glyph unicode="&#x2013;" d="M59 463v80h1061v-80h-1061z" />
<glyph unicode="&#x2014;" horiz-adv-x="1769" d="M59 463v80h1651v-80h-1651z" />
<glyph unicode="&#x2018;" horiz-adv-x="450" d="M111 948l143 428h82l-117 -428h-108z" />
<glyph unicode="&#x2019;" horiz-adv-x="450" d="M113 948l118 428h109l-143 -428h-84z" />
<glyph unicode="&#x201a;" horiz-adv-x="450" d="M80 -295l119 428h108l-143 -428h-84z" />
<glyph unicode="&#x201c;" horiz-adv-x="833" d="M111 948l143 428h82l-117 -428h-108zM496 948l143 428h82l-117 -428h-108z" />
<glyph unicode="&#x201d;" horiz-adv-x="833" d="M113 948l118 428h109l-143 -428h-84zM498 948l118 428h109l-143 -428h-84z" />
<glyph unicode="&#x201e;" horiz-adv-x="833" d="M80 -295l119 428h108l-143 -428h-84zM465 -295l119 428h108l-143 -428h-84z" />
<glyph unicode="&#x2022;" horiz-adv-x="983" d="M197 590q0 123 86 209t209 86t208.5 -86t85.5 -209t-85.5 -209t-208.5 -86t-209 86t-86 209z" />
<glyph unicode="&#x2026;" horiz-adv-x="1769" d="M217 59q0 41 17.5 58.5t60.5 17.5q42 0 60 -17.5t18 -58.5t-18.5 -59t-59.5 -18q-43 0 -60.5 18t-17.5 59zM807 59q0 41 17.5 58.5t60.5 17.5q42 0 60 -17.5t18 -58.5t-18.5 -59t-59.5 -18q-43 0 -60.5 18t-17.5 59zM1397 59q0 41 17.5 58.5t60.5 17.5q41 0 59 -17.5 t18 -58.5t-18 -59t-59 -18q-43 0 -60.5 18t-17.5 59z" />
<glyph unicode="&#x202f;" horiz-adv-x="369" />
<glyph unicode="&#x2039;" horiz-adv-x="548" d="M80 494l289 387h96l-277 -387l277 -385h-96z" />
<glyph unicode="&#x203a;" horiz-adv-x="548" d="M84 109l276 385l-276 387h94l289 -387l-289 -385h-94z" />
<glyph unicode="&#x205f;" horiz-adv-x="461" />
<glyph unicode="&#x20ac;" d="M106 516v68h140q-2 33 -2 104q0 88 4 129h-142v68h148q32 269 168.5 392.5t396.5 123.5q157 0 287 -37v-82q-137 41 -279 41q-218 0 -331 -103.5t-142 -334.5h561v-68h-567q-4 -41 -4 -129q0 -71 2 -104h569v-68h-563q25 -245 138 -354t337 -109q142 0 279 41v-82 q-130 -37 -287 -37q-267 0 -403 129t-164 412h-146z" />
<glyph unicode="&#x2122;" horiz-adv-x="1875" d="M51 1309v67h697v-67h-310v-785h-80v785h-307zM936 524v852h80l319 -508l324 508h80v-852h-76v731l-301 -469h-57l-293 469v-731h-76z" />
<glyph unicode="&#x25fc;" horiz-adv-x="993" d="M0 0v993h993v-993h-993z" />
</font>
</defs>
</svg>
