<?xml version="1.0" standalone="no"?>
<!DOCTYPE svg PUBLIC "-//W3C//DTD SVG 1.1//EN" "http://www.w3.org/Graphics/SVG/1.1/DTD/svg11.dtd" >
<svg xmlns="http://www.w3.org/2000/svg" xmlns:xlink="http://www.w3.org/1999/xlink" version="1.1">
<metadata></metadata>
<defs>
<font id="renault_lifebold" horiz-adv-x="1179" >
<font-face units-per-em="2048" ascent="1526" descent="-522" />
<missing-glyph horiz-adv-x="458" />
<glyph unicode="&#xfb01;" horiz-adv-x="1286" d="M10 852l25 152h129v81q0 203 94 292t309 89q51 0 111.5 -7.5t89.5 -18.5l-39 -199q-81 21 -131 21q-91 0 -132.5 -39.5t-41.5 -126.5v-92h719q10 0 14 -4.5t4 -16.5v-983h-262v805h-475v-805h-260v766q0 32 -3.5 39.5t-23.5 11.5zM874 1290q0 78 37 114t119 36 q83 0 119.5 -35.5t36.5 -114.5q0 -80 -36.5 -115.5t-119.5 -35.5q-82 0 -119 36t-37 115z" />
<glyph unicode="&#xfb02;" horiz-adv-x="1282" d="M10 852l25 152h129v57q0 211 119 307q122 98 417 98q109 0 219 -16.5t177 -40.5q29 -10 38 -22t9 -37v-1155q0 -23 4.5 -30.5t23.5 -14.5l72 -29l-24 -121h-320q-11 0 -14.5 4t-3.5 16v1223q-100 19 -189 19q-151 0 -215 -58q-53 -47 -53 -139v-61h274v-199h-274v-805 h-260v766q0 32 -3.5 39.5t-23.5 11.5z" />
<glyph unicode="&#xfb03;" horiz-adv-x="2021" d="M10 852l25 152h129v67q0 203 94 292t309 89q50 0 111 -8t90 -19l-39 -198q-78 20 -131 20q-91 0 -132.5 -39.5t-41.5 -126.5v-77h475v81q0 203 94.5 292t309.5 89q51 0 111 -7.5t89 -18.5l-39 -199q-81 21 -131 21q-91 0 -132.5 -39.5t-41.5 -126.5v-92h719q10 0 14 -4.5 t4 -16.5v-983h-262v805h-475v-805h-260v805h-475v-805h-260v766q0 32 -3.5 39.5t-23.5 11.5zM1610 1290q0 78 37 114t118 36q83 0 119.5 -35.5t36.5 -114.5q0 -80 -36.5 -115.5t-119.5 -35.5q-82 0 -118.5 35.5t-36.5 115.5z" />
<glyph unicode="&#xfb04;" horiz-adv-x="2017" d="M10 852l25 152h129v67q0 201 99.5 291t316.5 90q51 0 117.5 -8t95.5 -19l-39 -198q-78 20 -144 20q-93 0 -139.5 -40t-46.5 -126v-77h475v57q0 211 119 307q122 98 418 98q109 0 218.5 -16.5t176.5 -40.5q29 -10 38 -22t9 -37v-1155q0 -22 4.5 -30t24.5 -15l71 -29 l-24 -121h-320q-11 0 -14.5 4t-3.5 16v1223q-100 19 -189 19q-151 0 -215 -58q-53 -47 -53 -139v-61h275v-199h-275v-805h-260v805h-475v-805h-260v766q0 32 -3.5 39.5t-23.5 11.5z" />
<glyph horiz-adv-x="0" />
<glyph horiz-adv-x="0" />
<glyph horiz-adv-x="682" />
<glyph unicode="&#xd;" horiz-adv-x="458" />
<glyph unicode=" "  horiz-adv-x="458" />
<glyph unicode="&#x09;" horiz-adv-x="458" />
<glyph unicode="&#xa0;" horiz-adv-x="458" />
<glyph unicode="!" horiz-adv-x="542" d="M111 133q0 82 37 118t122 36q86 0 123 -36t37 -118q0 -83 -37 -119.5t-123 -36.5q-85 0 -122 36.5t-37 119.5zM139 1376h264l-12 -942h-239z" />
<glyph unicode="&#x22;" horiz-adv-x="952" d="M145 858v518h220v-518h-220zM588 858v518h221v-518h-221z" />
<glyph unicode="#" horiz-adv-x="1351" d="M43 326v180h233l46 364h-211v181h233l41 325h201l-41 -325h354l39 325h201l-41 -325h213v-181h-236l-45 -364h213v-180h-235l-41 -326h-199l41 326h-354l-41 -326h-201l41 326h-211zM475 506h356l46 364h-355z" />
<glyph unicode="$" d="M106 965q0 169 86.5 255.5t276.5 108.5v342h242v-340q157 -9 303 -47v-209q-195 55 -387 55q-134 0 -188 -36.5t-54 -124.5q0 -41 24 -70t64 -45.5t92.5 -28.5t110 -24t115 -27.5t110 -43t92.5 -66t64 -101t24 -143.5q0 -172 -89 -261.5t-281 -111.5v-342h-242v338 q-187 12 -344 61v209q213 -67 428 -67q136 0 193 40t57 130q0 43 -24 73.5t-64 48.5t-92.5 31t-110.5 25.5t-115.5 28t-110 42t-92.5 63.5t-64 97.5t-24 139.5z" />
<glyph unicode="%" horiz-adv-x="1769" d="M74 1032q0 195 83 282t269 87t269 -87t83 -282t-83 -281.5t-269 -86.5t-269 86.5t-83 281.5zM262 1032q0 -117 38 -168t126 -51t126 51t38 168t-38 168t-126 51t-126 -51t-38 -168zM494 0l618 1376h164l-619 -1376h-163zM991 344q0 195 83 282t269 87t269.5 -87 t83.5 -282t-83.5 -282t-269.5 -87t-269 87t-83 282zM1180 344q0 -117 37.5 -168t125.5 -51t126 51t38 168t-38 168t-126 51t-125.5 -51t-37.5 -168z" />
<glyph unicode="&#x26;" horiz-adv-x="1406" d="M80 375q0 265 289 397q-158 134 -158 295q0 165 104 249.5t310 84.5q203 0 301 -79t98 -241q0 -117 -73.5 -207t-229.5 -167l254 -256q39 89 39 225h239q-3 -257 -112 -408l254 -268h-289l-119 121q-143 -146 -403 -146q-259 0 -381.5 97t-122.5 303zM330 393 q0 -219 254 -219q162 0 250 111l-334 342q-170 -83 -170 -234zM457 1061q0 -51 30 -96.5t99 -108.5q101 48 146.5 96.5t45.5 112.5q0 71 -38 106t-119 35q-164 0 -164 -145z" />
<glyph unicode="'" horiz-adv-x="509" d="M145 858v518h220v-518h-220z" />
<glyph unicode="(" horiz-adv-x="673" d="M129 590q0 495 260 852h254q-268 -361 -268 -852t268 -852h-254q-260 357 -260 852z" />
<glyph unicode=")" horiz-adv-x="673" d="M31 -262q268 361 268 852t-268 852h254q260 -357 260 -852t-260 -852h-254z" />
<glyph unicode="*" horiz-adv-x="1001" d="M78 1006l57 170l277 -91v291h178v-291l276 91l56 -170l-277 -91l170 -235l-145 -107l-170 238l-170 -238l-146 107l170 235z" />
<glyph unicode="+" d="M143 479v221h336v336h221v-336h336v-221h-336v-336h-221v336h-336z" />
<glyph unicode="," horiz-adv-x="509" d="M35 -295l117 518h266l-172 -518h-211z" />
<glyph unicode="-" horiz-adv-x="655" d="M45 410v200h565v-200h-565z" />
<glyph unicode="." horiz-adv-x="509" d="M92 135q0 83 38 120.5t124 37.5t125 -37.5t39 -120.5t-39 -120.5t-125 -37.5t-124 37.5t-38 120.5z" />
<glyph unicode="/" horiz-adv-x="786" d="M-18 -262l591 1704h232l-592 -1704h-231z" />
<glyph unicode="0" d="M63 688q0 378 124 545.5t403 167.5q278 0 402 -167.5t124 -545.5t-124 -545.5t-402 -167.5q-279 0 -403 167.5t-124 545.5zM313 688q0 -264 65.5 -381t211.5 -117t211 117t65 381t-65 381t-211 117t-211.5 -117t-65.5 -381z" />
<glyph unicode="1" d="M215 987v211l401 178h220v-1376h-263v1145z" />
<glyph unicode="2" d="M100 0v188l498 478q164 156 164 292q0 121 -62 174.5t-200 53.5q-175 0 -361 -62v217q183 60 402 60q257 0 373 -97.5t116 -312.5q0 -214 -203 -411l-385 -371h592v-209h-934z" />
<glyph unicode="3" d="M100 27v209q168 -56 338 -56q181 0 260.5 53t79.5 173q0 118 -84 169.5t-278 51.5h-64v153l334 398h-569v198h864v-178l-342 -403q207 -19 307.5 -116.5t100.5 -279.5q0 -224 -138.5 -324t-449.5 -100q-191 0 -359 52z" />
<glyph unicode="4" d="M41 287v188l641 901h274v-891h177v-198h-177v-287h-241v287h-674zM287 485h428v605z" />
<glyph unicode="5" d="M129 27v209q165 -56 338 -56q177 0 255.5 55t78.5 179q0 123 -81.5 176t-268.5 53q-148 0 -285 -14v747h835v-198h-593v-351q86 7 147 7q270 0 391 -101t121 -325q0 -228 -136.5 -330.5t-443.5 -102.5q-190 0 -358 52z" />
<glyph unicode="6" d="M84 623q0 413 149 595.5t488 182.5q174 0 319 -43v-207q-155 45 -299 45q-205 0 -297.5 -99t-101.5 -319q78 121 307 121q247 0 357 -106t110 -344q0 -249 -120.5 -361.5t-389.5 -112.5q-277 0 -399.5 152t-122.5 496zM350 459q0 -279 250 -279q140 0 203 62.5t63 201.5 q0 133 -58.5 193.5t-189.5 60.5q-139 0 -203.5 -58t-64.5 -181z" />
<glyph unicode="7" d="M106 1167v209h961v-178l-537 -1198h-264l529 1167h-689z" />
<glyph unicode="8" d="M68 367q0 143 66 223.5t212 114.5q-126 32 -186 110t-60 211q0 198 116 286.5t374 88.5t373.5 -88.5t115.5 -286.5q0 -133 -59.5 -211t-185.5 -110q146 -34 212 -114.5t66 -223.5q0 -206 -123.5 -299t-398.5 -93t-398.5 93t-123.5 299zM326 377q0 -107 62.5 -155 t201.5 -48t201.5 48t62.5 155q0 104 -59.5 155.5t-204.5 71.5q-145 -20 -204.5 -71.5t-59.5 -155.5zM352 1016q0 -95 55 -143.5t183 -67.5q128 19 182.5 67.5t54.5 143.5q0 98 -55.5 142t-181.5 44t-182 -44t-56 -142z" />
<glyph unicode="9" d="M63 928q0 249 120 361t390 112q277 0 400 -151.5t123 -495.5q0 -413 -149 -596t-488 -183q-175 0 -320 43v207q155 -45 299 -45q205 0 298 99t102 319q-78 -121 -308 -121q-247 0 -357 106.5t-110 344.5zM313 932q0 -133 58.5 -193.5t189.5 -60.5q139 0 203.5 58.5 t64.5 181.5q0 141 -61.5 209.5t-187.5 68.5q-140 0 -203.5 -62.5t-63.5 -201.5z" />
<glyph unicode=":" horiz-adv-x="542" d="M109 135q0 84 37.5 121t123.5 37t125 -37.5t39 -120.5t-39 -120.5t-125 -37.5t-123.5 37t-37.5 121zM109 868q0 84 37.5 121t123.5 37t125 -37.5t39 -120.5t-39 -120t-125 -37t-123.5 37t-37.5 120z" />
<glyph unicode=";" horiz-adv-x="542" d="M51 -295l117 518h266l-172 -518h-211zM109 868q0 84 37.5 121t123.5 37t125 -37.5t39 -120.5t-39 -120t-125 -37t-123.5 37t-37.5 120z" />
<glyph unicode="&#x3c;" d="M143 467v246l893 354v-233l-630 -244l630 -244v-233z" />
<glyph unicode="=" d="M143 258v219h893v-219h-893zM143 702v220h893v-220h-893z" />
<glyph unicode="&#x3e;" d="M143 113v233l631 244l-631 244v233l893 -354v-246z" />
<glyph unicode="?" horiz-adv-x="925" d="M51 1139v207q165 55 346 55q247 0 357 -85t110 -276q0 -71 -20.5 -130t-53.5 -99t-72.5 -74.5t-79 -64.5t-72.5 -61t-53.5 -71.5t-20.5 -88.5v-17h-222v39q0 71 18 129t46.5 97.5t63.5 72.5t70 60t63.5 53t46.5 60t18 73q0 95 -53 136.5t-176 41.5q-142 0 -316 -57z M221 133q0 82 37.5 118t122.5 36q86 0 123 -36t37 -118q0 -83 -37 -119.5t-123 -36.5q-85 0 -122.5 36.5t-37.5 119.5z" />
<glyph unicode="@" horiz-adv-x="2029" d="M96 502q0 488 222 703.5t722 215.5q472 0 682.5 -191.5t210.5 -619.5q0 -292 -100.5 -425.5t-325.5 -133.5q-178 0 -254 111q-108 -111 -313 -111q-202 0 -292.5 106.5t-90.5 344.5t90.5 344t292.5 106q190 0 281 -98l16 74h205v-572q0 -57 25.5 -83.5t80.5 -26.5 q85 0 122.5 82t37.5 262q0 338 -159.5 487.5t-518.5 149.5q-376 0 -542 -169.5t-166 -555.5q0 -385 178.5 -555t582.5 -170q289 0 570 90v-201q-268 -84 -580 -84q-517 0 -747 216.5t-230 703.5zM813 502q0 -130 46 -188t149 -58q98 0 140 44t42 146v111q0 102 -42 146.5 t-140 44.5q-103 0 -149 -58t-46 -188z" />
<glyph unicode="A" horiz-adv-x="1359" d="M8 0q78 300 239.5 731.5t280.5 644.5h303q119 -213 281 -645t240 -731h-275q-29 105 -94 322h-606q-34 -107 -94 -322h-275zM442 522h476q-110 318 -238 613q-131 -296 -238 -613z" />
<glyph unicode="B" horiz-adv-x="1376" d="M70 1257l22 119h731q224 0 324 -89.5t100 -287.5q0 -211 -162 -284q211 -70 211 -330q0 -202 -104 -293.5t-336 -91.5h-682v1184q0 22 -5.5 30t-25.5 15zM436 199h367q121 0 173 47t52 155t-52 155.5t-173 47.5h-367v-405zM436 797h334q115 0 165 45t50 145t-50 145.5 t-165 45.5h-334v-381z" />
<glyph unicode="C" horiz-adv-x="1253" d="M80 688q0 378 162 545.5t526 167.5q134 0 251 -18t181 -40l-37 -206q-176 49 -352 49q-241 0 -348 -117t-107 -381t107 -381t348 -117q178 0 371 54v-217q-203 -52 -414 -52q-364 0 -526 167.5t-162 545.5z" />
<glyph unicode="D" horiz-adv-x="1507" d="M70 1257l22 119h610q384 0 554.5 -162t170.5 -526t-170.5 -526t-554.5 -162h-528v1184q0 22 -5.5 30t-25.5 15zM446 209h236q249 0 358 112.5t109 366.5t-109 366.5t-358 112.5h-236v-958z" />
<glyph unicode="E" horiz-adv-x="1255" d="M70 1257l22 119h1075v-209h-721v-366h574v-201h-574v-391h738v-209h-1010v1184q0 22 -5.5 30t-25.5 15z" />
<glyph unicode="F" horiz-adv-x="1222" d="M70 1257l22 119h1075v-209h-721v-422h574v-204h-574v-541h-272v1184q0 22 -5.5 30t-25.5 15z" />
<glyph unicode="G" horiz-adv-x="1406" d="M80 688q0 256 74.5 410.5t240.5 228.5t443 74q134 0 251 -18t181 -40l-37 -206q-197 55 -367 55q-136 0 -230.5 -24.5t-161 -83t-97.5 -155.5t-31 -241q0 -267 110.5 -385.5t360.5 -118.5q94 0 236 23v358h-320v191h572v-725q-259 -56 -521 -56q-373 0 -538.5 167.5 t-165.5 545.5z" />
<glyph unicode="H" horiz-adv-x="1572" d="M70 1257l22 119h336q11 0 14.5 -4t3.5 -16v-551h713v571h273v-1376h-273v596h-713v-596h-272v1184q0 22 -5.5 30t-25.5 15z" />
<glyph unicode="I" horiz-adv-x="587" d="M70 1257l22 119h336q11 0 14.5 -4t3.5 -16v-1356h-272v1184q0 22 -5.5 30t-25.5 15z" />
<glyph unicode="J" horiz-adv-x="935" d="M55 2v215q111 -27 213 -27q135 0 194.5 60.5t59.5 198.5v927h273v-938q0 -242 -116.5 -352.5t-369.5 -110.5q-119 0 -254 27z" />
<glyph unicode="K" horiz-adv-x="1318" d="M70 1257l22 119h336q11 0 14.5 -4t3.5 -16v-570l537 590h309l-569 -633l586 -743h-308l-444 575l-111 -118v-457h-272v1184q0 22 -5.5 30t-25.5 15z" />
<glyph unicode="L" horiz-adv-x="1114" d="M70 1257l22 119h336q11 0 14.5 -4t3.5 -16v-1147h629v-209h-901v1184q0 22 -5.5 30t-25.5 15z" />
<glyph unicode="M" horiz-adv-x="1736" d="M70 1257l22 119h299q31 0 41.5 -7.5t30.5 -39.5l422 -698l452 745h258v-1376h-252v967l-364 -596h-119q-53 0 -65 6.5t-37 46.5l-332 543v-967h-252v1184q0 22 -5.5 30t-25.5 15z" />
<glyph unicode="N" horiz-adv-x="1572" d="M70 1257l22 119h307q29 0 38.5 -6.5t35.5 -40.5l707 -956v1003h252v-1376h-265l-741 1004v-1004h-252v1184q0 22 -5.5 30t-25.5 15z" />
<glyph unicode="O" horiz-adv-x="1538" d="M80 688q0 378 161.5 545.5t526.5 167.5t527.5 -167.5t162.5 -545.5t-162.5 -545.5t-527.5 -167.5t-526.5 167.5t-161.5 545.5zM356 688q0 -264 97 -381t315 -117q219 0 315.5 117t96.5 381t-96.5 381t-315.5 117q-218 0 -315 -117t-97 -381z" />
<glyph unicode="P" horiz-adv-x="1343" d="M70 1257l22 119h672q272 0 394 -105t122 -339q0 -236 -122 -341.5t-394 -105.5h-318v-485h-272v1184q0 22 -5.5 30t-25.5 15zM446 696h297q143 0 206 55t63 181q0 124 -63 179.5t-206 55.5h-297v-471z" />
<glyph unicode="Q" horiz-adv-x="1538" d="M80 688q0 378 161.5 545.5t526.5 167.5t527.5 -167.5t162.5 -545.5q0 -251 -69.5 -407t-217.5 -230l183 -293h-267l-141 230q-89 -13 -178 -13q-365 0 -526.5 167.5t-161.5 545.5zM346 688q0 -270 99 -389t323 -119q37 0 55 2l-129 207h267l83 -135q146 114 146 434 q0 264 -99 381t-323 117t-323 -117t-99 -381z" />
<glyph unicode="R" horiz-adv-x="1376" d="M70 1257l22 119h688q265 0 382.5 -101t117.5 -327q0 -177 -72.5 -274t-226.5 -125l336 -549h-301l-305 518h-265v-518h-272v1184q0 22 -5.5 30t-25.5 15zM446 723h304q141 0 201.5 52t60.5 173q0 120 -60.5 171.5t-201.5 51.5h-304v-448z" />
<glyph unicode="S" horiz-adv-x="1206" d="M94 997q0 213 142.5 308.5t435.5 95.5q111 0 225 -18t195 -48l-39 -205q-186 62 -400 62q-153 0 -223 -44.5t-70 -146.5q0 -45 27 -78t72.5 -53t105 -35.5t125 -30.5t130.5 -33.5t124.5 -49.5t105 -72.5t72.5 -108.5t27 -153q0 -212 -135 -312t-414 -100q-251 0 -487 68 v215q233 -74 467 -74q158 0 230.5 47t72.5 152q0 49 -27 84t-72.5 56t-105 37t-125 30.5t-130.5 32.5t-124.5 47.5t-105 70t-72.5 106t-27 150.5z" />
<glyph unicode="T" horiz-adv-x="1243" d="M39 1167v209h1165v-209h-446v-1167h-273v1167h-446z" />
<glyph unicode="U" horiz-adv-x="1576" d="M74 1257l22 119h336q11 0 15 -4t4 -16v-797q0 -196 83.5 -282.5t272.5 -86.5q190 0 273 86t83 283v817h273v-837q0 -298 -148 -431t-481 -133t-481 133t-148 431v645q0 22 -5.5 30t-25.5 15z" />
<glyph unicode="V" horiz-adv-x="1359" d="M8 1376h275q177 -637 397 -1134q220 497 397 1134h275q-78 -299 -240 -731t-281 -645h-303q-119 213 -280.5 644.5t-239.5 731.5z" />
<glyph unicode="W" horiz-adv-x="2082" d="M29 1376h266q39 -179 135 -540q77 -294 176 -582h2q91 264 174 582q74 278 129 512h260q55 -234 129 -512q80 -306 175 -582h2q99 288 176 582q96 361 135 540h266q-62 -292 -185 -700.5t-231 -675.5h-311q-73 179 -141 383q-49 149 -88.5 313t-55.5 277h-2 q-38 -272 -143 -590q-68 -204 -141 -383h-312q-107 266 -230 674.5t-185 701.5z" />
<glyph unicode="X" horiz-adv-x="1361" d="M25 0l481 700l-465 676h305l334 -502l336 502h303l-465 -676l481 -700h-305l-350 526l-348 -526h-307z" />
<glyph unicode="Y" horiz-adv-x="1263" d="M-8 1376h307l332 -575l334 575h305l-502 -817v-559h-272v559z" />
<glyph unicode="Z" horiz-adv-x="1286" d="M74 0v188l784 979h-768v209h1108v-188l-786 -979h802v-209h-1140z" />
<glyph unicode="[" horiz-adv-x="673" d="M166 -262v1704h463v-199h-221v-1306h221v-199h-463z" />
<glyph unicode="\" horiz-adv-x="786" d="M-18 1442h231l592 -1704h-232z" />
<glyph unicode="]" horiz-adv-x="673" d="M45 -63h219v1306h-219v199h461v-1704h-461v199z" />
<glyph unicode="^" d="M59 483l398 893h266l397 -893h-254l-276 629l-277 -629h-254z" />
<glyph unicode="_" horiz-adv-x="983" d="M0 -162h983v-200h-983v200z" />
<glyph unicode="`" horiz-adv-x="491" d="M-125 1442h272l252 -303h-229z" />
<glyph unicode="a" horiz-adv-x="1112" d="M68 285q0 154 100 225.5t317 71.5q134 0 250 -35v94q0 101 -60 144.5t-200 43.5q-153 0 -315 -49v201q165 47 346 47q255 0 368 -95.5t113 -311.5v-426q0 -22 4.5 -30t24.5 -15l71 -29l-24 -121h-223q-30 0 -39 8t-15 35l-8 43q-102 -111 -319 -111q-203 0 -297 75 t-94 235zM324 287q0 -66 44.5 -96.5t141.5 -30.5q118 0 171.5 39t53.5 125v57q-97 33 -209 33q-105 0 -153.5 -30t-48.5 -97z" />
<glyph unicode="b" horiz-adv-x="1210" d="M31 1321l24 121h320q10 0 14 -4.5t4 -16.5v-491q104 98 301 98q235 0 340 -123.5t105 -402.5t-105 -403t-340 -124q-246 0 -346 144l-16 -119h-201v1247q0 22 -4.5 30t-24.5 15zM393 252q98 -72 234 -72q131 0 188 75t57 247t-57 246.5t-188 74.5q-125 0 -179.5 -58 t-54.5 -190v-323z" />
<glyph unicode="c" horiz-adv-x="993" d="M74 502q0 280 123 403t401 123q207 0 334 -45l-37 -197q-113 37 -254 37q-160 0 -230.5 -75.5t-70.5 -245.5t70.5 -246t230.5 -76q138 0 272 41v-207q-136 -39 -315 -39q-278 0 -401 124t-123 403z" />
<glyph unicode="d" horiz-adv-x="1216" d="M72 502q0 279 104 402.5t338 123.5q200 0 301 -98v512h262v-1247q0 -22 4.5 -30t24.5 -15l72 -29l-25 -121h-223q-30 0 -38.5 7.5t-14.5 35.5l-13 63q-108 -131 -350 -131q-234 0 -338 124t-104 403zM338 502q0 -172 57 -247t187 -75q135 0 233 72v323q0 132 -54.5 190 t-178.5 58q-131 0 -187.5 -74.5t-56.5 -246.5z" />
<glyph unicode="e" horiz-adv-x="1103" d="M70 502q0 279 117.5 402.5t383.5 123.5q246 0 354.5 -120t108.5 -390q0 -34 -4 -92h-704q8 -134 84.5 -193t242.5 -59q170 0 338 49v-200q-159 -48 -358 -48q-298 0 -430.5 124.5t-132.5 402.5zM326 594h456q-3 133 -52.5 191.5t-158.5 58.5q-122 0 -180 -59t-65 -191z " />
<glyph unicode="f" horiz-adv-x="747" d="M10 852l25 152h129v81q0 203 94 292t309 89q51 0 111.5 -7.5t89.5 -18.5l-39 -199q-81 21 -131 21q-91 0 -132.5 -39.5t-41.5 -126.5v-92h274v-199h-274v-805h-260v766q0 32 -3.5 39.5t-23.5 11.5z" />
<glyph unicode="g" horiz-adv-x="1196" d="M72 502q0 279 104 402.5t338 123.5q232 0 344 -121l21 97h198v-998q0 -248 -127.5 -352.5t-388.5 -104.5q-111 0 -196 13v200q83 -12 176 -12q145 0 210.5 53t65.5 166v107q-101 -101 -303 -101q-234 0 -338 124t-104 403zM338 502q0 -172 57 -247t187 -75 q124 0 178.5 58t54.5 190v324q-97 71 -233 71q-131 0 -187.5 -74.5t-56.5 -246.5z" />
<glyph unicode="h" horiz-adv-x="1218" d="M31 1321l24 121h320q10 0 14 -4.5t4 -16.5v-491q116 98 303 98q202 0 300 -97.5t98 -312.5v-423q0 -23 4.5 -30.5t23.5 -14.5l72 -29l-25 -121h-319q-11 0 -15 4t-4 16v588q0 113 -46.5 162t-153.5 49q-70 0 -138.5 -18.5t-99.5 -38.5v-762h-262v1247q0 22 -4.5 30 t-24.5 15z" />
<glyph unicode="i" horiz-adv-x="534" d="M47 883l25 121h319q19 0 19 -21v-983h-263v809q0 23 -4.5 30.5t-23.5 14.5zM123 1290q0 78 37 114t119 36q83 0 119 -35.5t36 -114.5q0 -80 -36 -115.5t-119 -35.5q-82 0 -119 36t-37 115z" />
<glyph unicode="j" horiz-adv-x="534" d="M-74 -244q20 -2 62 -2q95 0 127 44t32 145v866q0 23 -4.5 30.5t-23.5 14.5l-72 29l25 121h319q19 0 19 -21v-1046q0 -195 -86.5 -288t-292.5 -93q-56 0 -105 6v194zM123 1290q0 78 37 114t119 36q83 0 119 -35.5t36 -114.5q0 -80 -36 -115.5t-119 -35.5q-82 0 -119 36 t-37 115z" />
<glyph unicode="k" horiz-adv-x="1052" d="M31 1321l24 121h320q10 0 14 -4.5t4 -16.5v-807l338 390h299l-383 -431l410 -573h-301l-275 408l-88 -95v-313h-262v1247q0 22 -4.5 30t-24.5 15z" />
<glyph unicode="l" horiz-adv-x="534" d="M33 1321l24 121h320q10 0 14 -4.5t4 -16.5v-1226q0 -22 4.5 -30t24.5 -15l72 -29l-25 -121h-319q-11 0 -15 4t-4 16v1227q0 22 -4.5 30t-24.5 15z" />
<glyph unicode="m" horiz-adv-x="1847" d="M37 883l24 121h310q10 0 14 -4.5t4 -16.5v-59q126 104 299 104q108 0 186 -33.5t117 -93.5q137 127 342 127q203 0 296 -97.5t93 -293.5v-442q0 -22 4.5 -30t24.5 -15l72 -29l-25 -121h-319q-11 0 -15 4t-4 16v601q0 107 -40.5 152.5t-141.5 45.5q-129 0 -229 -65 q12 -42 12 -136v-618h-262v621q0 107 -41 152.5t-142 45.5q-67 0 -127 -18t-90 -39v-762h-262v809q0 23 -4.5 30.5t-23.5 14.5z" />
<glyph unicode="n" horiz-adv-x="1224" d="M37 883l24 121h310q10 0 14 -4.5t4 -16.5v-59q126 104 313 104q202 0 300 -97.5t98 -312.5v-423q0 -23 4.5 -30.5t23.5 -14.5l72 -29l-24 -121h-320q-11 0 -14.5 4t-3.5 16v588q0 113 -47 162t-154 49q-70 0 -138.5 -18.5t-99.5 -38.5v-762h-262v809q0 23 -4.5 30.5 t-23.5 14.5z" />
<glyph unicode="o" horiz-adv-x="1185" d="M68 502q0 280 123 403t401 123q279 0 402.5 -123.5t123.5 -402.5q0 -278 -124 -402.5t-402 -124.5t-401 124t-123 403zM334 502q0 -170 61 -246t197 -76q138 0 199 76t61 246t-61 245.5t-199 75.5q-137 0 -197.5 -75.5t-60.5 -245.5z" />
<glyph unicode="p" horiz-adv-x="1216" d="M37 883l24 121h310q10 0 14 -4.5t4 -16.5v-70q58 62 127.5 88.5t183.5 26.5q235 0 340 -123.5t105 -402.5t-105 -403t-340 -124q-196 0 -301 99v-500h-262v1235q0 23 -4.5 30.5t-23.5 14.5zM399 252q98 -72 234 -72q131 0 188.5 75t57.5 247q0 171 -57.5 246t-188.5 75 q-125 0 -179.5 -58t-54.5 -190v-323z" />
<glyph unicode="q" horiz-adv-x="1196" d="M72 502q0 279 104 402.5t338 123.5q229 0 344 -121l21 97h198v-1407l-262 -46v523q-102 -99 -301 -99q-234 0 -338 124t-104 403zM338 502q0 -172 57 -247t187 -75q135 0 233 72v323q0 132 -54.5 190t-178.5 58q-131 0 -187.5 -74.5t-56.5 -246.5z" />
<glyph unicode="r" horiz-adv-x="811" d="M37 883l24 121h310q10 0 14 -4.5t4 -16.5v-111q56 78 128 117t173 39q59 0 109 -8l-45 -211q-45 10 -99 10q-68 0 -137.5 -25.5t-118.5 -72.5v-721h-262v809q0 23 -4.5 30.5t-23.5 14.5z" />
<glyph unicode="s" horiz-adv-x="956" d="M74 717q0 159 116.5 235t313.5 76q201 0 356 -49l-39 -195q-152 47 -299 47q-100 0 -146 -26.5t-46 -81.5q0 -34 24.5 -56t64.5 -32t91 -20.5t104.5 -19.5t104.5 -31t91 -52.5t64.5 -86t24.5 -130.5q0 -164 -106 -242t-328 -78q-202 0 -373 50v202q181 -55 352 -55 q199 0 199 117q0 36 -24.5 59t-64.5 33.5t-91 21t-104.5 19t-104.5 29.5t-91 51t-64.5 85t-24.5 130z" />
<glyph unicode="t" horiz-adv-x="796" d="M6 852l25 152h129v288h260v-288h315v-199h-315v-455q0 -91 39.5 -130.5t128.5 -39.5q73 0 147 19v-205q-93 -19 -188 -19q-205 0 -296 85.5t-91 279.5v426q0 32 -3.5 39.5t-23.5 11.5z" />
<glyph unicode="u" horiz-adv-x="1202" d="M29 883l24 121h320q10 0 14 -4.5t4 -16.5v-571q0 -124 51 -178t168 -54t168 54t51 178v592h263v-613q0 -220 -113 -318t-369 -98q-255 0 -368 98t-113 318v418q0 22 -4.5 30t-24.5 15z" />
<glyph unicode="v" horiz-adv-x="1107" d="M33 1004h272q116 -417 248 -752q127 321 250 752h272q-51 -193 -171.5 -505.5t-215.5 -498.5h-268q-95 186 -215.5 498.5t-171.5 505.5z" />
<glyph unicode="w" horiz-adv-x="1716" d="M43 1004h258q38 -154 96 -357q61 -211 125 -393h2q71 202 125 393q33 115 86 324h246q53 -209 86 -324q54 -191 125 -393h2q64 182 125 393q58 203 96 357h258q-133 -521 -332 -1004h-282q-104 252 -199 625h-4q-95 -373 -199 -625h-282q-199 483 -332 1004z" />
<glyph unicode="x" horiz-adv-x="1089" d="M37 0l344 510l-332 494h285l211 -332l213 332h282l-331 -494l344 -510h-285l-223 350l-221 -350h-287z" />
<glyph unicode="y" horiz-adv-x="1114" d="M16 1004h285l274 -695l234 695h272l-417 -1127q-66 -178 -162.5 -253t-276.5 -75q-28 0 -86 5v200q36 -4 72 -4q89 0 135.5 38.5t85.5 141.5l23 60z" />
<glyph unicode="z" horiz-adv-x="1009" d="M78 0v178l522 627h-506v199h834v-177l-522 -628h538v-199h-866z" />
<glyph unicode="{" horiz-adv-x="673" d="M12 489v201h27q86 0 123 37t37 123v242q0 184 85.5 267t274.5 83h70v-199h-27q-86 0 -124 -38t-38 -124v-252q0 -193 -147 -239q147 -46 147 -240v-252q0 -87 37.5 -124t124.5 -37h27v-199h-70q-189 0 -274.5 83t-85.5 267v242q0 86 -37 122.5t-123 36.5h-27z" />
<glyph unicode="|" horiz-adv-x="491" d="M135 -459v1966h221v-1966h-221z" />
<glyph unicode="}" horiz-adv-x="673" d="M45 -63h27q86 0 122.5 37t36.5 124v252q0 194 150 240q-150 46 -150 239v252q0 88 -36.5 125t-122.5 37h-27v199h68q190 0 275 -82.5t85 -267.5v-242q0 -86 37.5 -123t124.5 -37h27v-201h-27q-87 0 -124.5 -36.5t-37.5 -122.5v-242q0 -185 -85 -267.5t-275 -82.5h-68v199 z" />
<glyph unicode="~" d="M57 395q2 209 79.5 305.5t244.5 96.5q62 0 114.5 -19.5t88 -47.5t66 -55.5t63 -47t65.5 -19.5q64 0 92.5 41.5t30.5 134.5h221q-2 -209 -79 -305t-244 -96q-62 0 -114.5 19.5t-88 47t-66.5 55t-63.5 47t-65.5 19.5q-64 0 -92 -41.5t-30 -134.5h-222z" />
<glyph unicode="&#xa1;" horiz-adv-x="542" d="M111 870q0 83 37 119.5t122 36.5q86 0 123 -36.5t37 -119.5q0 -82 -37 -117.5t-123 -35.5q-85 0 -122 35.5t-37 117.5zM139 -373l13 942h239l12 -942h-264z" />
<glyph unicode="&#xa2;" d="M172 688q0 236 88 359.5t281 154.5v348h241v-338q138 -10 232 -36v-207q-131 41 -275 41q-158 0 -228.5 -76t-70.5 -246t70.5 -245.5t228.5 -75.5q144 0 275 41v-207q-113 -31 -232 -37v-338h-241v346q-193 32 -281 156t-88 360z" />
<glyph unicode="&#xa3;" d="M133 0v205h176v395h-143v201h143v135q0 243 117 354t371 111q133 0 254 -31v-209q-112 31 -213 31q-136 0 -196 -62.5t-60 -203.5v-125h366v-201h-366v-395h485v-205h-934z" />
<glyph unicode="&#xa4;" d="M66 319l151 150q-43 79 -43 219t43 219l-151 150l155 155l150 -151q85 43 219 43t219 -43l149 151l156 -155l-151 -150q43 -85 43 -219t-43 -219l151 -150l-156 -155l-149 151q-79 -43 -219 -43t-219 43l-150 -151zM379 688q0 -112 49.5 -161.5t161.5 -49.5t161.5 49.5 t49.5 161.5t-49.5 161.5t-161.5 49.5t-161.5 -49.5t-49.5 -161.5z" />
<glyph unicode="&#xa5;" d="M-33 1376h297l326 -549l325 549h297l-413 -657h225v-160h-297v-158h297v-157h-297v-244h-274v244h-297v157h297v158h-297v160h225z" />
<glyph unicode="&#xa6;" horiz-adv-x="491" d="M135 -360v786h221v-786h-221zM135 623v786h221v-786h-221z" />
<glyph unicode="&#xa7;" horiz-adv-x="1155" d="M82 598q0 150 100 244q-67 77 -67 192q0 194 117.5 280.5t377.5 86.5q213 0 400 -51v-209q-186 55 -379 55q-131 0 -184.5 -37t-53.5 -125q0 -45 29.5 -76.5t77.5 -46.5t109.5 -30.5t125.5 -27.5t125.5 -39t109.5 -64t77.5 -103t29.5 -155q0 -148 -96 -244 q63 -72 63 -193q0 -198 -118 -286t-381 -88q-241 0 -445 63v209q207 -68 424 -68q133 0 187.5 39.5t54.5 130.5q0 42 -23.5 72.5t-63 48.5t-91 31.5t-108 26t-113 28t-108 42t-91 63t-63 95.5t-23.5 136zM348 604q0 -50 27 -83.5t75 -52t98.5 -31t114 -30.5t105.5 -40 q41 47 41 118q0 51 -26 85.5t-73 54.5t-96 32.5t-112 30.5t-105 39q-49 -41 -49 -123z" />
<glyph unicode="&#xa8;" horiz-adv-x="491" d="M-127 1290q0 76 36 111t116 35q78 0 113.5 -35t35.5 -111t-35.5 -110.5t-113.5 -34.5q-80 0 -116 34.5t-36 110.5zM317 1290q0 76 36 111t114 35q79 0 115 -34.5t36 -111.5q0 -76 -35.5 -110.5t-115.5 -34.5q-78 0 -114 34.5t-36 110.5z" />
<glyph unicode="&#xa9;" horiz-adv-x="1703" d="M78 688q0 391 183.5 572.5t590.5 181.5t590.5 -181.5t183.5 -572.5t-183.5 -572.5t-590.5 -181.5t-590.5 181.5t-183.5 572.5zM229 688q0 -326 152 -474t471 -148t471 148t152 474q0 330 -146.5 476.5t-476.5 146.5t-476.5 -146.5t-146.5 -476.5zM451 688 q0 234 102.5 338t335.5 104q128 0 262 -32v-160q-119 35 -229 35q-146 0 -208.5 -66.5t-62.5 -218.5t62.5 -218.5t208.5 -66.5q110 0 229 35v-159q-139 -33 -262 -33q-233 0 -335.5 104t-102.5 338z" />
<glyph unicode="&#xaa;" horiz-adv-x="790" d="M68 901q0 106 66.5 154.5t215.5 48.5q89 0 160 -23v49q0 65 -37 93t-123 28q-94 0 -217 -30v143q119 29 234 29q172 0 249.5 -65.5t77.5 -211.5v-405h-147l-15 53q-64 -70 -200 -70q-138 0 -201 50t-63 157zM78 438v152h635v-152h-635zM254 907q0 -42 26 -60t87 -18 q75 0 109 25t34 80v33q-63 18 -129 18q-69 0 -98 -18t-29 -60z" />
<glyph unicode="&#xab;" horiz-adv-x="1083" d="M35 502l284 407h242l-258 -407l258 -408h-242zM512 502l283 407h243l-260 -407l260 -408h-243z" />
<glyph unicode="&#xac;" d="M143 479v221h893v-557h-219v336h-674z" />
<glyph unicode="&#xad;" horiz-adv-x="688" d="M45 410v200h565v-200h-565z" />
<glyph unicode="&#xae;" horiz-adv-x="1703" d="M78 688q0 391 183.5 572.5t590.5 181.5t590.5 -181.5t183.5 -572.5t-183.5 -572.5t-590.5 -181.5t-590.5 181.5t-183.5 572.5zM229 688q0 -326 152 -474t471 -148t471 148t152 474q0 330 -146.5 476.5t-476.5 146.5t-476.5 -146.5t-146.5 -476.5zM516 262v852h391 q169 0 244.5 -64t75.5 -208q0 -210 -176 -250l198 -330h-209l-178 309h-160v-309h-186zM702 721h189q75 0 107 28.5t32 94.5q0 65 -32 93t-107 28h-189v-244z" />
<glyph unicode="&#xaf;" horiz-adv-x="491" d="M-84 1200v178h659v-178h-659z" />
<glyph unicode="&#xb0;" horiz-adv-x="739" d="M84 1116q0 138 73.5 210.5t211.5 72.5q139 0 212.5 -73t73.5 -210q0 -135 -73.5 -207.5t-212.5 -72.5q-138 0 -211.5 72.5t-73.5 207.5zM231 1116q0 -67 36 -102t102 -35q139 0 139 137q0 139 -139 139q-138 0 -138 -139z" />
<glyph unicode="&#xb1;" d="M143 0v221h893v-221h-893zM143 694v219h336v338h221v-338h336v-219h-336v-336h-221v336h-336z" />
<glyph unicode="&#xb2;" horiz-adv-x="720" d="M49 786v136l303 284q92 86 92 164q0 68 -33.5 97.5t-111.5 29.5q-110 0 -225 -37v160q122 35 256 35q164 0 237.5 -62.5t73.5 -199.5q0 -130 -125 -246l-213 -205h342v-156h-596z" />
<glyph unicode="&#xb3;" horiz-adv-x="720" d="M49 801v151q122 -32 215 -32q103 0 148 28t45 94q0 64 -47.5 91.5t-157.5 27.5h-43v113l182 217h-330v147h551v-127l-194 -227q120 -17 177.5 -77t57.5 -169q0 -141 -88 -204.5t-284 -63.5q-120 0 -232 31z" />
<glyph unicode="&#xb4;" horiz-adv-x="491" d="M92 1139l252 303h272l-294 -303h-230z" />
<glyph unicode="&#xb5;" horiz-adv-x="1198" d="M117 -426v1430h262v-594q0 -119 49.5 -172.5t159.5 -53.5q121 0 175 57t54 183v580h262v-1004h-198l-21 104q-91 -122 -278 -122q-141 0 -203 65v-473h-262z" />
<glyph unicode="&#xb6;" horiz-adv-x="1243" d="M63 932q0 444 488 444h551v-1671h-219v1473h-213v-693h-119q-488 0 -488 447z" />
<glyph unicode="&#xb7;" horiz-adv-x="509" d="M92 510q0 83 38 120.5t124 37.5t125 -37.5t39 -120.5t-39 -120.5t-125 -37.5t-124 37.5t-38 120.5z" />
<glyph unicode="&#xb8;" horiz-adv-x="491" d="M25 -319q77 -23 141 -23q63 0 91 17t28 55q0 40 -25.5 56.5t-87.5 16.5h-16v197h180v-90q153 -21 153 -184q0 -110 -68 -160.5t-218 -50.5q-95 0 -178 24v142z" />
<glyph unicode="&#xb9;" horiz-adv-x="581" d="M57 1380v156l246 102h152v-852h-191v680z" />
<glyph unicode="&#xba;" horiz-adv-x="845" d="M68 1044q0 185 83.5 267t272.5 82q188 0 272 -82.5t84 -266.5q0 -186 -84 -268t-272 -82q-189 0 -272.5 82t-83.5 268zM78 438v152h692v-152h-692zM264 1044q0 -106 37 -151t123 -45q85 0 122.5 45.5t37.5 150.5t-37 151t-123 46t-123 -46t-37 -151z" />
<glyph unicode="&#xbb;" horiz-adv-x="1083" d="M47 94l258 408l-258 407h242l282 -407l-282 -408h-242zM522 94l260 408l-260 407h244l283 -407l-283 -408h-244z" />
<glyph unicode="&#xbc;" horiz-adv-x="1769" d="M143 1118v156l246 102h152v-852h-191v680zM494 0l618 1376h164l-619 -1376h-163zM1036 172v137l398 543h198v-539h113v-141h-113v-172h-174v172h-422zM1214 313h244v336z" />
<glyph unicode="&#xbd;" horiz-adv-x="1769" d="M143 1118v156l246 102h152v-852h-191v680zM494 0l618 1376h164l-619 -1376h-163zM1081 0v135l303 285q93 87 93 164q0 68 -34 97.5t-112 29.5q-110 0 -225 -37v160q118 34 256 34q164 0 237.5 -62.5t73.5 -199.5q0 -130 -125 -246l-213 -204h342v-156h-596z" />
<glyph unicode="&#xbe;" horiz-adv-x="1769" d="M66 539v151q125 -33 215 -33q103 0 147.5 28.5t44.5 94.5q0 64 -47.5 91.5t-157.5 27.5h-43v113l183 217h-330v147h551v-127l-195 -227q120 -17 178 -77t58 -169q0 -141 -88.5 -204.5t-284.5 -63.5q-119 0 -231 31zM494 0l618 1376h164l-619 -1376h-163zM1036 172v137 l398 543h198v-539h113v-141h-113v-172h-174v172h-422zM1214 313h244v336z" />
<glyph unicode="&#xbf;" horiz-adv-x="860" d="M63 -35q0 71 20.5 129.5t53 98.5t72 74.5t79.5 64.5t72.5 61t53 71.5t20.5 88.5v16h221v-37q0 -71 -18 -129.5t-46.5 -98t-63.5 -72.5t-69.5 -60t-63 -53.5t-46.5 -60t-18 -72.5q0 -95 53 -137t176 -42q141 0 318 58v-207q-165 -55 -349 -55q-247 0 -356 85t-109 277z M385 870q0 83 37.5 119.5t122.5 36.5q86 0 123 -36.5t37 -119.5q0 -82 -37 -117.5t-123 -35.5q-85 0 -122.5 35.5t-37.5 117.5z" />
<glyph unicode="&#xc0;" horiz-adv-x="1359" d="M8 0q78 300 239.5 731.5t280.5 644.5h303q119 -213 281 -645t240 -731h-275q-29 105 -94 322h-606q-34 -107 -94 -322h-275zM309 1802h273l252 -303h-230zM442 522h476q-110 318 -238 613q-131 -296 -238 -613z" />
<glyph unicode="&#xc1;" horiz-adv-x="1359" d="M8 0q78 300 239.5 731.5t280.5 644.5h303q119 -213 281 -645t240 -731h-275q-29 105 -94 322h-606q-34 -107 -94 -322h-275zM442 522h476q-110 318 -238 613q-131 -296 -238 -613zM535 1501l251 303h273l-295 -303h-229z" />
<glyph unicode="&#xc2;" horiz-adv-x="1359" d="M8 0q78 300 239.5 731.5t280.5 644.5h303q119 -213 281 -645t240 -731h-275q-29 105 -94 322h-606q-34 -107 -94 -322h-275zM301 1499l252 303h254l252 -303h-223l-156 166l-156 -166h-223zM442 522h476q-110 318 -238 613q-131 -296 -238 -613z" />
<glyph unicode="&#xc3;" horiz-adv-x="1359" d="M8 0q78 300 239.5 731.5t280.5 644.5h303q119 -213 281 -645t240 -731h-275q-29 105 -94 322h-606q-34 -107 -94 -322h-275zM334 1509v29q0 128 49.5 185t163.5 57q49 0 94 -21t79 -42t58 -21q34 0 49 19.5t15 64.5v10h184v-27q0 -128 -49.5 -184.5t-163.5 -56.5 q-49 0 -94 21t-79 42t-58 21q-34 0 -49 -19.5t-15 -64.5v-13h-184zM442 522h476q-110 318 -238 613q-131 -296 -238 -613z" />
<glyph unicode="&#xc4;" horiz-adv-x="1359" d="M8 0q78 300 239.5 731.5t280.5 644.5h303q119 -213 281 -645t240 -731h-275q-29 105 -94 322h-606q-34 -107 -94 -322h-275zM307 1651q0 76 36 110.5t116 34.5q78 0 113.5 -34.5t35.5 -110.5t-35.5 -111t-113.5 -35q-80 0 -116 35t-36 111zM442 522h476 q-110 318 -238 613q-131 -296 -238 -613zM752 1651q0 76 35.5 110.5t113.5 34.5q80 0 116 -34.5t36 -110.5t-36 -111t-116 -35q-78 0 -113.5 35t-35.5 111z" />
<glyph unicode="&#xc5;" horiz-adv-x="1359" d="M8 0q78 300 239.5 731.5t280.5 644.5h303q119 -213 281 -645t240 -731h-275q-29 105 -94 322h-606q-34 -107 -94 -322h-275zM440 1651q0 109 57 159t183 50t183 -50t57 -159t-57 -159t-183 -50t-183 49.5t-57 159.5zM442 522h476q-110 318 -238 613q-131 -296 -238 -613z M582 1651q0 -53 23 -76t75 -23q51 0 74.5 23.5t23.5 75.5t-22.5 74t-75.5 22t-75.5 -22t-22.5 -74z" />
<glyph unicode="&#xc6;" horiz-adv-x="2097" d="M-14 0q204 377 461.5 770t431.5 606h1130v-209h-721v-366h574v-201h-574v-391h737v-209h-1009v322h-565q-107 -178 -185 -322h-280zM571 522h445v662q-173 -227 -445 -662z" />
<glyph unicode="&#xc7;" horiz-adv-x="1253" d="M80 688q0 378 162 545.5t526 167.5q215 0 414 -51v-217q-189 53 -371 53q-241 0 -348 -117t-107 -381t107 -381t348 -117q178 0 371 54v-217q-183 -45 -351 -50v-67q154 -21 154 -184q0 -110 -68 -160.5t-219 -50.5q-96 0 -178 24v142q77 -23 142 -23q63 0 90.5 17 t27.5 55q0 40 -25.5 56.5t-86.5 16.5h-17v177q-300 25 -435.5 193.5t-135.5 514.5z" />
<glyph unicode="&#xc8;" horiz-adv-x="1255" d="M70 1257l22 119h1075v-209h-721v-366h574v-201h-574v-391h738v-209h-1010v1184q0 22 -5.5 30t-25.5 15zM297 1802h272l252 -303h-229z" />
<glyph unicode="&#xc9;" horiz-adv-x="1255" d="M70 1257l22 119h1075v-209h-721v-366h574v-201h-574v-391h738v-209h-1010v1184q0 22 -5.5 30t-25.5 15zM514 1499l252 303h272l-295 -303h-229z" />
<glyph unicode="&#xca;" horiz-adv-x="1255" d="M70 1257l22 119h1075v-209h-721v-366h574v-201h-574v-391h738v-209h-1010v1184q0 22 -5.5 30t-25.5 15zM289 1499l252 303h254l252 -303h-224l-155 166l-156 -166h-223z" />
<glyph unicode="&#xcb;" horiz-adv-x="1255" d="M70 1257l22 119h1075v-209h-721v-366h574v-201h-574v-391h738v-209h-1010v1184q0 22 -5.5 30t-25.5 15zM295 1651q0 76 35.5 110.5t115.5 34.5q78 0 114 -34.5t36 -110.5t-36 -111t-114 -35q-79 0 -115 34.5t-36 111.5zM739 1651q0 76 36 110.5t114 34.5 q80 0 115.5 -34.5t35.5 -110.5q0 -77 -36 -111.5t-115 -34.5q-78 0 -114 35t-36 111z" />
<glyph unicode="&#xcc;" horiz-adv-x="587" d="M-59 1802h272l252 -303h-229zM70 1257l22 119h336q11 0 14.5 -4t3.5 -16v-1356h-272v1184q0 22 -5.5 30t-25.5 15z" />
<glyph unicode="&#xcd;" horiz-adv-x="587" d="M70 1257l22 119h336q11 0 14.5 -4t3.5 -16v-1356h-272v1184q0 22 -5.5 30t-25.5 15zM158 1499l252 303h272l-295 -303h-229z" />
<glyph unicode="&#xce;" horiz-adv-x="587" d="M-68 1499l252 303h254l252 -303h-223l-156 166l-155 -166h-224zM70 1257l22 119h336q11 0 14.5 -4t3.5 -16v-1356h-272v1184q0 22 -5.5 30t-25.5 15z" />
<glyph unicode="&#xcf;" horiz-adv-x="587" d="M-61 1651q0 76 35.5 110.5t115.5 34.5q78 0 114 -34.5t36 -110.5t-36 -111t-114 -35q-79 0 -115 34.5t-36 111.5zM70 1257l22 119h336q11 0 14.5 -4t3.5 -16v-1356h-272v1184q0 22 -5.5 30t-25.5 15zM383 1651q0 76 35.5 110.5t113.5 34.5q80 0 116 -34.5t36 -110.5 t-36 -111t-116 -35q-78 0 -113.5 35t-35.5 111z" />
<glyph unicode="&#xd0;" horiz-adv-x="1548" d="M82 606v189h133v389q0 22 -5.5 30t-25.5 15l-73 28l22 119h610q384 0 554.5 -162t170.5 -526t-170.5 -526t-554.5 -162h-528v606h-133zM487 209h236q249 0 358 112.5t109 366.5t-109 366.5t-358 112.5h-236v-372h334v-189h-334v-397z" />
<glyph unicode="&#xd1;" horiz-adv-x="1572" d="M70 1257l22 119h307q29 0 38.5 -6.5t35.5 -40.5l707 -956v1003h252v-1376h-265l-741 1004v-1004h-252v1184q0 22 -5.5 30t-25.5 15zM457 1509v29q0 128 49.5 185t163.5 57q49 0 94 -21t79 -42t58 -21q34 0 49 19.5t15 64.5v10h184v-27q0 -128 -49.5 -184.5t-163.5 -56.5 q-49 0 -94 21t-79 42t-58 21q-34 0 -49 -19.5t-15 -64.5v-13h-184z" />
<glyph unicode="&#xd2;" horiz-adv-x="1538" d="M80 688q0 378 161.5 545.5t526.5 167.5t527.5 -167.5t162.5 -545.5t-162.5 -545.5t-527.5 -167.5t-526.5 167.5t-161.5 545.5zM356 688q0 -264 97 -381t315 -117q219 0 315.5 117t96.5 381t-96.5 381t-315.5 117q-218 0 -315 -117t-97 -381zM397 1802h273l252 -303h-230z " />
<glyph unicode="&#xd3;" horiz-adv-x="1538" d="M80 688q0 378 161.5 545.5t526.5 167.5t527.5 -167.5t162.5 -545.5t-162.5 -545.5t-527.5 -167.5t-526.5 167.5t-161.5 545.5zM356 688q0 -264 97 -381t315 -117q219 0 315.5 117t96.5 381t-96.5 381t-315.5 117q-218 0 -315 -117t-97 -381zM614 1499l252 303h273 l-295 -303h-230z" />
<glyph unicode="&#xd4;" horiz-adv-x="1538" d="M80 688q0 378 161.5 545.5t526.5 167.5t527.5 -167.5t162.5 -545.5t-162.5 -545.5t-527.5 -167.5t-526.5 167.5t-161.5 545.5zM356 688q0 -264 97 -381t315 -117q219 0 315.5 117t96.5 381t-96.5 381t-315.5 117q-218 0 -315 -117t-97 -381zM389 1499l252 303h254 l252 -303h-223l-156 166l-156 -166h-223z" />
<glyph unicode="&#xd5;" horiz-adv-x="1538" d="M80 688q0 378 161.5 545.5t526.5 167.5t527.5 -167.5t162.5 -545.5t-162.5 -545.5t-527.5 -167.5t-526.5 167.5t-161.5 545.5zM356 688q0 -264 97 -381t315 -117q219 0 315.5 117t96.5 381t-96.5 381t-315.5 117q-218 0 -315 -117t-97 -381zM422 1509v29q0 128 49.5 185 t163.5 57q49 0 94 -21t79 -42t58 -21q34 0 49 19.5t15 64.5v10h184v-27q0 -128 -49.5 -184.5t-163.5 -56.5q-49 0 -94 21t-79 42t-58 21q-34 0 -49 -19.5t-15 -64.5v-13h-184z" />
<glyph unicode="&#xd6;" horiz-adv-x="1538" d="M80 688q0 378 161.5 545.5t526.5 167.5t527.5 -167.5t162.5 -545.5t-162.5 -545.5t-527.5 -167.5t-526.5 167.5t-161.5 545.5zM356 688q0 -264 97 -381t315 -117q219 0 315.5 117t96.5 381t-96.5 381t-315.5 117q-218 0 -315 -117t-97 -381zM395 1651q0 76 36 110.5 t116 34.5q78 0 113.5 -34.5t35.5 -110.5t-35.5 -111t-113.5 -35q-80 0 -116 35t-36 111zM840 1651q0 76 35.5 110.5t113.5 34.5q80 0 116 -34.5t36 -110.5t-36 -111t-116 -35q-78 0 -113.5 35t-35.5 111z" />
<glyph unicode="&#xd7;" d="M150 305l284 285l-284 284l155 156l285 -285l284 285l156 -156l-285 -284l285 -285l-156 -155l-284 284l-285 -284z" />
<glyph unicode="&#xd8;" horiz-adv-x="1538" d="M80 688q0 378 161.5 545.5t526.5 167.5q236 0 385 -70l82 111h197l-148 -197q174 -168 174 -557q0 -378 -162.5 -545.5t-527.5 -167.5q-234 0 -385 68l-82 -109h-197l148 197q-172 166 -172 557zM336 688q0 -230 72 -350l606 809q-94 49 -246 49q-229 0 -330.5 -119 t-101.5 -389zM522 229q94 -49 246 -49q230 0 332 119t102 389q0 226 -74 350z" />
<glyph unicode="&#xd9;" horiz-adv-x="1576" d="M74 1257l22 119h336q11 0 15 -4t4 -16v-797q0 -196 83.5 -282.5t272.5 -86.5q190 0 273 86t83 283v817h273v-837q0 -298 -148 -431t-481 -133t-481 133t-148 431v645q0 22 -5.5 30t-25.5 15zM436 1802h273l252 -303h-230z" />
<glyph unicode="&#xda;" horiz-adv-x="1576" d="M74 1257l22 119h336q11 0 15 -4t4 -16v-797q0 -196 83.5 -282.5t272.5 -86.5q190 0 273 86t83 283v817h273v-837q0 -298 -148 -431t-481 -133t-481 133t-148 431v645q0 22 -5.5 30t-25.5 15zM653 1499l252 303h273l-295 -303h-230z" />
<glyph unicode="&#xdb;" horiz-adv-x="1576" d="M74 1257l22 119h336q11 0 15 -4t4 -16v-797q0 -196 83.5 -282.5t272.5 -86.5q190 0 273 86t83 283v817h273v-837q0 -298 -148 -431t-481 -133t-481 133t-148 431v645q0 22 -5.5 30t-25.5 15zM428 1499l252 303h254l252 -303h-223l-156 166l-156 -166h-223z" />
<glyph unicode="&#xdc;" horiz-adv-x="1576" d="M74 1257l22 119h336q11 0 15 -4t4 -16v-797q0 -196 83.5 -282.5t272.5 -86.5q190 0 273 86t83 283v817h273v-837q0 -298 -148 -431t-481 -133t-481 133t-148 431v645q0 22 -5.5 30t-25.5 15zM434 1651q0 76 36 110.5t116 34.5q78 0 113.5 -34.5t35.5 -110.5t-35.5 -111 t-113.5 -35q-80 0 -116 35t-36 111zM879 1651q0 76 35.5 110.5t113.5 34.5q80 0 116 -34.5t36 -110.5t-36 -111t-116 -35q-78 0 -113.5 35t-35.5 111z" />
<glyph unicode="&#xdd;" horiz-adv-x="1263" d="M-8 1376h307l332 -575l334 575h305l-502 -817v-559h-272v559zM477 1499l252 303h272l-294 -303h-230z" />
<glyph unicode="&#xde;" horiz-adv-x="1343" d="M70 1257l22 119h326q11 0 14.5 -4t3.5 -16v-211h328q272 0 394 -105t122 -340q0 -234 -122 -339t-394 -105h-328v-256h-262v1184q0 22 -5.5 30t-25.5 15zM436 465h307q143 0 206 54.5t63 180.5q0 125 -63.5 180.5t-205.5 55.5h-307v-471z" />
<glyph unicode="&#xdf;" horiz-adv-x="1198" d="M117 0v1006q0 243 118.5 351.5t382.5 108.5q241 0 349 -91.5t108 -297.5q0 -123 -44.5 -198t-133.5 -113q118 -36 181 -130t63 -239q0 -223 -110.5 -322.5t-356.5 -99.5q-94 0 -182 15v205q70 -15 139 -15q136 0 195 56t59 182q0 125 -63.5 180t-207.5 55h-65v201h49 q120 0 172.5 47.5t52.5 155.5q0 109 -50 157t-165 48q-127 0 -183 -65t-56 -212v-985h-252z" />
<glyph unicode="&#xe0;" horiz-adv-x="1112" d="M68 285q0 154 100 225.5t317 71.5q134 0 250 -35v94q0 101 -60 144.5t-200 43.5q-153 0 -315 -49v201q165 47 346 47q255 0 368 -95.5t113 -311.5v-426q0 -22 4.5 -30t24.5 -15l71 -29l-24 -121h-223q-30 0 -39 8t-15 35l-8 43q-102 -111 -319 -111q-203 0 -297 75 t-94 235zM178 1442h273l251 -303h-229zM324 287q0 -66 44.5 -96.5t141.5 -30.5q118 0 171.5 39t53.5 125v57q-97 33 -209 33q-105 0 -153.5 -30t-48.5 -97z" />
<glyph unicode="&#xe1;" horiz-adv-x="1112" d="M68 285q0 154 100 225.5t317 71.5q134 0 250 -35v94q0 101 -60 144.5t-200 43.5q-153 0 -315 -49v201q165 47 346 47q255 0 368 -95.5t113 -311.5v-426q0 -22 4.5 -30t24.5 -15l71 -29l-24 -121h-223q-30 0 -39 8t-15 35l-8 43q-102 -111 -319 -111q-203 0 -297 75 t-94 235zM324 287q0 -66 44.5 -96.5t141.5 -30.5q118 0 171.5 39t53.5 125v57q-97 33 -209 33q-105 0 -153.5 -30t-48.5 -97zM395 1139l252 303h273l-295 -303h-230z" />
<glyph unicode="&#xe2;" horiz-adv-x="1112" d="M68 285q0 154 100 225.5t317 71.5q134 0 250 -35v94q0 101 -60 144.5t-200 43.5q-153 0 -315 -49v201q165 47 346 47q255 0 368 -95.5t113 -311.5v-426q0 -22 4.5 -30t24.5 -15l71 -29l-24 -121h-223q-30 0 -39 8t-15 35l-8 43q-102 -111 -319 -111q-203 0 -297 75 t-94 235zM170 1139l252 303h254l252 -303h-223l-156 166l-156 -166h-223zM324 287q0 -66 44.5 -96.5t141.5 -30.5q118 0 171.5 39t53.5 125v57q-97 33 -209 33q-105 0 -153.5 -30t-48.5 -97z" />
<glyph unicode="&#xe3;" horiz-adv-x="1112" d="M68 285q0 154 100 225.5t317 71.5q134 0 250 -35v94q0 101 -60 144.5t-200 43.5q-153 0 -315 -49v201q165 47 346 47q255 0 368 -95.5t113 -311.5v-426q0 -22 4.5 -30t24.5 -15l71 -29l-24 -121h-223q-30 0 -39 8t-15 35l-8 43q-102 -111 -319 -111q-203 0 -297 75 t-94 235zM203 1149v29q0 128 49.5 184.5t163.5 56.5q49 0 94 -21t79 -42t58 -21q34 0 49 19.5t15 64.5v11h184v-27q0 -128 -49.5 -185t-163.5 -57q-49 0 -94 21t-79 42t-58 21q-34 0 -49 -19.5t-15 -64.5v-12h-184zM324 287q0 -66 44.5 -96.5t141.5 -30.5q118 0 171.5 39 t53.5 125v57q-97 33 -209 33q-105 0 -153.5 -30t-48.5 -97z" />
<glyph unicode="&#xe4;" horiz-adv-x="1112" d="M68 285q0 154 100 225.5t317 71.5q134 0 250 -35v94q0 101 -60 144.5t-200 43.5q-153 0 -315 -49v201q165 47 346 47q255 0 368 -95.5t113 -311.5v-426q0 -22 4.5 -30t24.5 -15l71 -29l-24 -121h-223q-30 0 -39 8t-15 35l-8 43q-102 -111 -319 -111q-203 0 -297 75 t-94 235zM176 1290q0 76 36 111t116 35q78 0 113.5 -35t35.5 -111t-35.5 -110.5t-113.5 -34.5q-80 0 -116 34.5t-36 110.5zM324 287q0 -66 44.5 -96.5t141.5 -30.5q118 0 171.5 39t53.5 125v57q-97 33 -209 33q-105 0 -153.5 -30t-48.5 -97zM621 1290q0 76 35.5 111 t113.5 35q80 0 116 -35t36 -111t-36 -110.5t-116 -34.5q-78 0 -113.5 34.5t-35.5 110.5z" />
<glyph unicode="&#xe5;" horiz-adv-x="1112" d="M68 285q0 154 100 225.5t317 71.5q134 0 250 -35v94q0 101 -60 144.5t-200 43.5q-153 0 -315 -49v201q165 47 346 47q255 0 368 -95.5t113 -311.5v-426q0 -22 4.5 -30t24.5 -15l71 -29l-24 -121h-223q-30 0 -39 8t-15 35l-8 43q-102 -111 -319 -111q-203 0 -297 75 t-94 235zM309 1290q0 109 57 159t183 50t182.5 -50t56.5 -159t-56.5 -159t-182.5 -50t-183 49.5t-57 159.5zM324 287q0 -66 44.5 -96.5t141.5 -30.5q118 0 171.5 39t53.5 125v57q-97 33 -209 33q-105 0 -153.5 -30t-48.5 -97zM451 1290q0 -52 22.5 -75t75.5 -23 q51 0 74.5 23t23.5 75t-22.5 74t-75.5 22t-75.5 -22t-22.5 -74z" />
<glyph unicode="&#xe6;" horiz-adv-x="1759" d="M68 285q0 154 100 225.5t317 71.5q134 0 250 -35v94q0 101 -60 144.5t-200 43.5q-153 0 -315 -49v201q165 47 346 47q274 0 362 -141q110 141 359 141q246 0 354.5 -120t108.5 -390q0 -63 -4 -92h-703q7 -133 84.5 -192.5t243.5 -59.5q168 0 336 49v-200 q-154 -48 -357 -48q-313 0 -448 150q-107 -150 -381 -150q-204 0 -298.5 75t-94.5 235zM324 287q0 -66 46 -96.5t144 -30.5q117 0 169 39t52 125v57q-97 33 -209 33q-105 0 -153.5 -30t-48.5 -97zM983 594h457q-3 133 -53.5 191.5t-159.5 58.5q-122 0 -180 -59t-64 -191z " />
<glyph unicode="&#xe7;" horiz-adv-x="993" d="M74 502q0 280 123 403t401 123q179 0 315 -39v-207q-134 41 -272 41q-160 0 -230.5 -75.5t-70.5 -245.5t70.5 -246t230.5 -76q138 0 272 41v-207q-114 -33 -262 -39v-65q154 -21 154 -184q0 -110 -68 -160.5t-219 -50.5q-96 0 -178 24v142q77 -23 141 -23q63 0 91 17 t28 55q0 40 -25.5 56.5t-87.5 16.5h-16v181q-210 25 -303.5 148.5t-93.5 369.5z" />
<glyph unicode="&#xe8;" horiz-adv-x="1103" d="M70 502q0 279 117.5 402.5t383.5 123.5q246 0 354.5 -120t108.5 -390q0 -34 -4 -92h-704q8 -134 84.5 -193t242.5 -59q170 0 338 49v-200q-159 -48 -358 -48q-298 0 -430.5 124.5t-132.5 402.5zM197 1442h272l252 -303h-229zM326 594h456q-3 133 -52.5 191.5t-158.5 58.5 q-122 0 -180 -59t-65 -191z" />
<glyph unicode="&#xe9;" horiz-adv-x="1103" d="M70 502q0 279 117.5 402.5t383.5 123.5q246 0 354.5 -120t108.5 -390q0 -34 -4 -92h-704q8 -134 84.5 -193t242.5 -59q170 0 338 49v-200q-159 -48 -358 -48q-298 0 -430.5 124.5t-132.5 402.5zM326 594h456q-3 133 -52.5 191.5t-158.5 58.5q-122 0 -180 -59t-65 -191z M414 1139l252 303h272l-295 -303h-229z" />
<glyph unicode="&#xea;" horiz-adv-x="1103" d="M70 502q0 279 117.5 402.5t383.5 123.5q246 0 354.5 -120t108.5 -390q0 -34 -4 -92h-704q8 -134 84.5 -193t242.5 -59q170 0 338 49v-200q-159 -48 -358 -48q-298 0 -430.5 124.5t-132.5 402.5zM188 1139l252 303h254l252 -303h-223l-156 166l-155 -166h-224zM326 594 h456q-3 133 -52.5 191.5t-158.5 58.5q-122 0 -180 -59t-65 -191z" />
<glyph unicode="&#xeb;" horiz-adv-x="1103" d="M70 502q0 279 117.5 402.5t383.5 123.5q246 0 354.5 -120t108.5 -390q0 -34 -4 -92h-704q8 -134 84.5 -193t242.5 -59q170 0 338 49v-200q-159 -48 -358 -48q-298 0 -430.5 124.5t-132.5 402.5zM195 1290q0 77 36 111.5t115 34.5q78 0 114 -35t36 -111t-36 -110.5 t-114 -34.5q-80 0 -115.5 34.5t-35.5 110.5zM326 594h456q-3 133 -52.5 191.5t-158.5 58.5q-122 0 -180 -59t-65 -191zM639 1290q0 76 35.5 111t113.5 35q80 0 116 -35t36 -111t-36 -110.5t-116 -34.5q-78 0 -113.5 34.5t-35.5 110.5z" />
<glyph unicode="&#xec;" horiz-adv-x="534" d="M-92 1442h272l252 -303h-229zM47 883l25 121h319q19 0 19 -21v-983h-263v809q0 23 -4.5 30.5t-23.5 14.5z" />
<glyph unicode="&#xed;" horiz-adv-x="534" d="M47 883l25 121h319q19 0 19 -21v-983h-263v809q0 23 -4.5 30.5t-23.5 14.5zM125 1139l252 303h272l-295 -303h-229z" />
<glyph unicode="&#xee;" horiz-adv-x="534" d="M-100 1139l252 303h254l251 -303h-223l-155 166l-156 -166h-223zM47 883l25 121h319q19 0 19 -21v-983h-263v809q0 23 -4.5 30.5t-23.5 14.5z" />
<glyph unicode="&#xef;" horiz-adv-x="534" d="M-94 1290q0 77 36 111.5t115 34.5q78 0 114 -35t36 -111t-36 -110.5t-114 -34.5q-80 0 -115.5 34.5t-35.5 110.5zM47 883l25 121h319q19 0 19 -21v-983h-263v809q0 23 -4.5 30.5t-23.5 14.5zM350 1290q0 76 36 111t114 35q79 0 115 -34.5t36 -111.5q0 -76 -35.5 -110.5 t-115.5 -34.5q-78 0 -114 34.5t-36 110.5z" />
<glyph unicode="&#xf0;" horiz-adv-x="1198" d="M74 481q0 267 108.5 386.5t354.5 119.5q180 0 278 -94q-35 191 -172 283l-74 -93h-221l129 164q-89 23 -223 29v190q216 -3 360 -47l62 76h221l-117 -147q167 -98 247.5 -288t80.5 -485q0 -313 -125.5 -456.5t-400.5 -143.5q-269 0 -388.5 119t-119.5 387zM340 481 q0 -165 57 -238t185 -73q138 0 199 75t61 247q0 156 -59 228.5t-189 72.5q-134 0 -194 -73.5t-60 -238.5z" />
<glyph unicode="&#xf1;" horiz-adv-x="1224" d="M37 883l24 121h310q10 0 14 -4.5t4 -16.5v-59q126 104 313 104q202 0 300 -97.5t98 -312.5v-423q0 -23 4.5 -30.5t23.5 -14.5l72 -29l-24 -121h-320q-11 0 -14.5 4t-3.5 16v588q0 113 -47 162t-154 49q-70 0 -138.5 -18.5t-99.5 -38.5v-762h-262v809q0 23 -4.5 30.5 t-23.5 14.5zM270 1149v29q0 128 49.5 184.5t163.5 56.5q49 0 94 -21t79.5 -42t58.5 -21q34 0 48.5 19t14.5 65v11h185v-27q0 -128 -49.5 -185t-163.5 -57q-49 0 -94 21t-79.5 42t-58.5 21q-34 0 -48.5 -19t-14.5 -65v-12h-185z" />
<glyph unicode="&#xf2;" horiz-adv-x="1185" d="M68 502q0 280 123 403t401 123q279 0 402.5 -123.5t123.5 -402.5q0 -278 -124 -402.5t-402 -124.5t-401 124t-123 403zM219 1442h273l251 -303h-229zM334 502q0 -170 61 -246t197 -76q138 0 199 76t61 246t-61 245.5t-199 75.5q-137 0 -197.5 -75.5t-60.5 -245.5z" />
<glyph unicode="&#xf3;" horiz-adv-x="1185" d="M68 502q0 280 123 403t401 123q279 0 402.5 -123.5t123.5 -402.5q0 -278 -124 -402.5t-402 -124.5t-401 124t-123 403zM334 502q0 -170 61 -246t197 -76q138 0 199 76t61 246t-61 245.5t-199 75.5q-137 0 -197.5 -75.5t-60.5 -245.5zM436 1139l252 303h273l-295 -303 h-230z" />
<glyph unicode="&#xf4;" horiz-adv-x="1185" d="M68 502q0 280 123 403t401 123q279 0 402.5 -123.5t123.5 -402.5q0 -278 -124 -402.5t-402 -124.5t-401 124t-123 403zM211 1139l252 303h254l252 -303h-224l-155 166l-156 -166h-223zM334 502q0 -170 61 -246t197 -76q138 0 199 76t61 246t-61 245.5t-199 75.5 q-137 0 -197.5 -75.5t-60.5 -245.5z" />
<glyph unicode="&#xf5;" horiz-adv-x="1185" d="M68 502q0 280 123 403t401 123q279 0 402.5 -123.5t123.5 -402.5q0 -278 -124 -402.5t-402 -124.5t-401 124t-123 403zM244 1149v29q0 128 49.5 184.5t163.5 56.5q49 0 94 -21t79 -42t58 -21q34 0 49 19.5t15 64.5v11h184v-27q0 -128 -49.5 -185t-163.5 -57q-49 0 -94 21 t-79 42t-58 21q-34 0 -49 -19.5t-15 -64.5v-12h-184zM334 502q0 -170 61 -246t197 -76q138 0 199 76t61 246t-61 245.5t-199 75.5q-137 0 -197.5 -75.5t-60.5 -245.5z" />
<glyph unicode="&#xf6;" horiz-adv-x="1185" d="M68 502q0 280 123 403t401 123q279 0 402.5 -123.5t123.5 -402.5q0 -278 -124 -402.5t-402 -124.5t-401 124t-123 403zM217 1290q0 76 36 111t116 35q78 0 113.5 -35t35.5 -111t-35.5 -110.5t-113.5 -34.5q-80 0 -116 34.5t-36 110.5zM334 502q0 -170 61 -246t197 -76 q138 0 199 76t61 246t-61 245.5t-199 75.5q-137 0 -197.5 -75.5t-60.5 -245.5zM662 1290q0 76 35.5 111t113.5 35q80 0 116 -35t36 -111t-36 -110.5t-116 -34.5q-78 0 -113.5 34.5t-35.5 110.5z" />
<glyph unicode="&#xf7;" d="M143 489v201h893v-201h-893zM451 229q0 71 33 103.5t106 32.5t106 -32.5t33 -103.5t-33 -103t-106 -32t-106 32t-33 103zM451 950q0 71 33 103t106 32t106 -32t33 -103t-33 -103t-106 -32t-106 32t-33 103z" />
<glyph unicode="&#xf8;" horiz-adv-x="1185" d="M66 502q0 280 123 403t401 123q166 0 276 -43l64 84h172l-119 -158q133 -121 133 -409q0 -278 -124 -402.5t-402 -124.5q-167 0 -277 43l-63 -84h-170l117 156q-131 125 -131 412zM301 502q0 -142 39 -219l399 532q-66 29 -149 29q-154 0 -221.5 -80t-67.5 -262zM438 186 q59 -26 152 -26q154 0 222.5 80.5t68.5 261.5q0 144 -41 219z" />
<glyph unicode="&#xf9;" horiz-adv-x="1202" d="M29 883l24 121h320q10 0 14 -4.5t4 -16.5v-571q0 -124 51 -178t168 -54t168 54t51 178v592h263v-613q0 -220 -113 -318t-369 -98q-255 0 -368 98t-113 318v418q0 22 -4.5 30t-24.5 15zM240 1442h272l252 -303h-229z" />
<glyph unicode="&#xfa;" horiz-adv-x="1202" d="M29 883l24 121h320q10 0 14 -4.5t4 -16.5v-571q0 -124 51 -178t168 -54t168 54t51 178v592h263v-613q0 -220 -113 -318t-369 -98q-255 0 -368 98t-113 318v418q0 22 -4.5 30t-24.5 15zM457 1139l252 303h272l-295 -303h-229z" />
<glyph unicode="&#xfb;" horiz-adv-x="1202" d="M29 883l24 121h320q10 0 14 -4.5t4 -16.5v-571q0 -124 51 -178t168 -54t168 54t51 178v592h263v-613q0 -220 -113 -318t-369 -98q-255 0 -368 98t-113 318v418q0 22 -4.5 30t-24.5 15zM231 1139l252 303h254l252 -303h-223l-156 166l-155 -166h-224z" />
<glyph unicode="&#xfc;" horiz-adv-x="1202" d="M29 883l24 121h320q10 0 14 -4.5t4 -16.5v-571q0 -124 51 -178t168 -54t168 54t51 178v592h263v-613q0 -220 -113 -318t-369 -98q-255 0 -368 98t-113 318v418q0 22 -4.5 30t-24.5 15zM238 1290q0 77 36 111.5t115 34.5q78 0 114 -35t36 -111t-36 -110.5t-114 -34.5 q-80 0 -115.5 34.5t-35.5 110.5zM682 1290q0 76 35.5 111t113.5 35q80 0 116 -35t36 -111t-36 -110.5t-116 -34.5q-78 0 -113.5 34.5t-35.5 110.5z" />
<glyph unicode="&#xfd;" horiz-adv-x="1114" d="M16 1004h285l274 -695l234 695h272l-417 -1127q-66 -178 -162.5 -253t-276.5 -75q-28 0 -86 5v200q36 -4 72 -4q89 0 135.5 38.5t85.5 141.5l23 60zM403 1139l252 303h273l-295 -303h-230z" />
<glyph unicode="&#xfe;" horiz-adv-x="1212" d="M33 1321l24 121h320q10 0 14 -4.5t4 -16.5v-491q104 98 301 98q235 0 340 -123.5t105 -402.5t-105 -403t-340 -124q-196 0 -301 99v-500h-262v1673q0 22 -4.5 30t-24.5 15zM395 252q98 -72 234 -72q131 0 188 75t57 247t-57 246.5t-188 74.5q-125 0 -179.5 -58 t-54.5 -190v-323z" />
<glyph unicode="&#xff;" horiz-adv-x="1114" d="M16 1004h285l274 -695l234 695h272l-417 -1127q-66 -178 -162.5 -253t-276.5 -75q-28 0 -86 5v200q36 -4 72 -4q89 0 135.5 38.5t85.5 141.5l23 60zM184 1290q0 76 36 111t116 35q78 0 113.5 -35t35.5 -111t-35.5 -110.5t-113.5 -34.5q-80 0 -116 34.5t-36 110.5z M629 1290q0 76 35.5 111t113.5 35q80 0 116 -35t36 -111t-36 -110.5t-116 -34.5q-78 0 -113.5 34.5t-35.5 110.5z" />
<glyph unicode="&#x152;" horiz-adv-x="2101" d="M80 688q0 364 170 526t555 162h1208v-205h-704v-370h557v-201h-557v-395h721v-205h-1225q-385 0 -555 162t-170 526zM356 688q0 -254 110 -366.5t359 -112.5h211v958h-211q-249 0 -359 -112.5t-110 -366.5z" />
<glyph unicode="&#x153;" horiz-adv-x="1890" d="M68 502q0 280 123 403t401 123q287 0 393 -166q98 166 373 166q246 0 354.5 -120t108.5 -390q0 -63 -4 -92h-703q8 -134 84.5 -193t243.5 -59q168 0 336 49v-200q-154 -48 -357 -48q-319 0 -432 172q-96 -172 -397 -172q-278 0 -401 124t-123 403zM334 502 q0 -170 61 -246t197 -76q138 0 199 76t61 246t-61 245.5t-199 75.5q-137 0 -197.5 -75.5t-60.5 -245.5zM1114 594h457q-3 133 -53.5 191.5t-159.5 58.5q-122 0 -181 -60t-63 -190z" />
<glyph unicode="&#x178;" horiz-adv-x="1263" d="M-8 1376h307l332 -575l334 575h305l-502 -817v-559h-272v559zM258 1663q0 76 36 110.5t116 34.5q78 0 113.5 -34.5t35.5 -110.5t-35.5 -110.5t-113.5 -34.5q-80 0 -116 34.5t-36 110.5zM702 1663q0 76 36 110.5t114 34.5q80 0 116 -34.5t36 -110.5t-36 -110.5t-116 -34.5 q-78 0 -114 34.5t-36 110.5z" />
<glyph unicode="&#x2c6;" horiz-adv-x="491" d="M-133 1139l252 303h254l252 -303h-224l-155 166l-156 -166h-223z" />
<glyph unicode="&#x2dc;" horiz-adv-x="491" d="M-100 1149v29q0 128 49.5 184.5t163.5 56.5q49 0 94 -21t79 -42t58 -21q34 0 49 19.5t15 64.5v11h184v-27q0 -128 -49.5 -185t-163.5 -57q-49 0 -94 21t-79.5 42t-58.5 21q-34 0 -48.5 -19t-14.5 -65v-12h-184z" />
<glyph unicode="&#x2000;" horiz-adv-x="930" />
<glyph unicode="&#x2001;" horiz-adv-x="1860" />
<glyph unicode="&#x2002;" horiz-adv-x="930" />
<glyph unicode="&#x2003;" horiz-adv-x="1860" />
<glyph unicode="&#x2004;" horiz-adv-x="620" />
<glyph unicode="&#x2005;" horiz-adv-x="465" />
<glyph unicode="&#x2006;" horiz-adv-x="310" />
<glyph unicode="&#x2007;" horiz-adv-x="310" />
<glyph unicode="&#x2008;" horiz-adv-x="232" />
<glyph unicode="&#x2009;" horiz-adv-x="372" />
<glyph unicode="&#x200a;" horiz-adv-x="103" />
<glyph unicode="&#x2010;" horiz-adv-x="655" d="M45 410v200h565v-200h-565z" />
<glyph unicode="&#x2011;" horiz-adv-x="655" d="M45 410v200h565v-200h-565z" />
<glyph unicode="&#x2012;" horiz-adv-x="655" d="M45 410v200h565v-200h-565z" />
<glyph unicode="&#x2013;" d="M45 410v200h1090v-200h-1090z" />
<glyph unicode="&#x2014;" horiz-adv-x="1769" d="M45 410v200h1679v-200h-1679z" />
<glyph unicode="&#x2018;" horiz-adv-x="509" d="M57 858l174 518h209l-114 -518h-269z" />
<glyph unicode="&#x2019;" horiz-adv-x="509" d="M68 858l116 518h267l-172 -518h-211z" />
<glyph unicode="&#x201a;" horiz-adv-x="509" d="M35 -295l117 518h266l-172 -518h-211z" />
<glyph unicode="&#x201c;" horiz-adv-x="952" d="M57 858l174 518h209l-114 -518h-269zM502 858l174 518h209l-115 -518h-268z" />
<glyph unicode="&#x201d;" horiz-adv-x="952" d="M68 858l116 518h267l-172 -518h-211zM512 858l117 518h266l-172 -518h-211z" />
<glyph unicode="&#x201e;" horiz-adv-x="952" d="M35 -295l117 518h266l-172 -518h-211zM479 -295l117 518h266l-172 -518h-211z" />
<glyph unicode="&#x2022;" horiz-adv-x="983" d="M197 590q0 123 86 209t209 86t208.5 -86t85.5 -209t-85.5 -209t-208.5 -86t-209 86t-86 209z" />
<glyph unicode="&#x2026;" horiz-adv-x="1769" d="M133 135q0 83 38 120.5t124 37.5t125 -37.5t39 -120.5t-39 -120.5t-125 -37.5t-124 37.5t-38 120.5zM723 135q0 83 38 120.5t124 37.5t125 -37.5t39 -120.5t-39 -120.5t-125 -37.5t-124 37.5t-38 120.5zM1313 135q0 83 38 120.5t124 37.5t124.5 -37.5t38.5 -120.5 t-38.5 -120.5t-124.5 -37.5t-124 37.5t-38 120.5z" />
<glyph unicode="&#x202f;" horiz-adv-x="372" />
<glyph unicode="&#x2039;" horiz-adv-x="608" d="M35 502l284 407h242l-258 -407l258 -408h-242z" />
<glyph unicode="&#x203a;" horiz-adv-x="608" d="M47 94l258 408l-258 407h242l282 -407l-282 -408h-242z" />
<glyph unicode="&#x205f;" horiz-adv-x="465" />
<glyph unicode="&#x20ac;" d="M84 463v158h115v67q0 61 2 92h-117v158h133q43 242 188 352.5t414 110.5q159 0 309 -39v-197q-143 41 -278 41q-156 0 -242.5 -63.5t-118.5 -204.5h463v-158h-483q-2 -29 -2 -92v-67h485v-158h-469q31 -157 117 -225t250 -68q135 0 278 41v-197q-150 -39 -309 -39 q-275 0 -420.5 116.5t-185.5 371.5h-129z" />
<glyph unicode="&#x2122;" horiz-adv-x="1939" d="M45 1221v155h737v-155h-268v-697h-201v697h-268zM930 524v852h188l264 -444l269 444h186v-852h-182v561l-207 -340h-131l-203 340v-561h-184z" />
<glyph unicode="&#x25fc;" horiz-adv-x="1003" d="M0 0v1004h1004v-1004h-1004z" />
</font>
</defs>
</svg>
