<?xml version="1.0" standalone="no"?>
<!DOCTYPE svg PUBLIC "-//W3C//DTD SVG 1.1//EN" "http://www.w3.org/Graphics/SVG/1.1/DTD/svg11.dtd" >
<svg xmlns="http://www.w3.org/2000/svg" xmlns:xlink="http://www.w3.org/1999/xlink" version="1.1">
<metadata></metadata>
<defs>
<font id="renault_lifebold_italic" horiz-adv-x="1179" >
<font-face units-per-em="2048" ascent="1526" descent="-522" />
<missing-glyph horiz-adv-x="458" />
<glyph unicode="&#xfb01;" horiz-adv-x="1284" d="M-188 -264q138 68 196.5 169.5t100.5 336.5l94 526q5 31 2 38.5t-19 12.5l-129 35l58 150h129l22 131q31 183 129.5 257t286.5 74q66 0 134 -11.5t102 -29.5l-74 -192q-78 29 -139 29q-156 0 -181 -148l-18 -110h708q10 0 15 -1t8.5 -6.5t1.5 -17.5l-174 -979h-262 l141 805h-473l-102 -584q-35 -203 -93.5 -328.5t-151.5 -200t-241 -118.5zM1001 1257q0 88 46.5 135.5t132.5 47.5q133 0 133 -117q0 -89 -46 -136.5t-132 -47.5q-134 0 -134 118z" />
<glyph unicode="&#xfb02;" horiz-adv-x="1288" d="M-188 -264q138 68 196.5 169.5t100.5 336.5l94 526q5 31 2 38.5t-19 12.5l-129 35l58 150h129l8 45q39 207 145 297q138 120 439 120q101 0 218 -16t195 -41q26 -8 33.5 -19.5t3.5 -39.5l-203 -1155q-4 -21 -0.5 -29.5t21.5 -15.5l67 -29l-45 -121h-319q-11 0 -14 4 t-2 16l213 1221q-89 21 -187 21q-141 0 -217 -54q-69 -50 -86 -153l-8 -51h272l-35 -199h-272l-102 -584q-35 -203 -93.5 -328.5t-151.5 -200t-241 -118.5z" />
<glyph unicode="&#xfb03;" horiz-adv-x="2021" d="M-188 -264q138 68 196.5 169.5t100.5 336.5l94 526q5 31 2 38.5t-19 12.5l-129 35l58 150h129l22 131q31 183 129.5 257t286.5 74q66 0 134 -11.5t102 -29.5l-74 -192q-78 29 -139 29q-156 0 -181 -148l-18 -110h475l23 131q31 183 129 257t286 74q66 0 134 -11.5 t102 -29.5l-74 -192q-78 29 -139 29q-155 0 -180 -148l-19 -110h709q10 0 14.5 -1t8 -6.5t1.5 -17.5l-174 -979h-262l141 805h-473l-96 -555q-35 -203 -93.5 -328.5t-151 -200t-240.5 -118.5l-72 161q138 68 196.5 169.5t100.5 336.5l94 535h-475l-102 -584 q-35 -203 -93.5 -328.5t-151.5 -200t-241 -118.5zM1739 1257q0 88 46 135.5t132 47.5q133 0 133 -117q0 -89 -46 -136.5t-132 -47.5q-133 0 -133 118z" />
<glyph unicode="&#xfb04;" horiz-adv-x="2025" d="M-188 -264q138 68 196.5 169.5t100.5 336.5l94 526q5 31 2 38.5t-19 12.5l-129 35l58 150h129l18 102q30 172 125 252q108 94 318 94q145 0 256 -45l-74 -193q-89 33 -160 33q-87 0 -137 -33q-55 -37 -70 -129l-14 -81h475l8 45q38 206 146 297q138 120 438 120 q101 0 218.5 -16t195.5 -41q26 -7 33.5 -19t2.5 -40l-202 -1155q-4 -21 -1 -29.5t21 -15.5l68 -29l-45 -121h-320q-11 0 -14 4t-2 16l213 1221q-89 21 -187 21q-141 0 -217 -54q-69 -50 -86 -153l-8 -51h273l-35 -199h-273l-96 -555q-35 -203 -93.5 -328.5t-151 -200 t-240.5 -118.5l-72 161q138 68 196.5 169.5t100.5 336.5l94 535h-475l-102 -584q-35 -203 -93.5 -328.5t-151.5 -200t-241 -118.5z" />
<glyph horiz-adv-x="0" />
<glyph horiz-adv-x="0" />
<glyph horiz-adv-x="682" />
<glyph unicode="&#xd;" horiz-adv-x="458" />
<glyph unicode=" "  horiz-adv-x="458" />
<glyph unicode="&#x09;" horiz-adv-x="458" />
<glyph unicode="&#xa0;" horiz-adv-x="458" />
<glyph unicode="!" horiz-adv-x="542" d="M49 100q0 89 47 138t135 49q138 0 138 -121q0 -90 -48 -139.5t-135 -49.5q-70 0 -103.5 30t-33.5 93zM139 434l154 942h262l-176 -942h-240z" />
<glyph unicode="&#x22;" horiz-adv-x="952" d="M205 858l92 518h221l-92 -518h-221zM616 858l93 518h221l-92 -518h-222z" />
<glyph unicode="#" horiz-adv-x="1351" d="M10 326l31 180h235l109 364h-211l31 181h233l99 325h198l-96 -325h354l97 325h200l-98 -325h211l-31 -181h-233l-109 -364h211l-31 -180h-235l-96 -326h-201l98 326h-354l-98 -326h-199l96 326h-211zM475 506h354l109 364h-354z" />
<glyph unicode="$" d="M61 117l37 213q212 -80 416 -80q128 0 195 46.5t67 139.5q0 44 -25 75t-66 46t-93 29.5t-106.5 25.5t-106.5 34.5t-93 55.5t-66 90t-25 136q0 172 107 276.5t310 126.5l62 340h241l-61 -344q152 -16 281 -55l-39 -213q-208 67 -371 67q-122 0 -188 -45.5t-66 -132.5 q0 -38 20 -65t54 -42.5t77.5 -27t92 -22t97 -23.5t92 -37t77.5 -57.5t54 -89t20 -127.5q0 -178 -109 -285t-317 -127l-60 -340h-241l59 342q-168 15 -326 70z" />
<glyph unicode="%" horiz-adv-x="1769" d="M156 920q0 226 109 353.5t302 127.5q164 0 238 -60.5t74 -195.5q0 -226 -109 -353.5t-301 -127.5q-164 0 -238.5 60.5t-74.5 195.5zM346 944q0 -68 31.5 -98.5t103.5 -30.5q97 0 153 83t56 226q0 67 -32.5 97t-104.5 30q-96 0 -151.5 -82.5t-55.5 -224.5zM406 0l849 1376 h172l-847 -1376h-174zM954 231q0 226 109.5 354t302.5 128q164 0 237.5 -60.5t73.5 -195.5q0 -226 -108.5 -354t-300.5 -128q-165 0 -239.5 60.5t-74.5 195.5zM1145 256q0 -68 31.5 -98.5t103.5 -30.5q97 0 153 83t56 226q0 67 -32.5 97t-104.5 30q-96 0 -151.5 -82.5 t-55.5 -224.5z" />
<glyph unicode="&#x26;" horiz-adv-x="1374" d="M57 332q0 151 86 256.5t275 187.5q-111 135 -111 271q0 162 116.5 258t313.5 96q180 0 271.5 -71t91.5 -206q0 -143 -84.5 -243t-270.5 -176l201 -254q65 95 80 225h236q-41 -253 -179 -412l195 -264h-277l-94 115q-162 -140 -413 -140q-215 0 -326 91t-111 266zM303 362 q0 -92 59 -140t168 -48q145 0 258 113l-266 344q-115 -51 -167 -114.5t-52 -154.5zM549 1042q0 -82 86 -182q117 43 171 97t54 130q0 119 -137 119q-82 0 -128 -44t-46 -120z" />
<glyph unicode="'" horiz-adv-x="509" d="M205 858l92 518h221l-92 -518h-221z" />
<glyph unicode="(" horiz-adv-x="673" d="M129 393q0 300 105 572t301 477h278q-214 -202 -326 -465.5t-112 -562.5q0 -369 141 -676h-244q-143 271 -143 655z" />
<glyph unicode=")" horiz-adv-x="673" d="M-113 -262q215 202 327 465.5t112 562.5q0 366 -142 676h244q145 -275 145 -656q0 -300 -105.5 -571.5t-301.5 -476.5h-279z" />
<glyph unicode="*" horiz-adv-x="1001" d="M190 793l236 170l-236 170l105 145l235 -170l91 276l170 -55l-89 -278h291v-179h-291l89 -276l-170 -55l-91 276l-235 -170z" />
<glyph unicode="+" d="M158 479v221h336v336h221v-336h336v-221h-336v-336h-221v336h-336z" />
<glyph unicode="," horiz-adv-x="509" d="M-104 -295l198 518h273l-254 -518h-217z" />
<glyph unicode="-" horiz-adv-x="655" d="M29 410l34 200h566l-35 -200h-565z" />
<glyph unicode="." horiz-adv-x="509" d="M29 102q0 91 48.5 141t137.5 50q137 0 137 -125q0 -91 -47.5 -141t-136.5 -50q-139 0 -139 125z" />
<glyph unicode="/" horiz-adv-x="786" d="M-160 -262l887 1704h250l-889 -1704h-248z" />
<glyph unicode="0" d="M76 414q0 213 44 394t125.5 313t204 206t273.5 74q232 0 338 -104.5t106 -333.5q0 -286 -75.5 -508t-223.5 -351t-348 -129q-231 0 -337.5 105.5t-106.5 333.5zM328 434q0 -127 50.5 -185.5t160.5 -58.5q106 0 192 97t135 269.5t49 385.5q0 128 -49.5 186t-158.5 58 q-108 0 -195 -97.5t-135.5 -269.5t-48.5 -385z" />
<glyph unicode="1" d="M301 993l39 219l440 164h209l-241 -1376h-263l201 1137z" />
<glyph unicode="2" d="M10 0l35 195l590 477q113 91 165 170.5t52 161.5q0 94 -61 138t-189 44q-159 0 -354 -49l37 213q178 51 389 51q228 0 337 -79.5t109 -244.5q0 -287 -274 -510l-438 -358h575l-37 -209h-936z" />
<glyph unicode="3" d="M18 39l35 207q183 -66 340 -66q191 0 283 68.5t92 210.5q0 85 -75.5 126.5t-237.5 41.5h-82l30 168l402 383h-572l35 198h865l-33 -194l-402 -381q166 -19 251 -99t85 -213q0 -514 -641 -514q-195 0 -375 64z" />
<glyph unicode="4" d="M4 287l35 200l792 889h281l-158 -891h179l-35 -198h-178l-50 -287h-241l49 287h-674zM279 485h434l106 607z" />
<glyph unicode="5" d="M47 39l35 207q182 -66 340 -66q190 0 279.5 69t89.5 216q0 178 -334 178q-149 0 -267 -10l129 743h836l-35 -198h-594l-61 -349q97 5 117 5q233 0 354 -86.5t121 -251.5q0 -521 -635 -521q-186 0 -375 64z" />
<glyph unicode="6" d="M96 393q0 474 199 741t549 267q173 0 344 -55l-35 -203q-164 53 -319 53q-175 0 -293 -108.5t-154 -307.5q119 119 324 119q191 0 296 -91t105 -253q0 -274 -148 -427t-415 -153q-225 0 -339 106.5t-114 311.5zM340 401q0 -104 57.5 -162.5t169.5 -58.5q136 0 215.5 86.5 t79.5 237.5q0 194 -217 194q-145 0 -225 -78t-80 -219z" />
<glyph unicode="7" d="M180 0l721 1167h-678l35 209h963l-35 -200l-721 -1176h-285z" />
<glyph unicode="8" d="M41 309q0 159 86 261.5t252 142.5q-189 61 -189 256q0 207 138.5 319.5t394.5 112.5q230 0 338 -77.5t108 -240.5q0 -147 -77 -245.5t-224 -141.5q112 -34 165.5 -100.5t53.5 -171.5q0 -220 -144 -334.5t-423 -114.5q-249 0 -364 80t-115 254zM297 346q0 -88 60.5 -130 t185.5 -42q136 0 211 62.5t75 173.5q0 83 -51 129.5t-174 64.5q-307 -40 -307 -258zM442 983q0 -75 48 -119t153 -59q277 43 277 242q0 80 -53 117.5t-167 37.5q-121 0 -189.5 -58.5t-68.5 -160.5z" />
<glyph unicode="9" d="M55 31l35 202q161 -53 322 -53q174 0 291 108t155 308q-119 -119 -323 -119q-193 0 -298.5 91t-105.5 253q0 274 149 427t416 153q223 0 337 -106.5t114 -311.5q0 -474 -198.5 -741t-547.5 -267q-176 0 -346 56zM383 872q0 -194 217 -194q145 0 225 78t80 219 q0 104 -57.5 162.5t-169.5 58.5q-136 0 -215.5 -86.5t-79.5 -237.5z" />
<glyph unicode=":" horiz-adv-x="542" d="M45 102q0 91 48.5 141t137.5 50q138 0 138 -125q0 -91 -48 -141t-137 -50q-139 0 -139 125zM172 836q0 91 48.5 140.5t137.5 49.5q138 0 138 -125q0 -91 -48 -140.5t-137 -49.5q-139 0 -139 125z" />
<glyph unicode=";" horiz-adv-x="542" d="M-88 -295l199 518h272l-254 -518h-217zM172 836q0 91 48.5 140.5t137.5 49.5q138 0 138 -125q0 -91 -48 -140.5t-137 -49.5q-139 0 -139 125z" />
<glyph unicode="&#x3c;" d="M158 467v246l893 354v-233l-631 -244l631 -244v-233z" />
<glyph unicode="=" d="M158 258v219h893v-219h-893zM158 702v220h893v-220h-893z" />
<glyph unicode="&#x3e;" d="M158 113v233l628 244l-628 244v233l893 -354v-246z" />
<glyph unicode="?" horiz-adv-x="925" d="M160 100q0 89 47 138t135 49q70 0 103.5 -29.5t33.5 -91.5q0 -90 -47.5 -139.5t-134.5 -49.5q-70 0 -103.5 30t-33.5 93zM164 1149l35 205q158 47 336 47q218 0 320.5 -73.5t102.5 -227.5q0 -84 -24 -151.5t-63 -111.5t-86.5 -80.5t-96.5 -66t-91 -59.5t-73 -71t-39 -91 l-6 -35h-221l8 49q10 78 39.5 140t67.5 101.5t82 72.5t85.5 59t75.5 53.5t55 64.5t21 83q0 72 -50.5 105.5t-158.5 33.5q-139 0 -319 -47z" />
<glyph unicode="@" horiz-adv-x="1996" d="M80 266q0 267 71.5 482t206.5 364t335 229t452 80q380 0 581 -161t201 -461q0 -224 -62 -392.5t-181 -262t-281 -93.5q-76 0 -135.5 29t-93.5 82q-117 -111 -304 -111q-158 0 -242.5 80.5t-84.5 230.5q0 274 115.5 432t316.5 158q87 0 155.5 -27.5t108.5 -78.5l37 82h205 l-97 -545q-6 -27 -6 -53q0 -84 82 -84q106 0 177 145t71 365q0 232 -145.5 351.5t-434.5 119.5q-395 0 -609 -244.5t-214 -685.5q0 -263 157.5 -391.5t489.5 -128.5q264 0 557 96l-36 -203q-242 -88 -535 -88q-858 0 -858 684zM799 410q0 -76 38 -115t109 -39q161 0 195 170 l18 119q8 39 8 82q0 54 -39.5 87.5t-105.5 33.5q-99 0 -161 -92t-62 -246z" />
<glyph unicode="A" horiz-adv-x="1349" d="M-92 0q128 296 366 728.5t396 647.5h299q81 -211 165.5 -641.5t110.5 -734.5h-270q-1 6 -37 322h-606q-64 -131 -152 -322h-272zM432 522h475q-51 311 -129 615q-163 -263 -346 -615z" />
<glyph unicode="B" horiz-adv-x="1335" d="M61 0l207 1184q4 22 0.5 29.5t-22.5 15.5l-68 28l43 119h692q195 0 290 -69.5t95 -212.5q0 -144 -55.5 -244t-165.5 -145q162 -52 162 -252q0 -221 -125.5 -337t-363.5 -116h-689zM358 199h357q256 0 256 254q0 78 -49.5 114.5t-155.5 36.5h-338zM463 797h332 q241 0 241 239q0 72 -46 107t-144 35h-316z" />
<glyph unicode="C" horiz-adv-x="1236" d="M96 477q0 447 209.5 685.5t577.5 238.5q237 0 424 -76l-76 -211q-181 72 -340 72q-245 0 -380.5 -172.5t-135.5 -489.5q0 -334 368 -334q179 0 373 48l-39 -220q-182 -43 -391 -43q-290 0 -440 127.5t-150 374.5z" />
<glyph unicode="D" horiz-adv-x="1449" d="M61 0l207 1184q4 22 0.5 29.5t-22.5 15.5l-68 28l43 119h561q325 0 480 -124.5t155 -385.5q0 -416 -211 -641t-600 -225h-545zM369 209h247q251 0 387 167t136 470q0 166 -95.5 243.5t-302.5 77.5h-202z" />
<glyph unicode="E" horiz-adv-x="1214" d="M61 0l207 1184q4 22 0.5 29.5t-22.5 15.5l-68 28l43 119h1057l-35 -209h-702l-66 -366h555l-37 -201h-553l-69 -391h719l-37 -209h-992z" />
<glyph unicode="F" horiz-adv-x="1181" d="M61 0l207 1184q4 22 0.5 29.5t-22.5 15.5l-68 28l43 119h1057l-37 -209h-702l-76 -422h557l-37 -204h-555l-94 -541h-273z" />
<glyph unicode="G" horiz-adv-x="1374" d="M96 483q0 445 217.5 681.5t604.5 236.5q120 0 248.5 -22t197.5 -54l-76 -209q-74 31 -173.5 53.5t-190.5 22.5q-270 0 -414.5 -171t-144.5 -491q0 -346 385 -346q89 0 221 25l63 356h-309l33 191h557l-129 -733q-245 -48 -484 -48q-295 0 -450.5 130.5t-155.5 377.5z" />
<glyph unicode="H" horiz-adv-x="1499" d="M61 0l207 1184q4 22 0.5 29.5t-22.5 15.5l-68 28l43 119h326q11 0 15 -0.5t7.5 -6t1.5 -17.5l-94 -545h662l100 569h272l-241 -1376h-273l105 596h-662l-106 -596h-273z" />
<glyph unicode="I" horiz-adv-x="563" d="M61 0l207 1184q4 22 0.5 29.5t-22.5 15.5l-68 28l43 119h326q11 0 15 -0.5t7.5 -6t1.5 -17.5l-237 -1352h-273z" />
<glyph unicode="J" horiz-adv-x="935" d="M-33 10l39 213q135 -33 234 -33q122 0 184 52t82 172l170 962h272l-178 -1003q-35 -207 -154.5 -302.5t-343.5 -95.5q-159 0 -305 35z" />
<glyph unicode="K" horiz-adv-x="1277" d="M61 0l207 1184q4 22 0.5 29.5t-22.5 15.5l-68 28l43 119h316q11 0 15 -0.5t7.5 -6t1.5 -17.5l-100 -570l649 594h309l-684 -635l447 -741h-281l-348 582l-152 -138l-77 -444h-263z" />
<glyph unicode="L" horiz-adv-x="1073" d="M61 0l207 1184q4 22 0.5 29.5t-22.5 15.5l-68 28l43 119h326q11 0 15 -0.5t7.5 -6t1.5 -17.5l-200 -1143h628l-38 -209h-900z" />
<glyph unicode="M" horiz-adv-x="1679" d="M61 0l207 1184q4 22 0.5 29.5t-22.5 15.5l-68 28l43 119h291q31 0 41 -7.5t22 -39.5l279 -698l561 745h277l-242 -1376h-252l172 981l-461 -606h-104q-53 0 -64.5 7t-29.5 48l-226 553l-172 -983h-252z" />
<glyph unicode="N" horiz-adv-x="1499" d="M61 0l207 1184q4 22 0.5 29.5t-22.5 15.5l-68 28l43 119h309q31 0 39 -6t27 -41l487 -956l177 1003h251l-241 -1376h-269l-509 1004l-179 -1004h-252z" />
<glyph unicode="O" horiz-adv-x="1488" d="M96 477q0 436 203.5 680t566.5 244q290 0 440 -127.5t150 -374.5q0 -436 -203.5 -680t-566.5 -244q-290 0 -440 127.5t-150 374.5zM375 508q0 -318 327 -318q223 0 349.5 180t126.5 498t-328 318q-223 0 -349 -180t-126 -498z" />
<glyph unicode="P" horiz-adv-x="1302" d="M61 0l207 1184q4 22 0.5 29.5t-22.5 15.5l-68 28l43 119h633q244 0 356.5 -81t112.5 -255q0 -270 -151 -412.5t-437 -142.5h-325l-86 -485h-263zM446 696h299q157 0 233.5 73.5t76.5 225.5q0 88 -58.5 130t-183.5 42h-285z" />
<glyph unicode="Q" horiz-adv-x="1488" d="M96 477q0 439 202.5 681.5t567.5 242.5q290 0 440 -127.5t150 -374.5q0 -312 -103 -527t-298 -315l131 -299h-244l-100 230q-80 -13 -156 -13q-290 0 -440 127.5t-150 374.5zM365 504q0 -324 337 -324q36 0 54 2l-90 207h243l54 -125q107 81 166 234t59 364 q0 324 -338 324q-224 0 -354.5 -181.5t-130.5 -500.5z" />
<glyph unicode="R" horiz-adv-x="1335" d="M61 0l207 1184q3 22 -0.5 30t-21.5 15l-68 28l43 119h649q230 0 341.5 -81t111.5 -248q0 -209 -97.5 -336.5t-281.5 -161.5l238 -549h-264l-222 518h-282l-90 -518h-263zM451 723h311q293 0 293 287q0 83 -55 122t-171 39h-301z" />
<glyph unicode="S" horiz-adv-x="1204" d="M25 55l38 211q224 -82 459 -82q150 0 234 57.5t84 164.5q0 52 -28.5 89t-75 56.5t-106.5 38.5t-122 33.5t-122 42t-106.5 63t-75 98t-28.5 146.5q0 202 154.5 315t402.5 113q139 0 270.5 -25.5t188.5 -54.5l-74 -203q-186 74 -368 74q-312 0 -312 -201q0 -43 23 -75 t61.5 -51.5t88.5 -35.5t105 -31t110 -32.5t105 -45.5t88.5 -65.5t61.5 -96.5t23 -134q0 -212 -151.5 -330.5t-415.5 -118.5q-267 0 -512 80z" />
<glyph unicode="T" horiz-adv-x="1226" d="M154 1167l39 209h1146l-36 -209h-439l-202 -1167h-275l205 1167h-438z" />
<glyph unicode="U" horiz-adv-x="1499" d="M141 375q0 68 19 180l108 629q3 22 -0.5 30t-21.5 15l-68 28l43 119h326q11 0 15 -0.5t7.5 -6t1.5 -17.5l-139 -797q-14 -75 -14 -133q0 -106 75.5 -169t204.5 -63q173 0 266.5 77.5t122.5 242.5l152 866h272l-155 -887q-46 -269 -209 -391.5t-475 -122.5 q-245 0 -388 108t-143 292z" />
<glyph unicode="V" horiz-adv-x="1345" d="M164 1376h270q63 -627 197 -1134q310 501 598 1134h274q-130 -298 -368.5 -730t-395.5 -646h-299q-81 211 -165.5 641.5t-110.5 734.5z" />
<glyph unicode="W" horiz-adv-x="2068" d="M158 1376h262q30 -614 112 -1122h3q227 441 495 1094h260q26 -568 111 -1094h2q227 429 510 1122h266q-114 -293 -309 -701.5t-350 -674.5h-303q-103 469 -130 961q-144 -411 -448 -961h-309q-60 265 -110.5 673.5t-61.5 702.5z" />
<glyph unicode="X" horiz-adv-x="1345" d="M-74 0l606 723l-329 653h282l244 -506l414 506h315l-586 -698l342 -678h-284l-252 530l-432 -530h-320z" />
<glyph unicode="Y" horiz-adv-x="1247" d="M152 1376h286l226 -575l423 575h316l-637 -827l-94 -549h-273l99 571z" />
<glyph unicode="Z" horiz-adv-x="1269" d="M-16 0l34 199l928 968h-741l37 209h1091l-35 -198l-925 -969h774l-39 -209h-1124z" />
<glyph unicode="[" horiz-adv-x="673" d="M33 -262l299 1704h463l-35 -199h-221l-230 -1306h221l-34 -199h-463z" />
<glyph unicode="\" horiz-adv-x="786" d="M154 1442h219l289 -1704h-222z" />
<glyph unicode="]" horiz-adv-x="673" d="M-88 -262l35 199h219l229 1306h-219l35 199h461l-299 -1704h-461z" />
<glyph unicode="^" d="M115 483l397 893h266l398 -893h-254l-277 629l-276 -629h-254z" />
<glyph unicode="_" horiz-adv-x="983" d="M-154 -362l37 200h983l-37 -200h-983z" />
<glyph unicode="`" horiz-adv-x="491" d="M51 1442h256l199 -303h-213z" />
<glyph unicode="a" horiz-adv-x="1189" d="M57 332q0 319 135.5 507.5t364.5 188.5q100 0 184.5 -33t135.5 -92l41 101h210l-143 -809q-4 -21 -0.5 -29.5t21.5 -15.5l67 -29l-45 -121h-254q-11 0 -13.5 3.5t-2.5 16.5v103q-142 -148 -332 -148q-178 0 -273.5 93t-95.5 264zM324 375q0 -96 48 -145.5t138 -49.5 q209 0 250 226l61 344q-88 73 -211 73q-133 0 -209.5 -121.5t-76.5 -326.5z" />
<glyph unicode="b" horiz-adv-x="1167" d="M39 0l219 1247q4 21 1 29.5t-21 15.5l-68 29l47 121h309q10 0 15 -1t8.5 -6.5t1.5 -17.5l-88 -491q105 102 276 102q180 0 275.5 -92t95.5 -264q0 -320 -136 -508.5t-366 -188.5q-105 0 -190.5 37t-126.5 107l-41 -119h-211zM346 252q98 -72 211 -72q131 0 209 123 t78 328q0 94 -48.5 143t-138.5 49q-213 0 -251 -225z" />
<glyph unicode="c" horiz-adv-x="956" d="M57 348q0 331 162 505.5t443 174.5q185 0 313 -53l-74 -197q-108 45 -235 45q-164 0 -253 -113t-89 -319q0 -211 241 -211q141 0 273 33l-35 -207q-146 -31 -295 -31q-224 0 -337.5 94.5t-113.5 278.5z" />
<glyph unicode="d" horiz-adv-x="1187" d="M57 332q0 319 135.5 507.5t364.5 188.5q190 0 293 -106l92 520h262l-219 -1247q-4 -21 -0.5 -29.5t21.5 -15.5l67 -29l-45 -121h-254q-11 0 -13.5 3.5t-2.5 16.5v86q-117 -131 -332 -131q-178 0 -273.5 93t-95.5 264zM324 375q0 -96 48 -145.5t138 -49.5q61 0 121 19.5 t100 52.5l57 313q11 64 11 109q0 67 -52.5 108t-136.5 41q-130 0 -208 -122t-78 -326z" />
<glyph unicode="e" horiz-adv-x="1097" d="M57 348q0 320 147 500t412 180q210 0 313 -89.5t103 -276.5q0 -117 -35 -236h-686q-2 -18 -2 -37.5t2 -40.5q18 -174 269 -174q148 0 340 41l-35 -201q-165 -39 -338 -39q-242 0 -366 95t-124 278zM340 594h438q6 35 6 78q0 87 -44 129.5t-138 42.5q-104 0 -171.5 -64.5 t-90.5 -185.5z" />
<glyph unicode="f" horiz-adv-x="745" d="M-188 -264q138 68 196.5 169.5t100.5 336.5l94 526q5 31 2 38.5t-19 12.5l-129 35l58 150h129l22 131q31 183 129.5 257t286.5 74q66 0 134 -11.5t102 -29.5l-74 -192q-78 29 -139 29q-156 0 -181 -148l-18 -110h272l-35 -199h-272l-102 -584q-35 -203 -93.5 -328.5 t-151.5 -200t-241 -118.5z" />
<glyph unicode="g" horiz-adv-x="1165" d="M57 332q0 319 135.5 507.5t364.5 188.5q100 0 184.5 -33t135.5 -92l41 101h210l-178 -1006q-27 -151 -87.5 -247t-179.5 -149t-302 -53q-147 0 -215 19l37 199q84 -19 178 -19q80 0 138 18t90.5 52t49.5 70.5t25 84.5l18 103q-91 -101 -276 -101q-178 0 -273.5 93 t-95.5 264zM324 375q0 -96 48 -145.5t138 -49.5q209 0 250 226l61 344q-88 73 -211 73q-133 0 -209.5 -121.5t-76.5 -326.5z" />
<glyph unicode="h" horiz-adv-x="1187" d="M39 0l219 1247q4 21 1 29.5t-21 15.5l-68 29l47 121h309q10 0 15 -1t8.5 -6.5t1.5 -17.5l-88 -491q120 102 276 102q164 0 255 -82t91 -229q0 -69 -12 -131l-69 -391q-4 -21 -1 -29.5t21 -15.5l68 -29l-45 -121h-320q-11 0 -14 4t-2 16l100 566q8 47 8 84q0 149 -168 149 q-104 0 -215 -59l-135 -760h-262z" />
<glyph unicode="i" horiz-adv-x="538" d="M57 0l144 809q4 21 0.5 29.5t-21.5 15.5l-69 29l47 121h311q10 0 15 -1t8.5 -6.5t1.5 -17.5l-175 -979h-262zM256 1257q0 88 46 135.5t132 47.5q133 0 133 -117q0 -89 -46 -136.5t-132 -47.5q-133 0 -133 118z" />
<glyph unicode="j" horiz-adv-x="538" d="M-238 -438l33 192q14 -2 58 -2q89 0 133 41q43 40 63 160l152 856q4 21 0.5 29.5t-21.5 15.5l-69 29l47 121h311q10 0 15 -1t8.5 -6.5t1.5 -17.5l-181 -1016q-22 -119 -53 -191t-80 -118q-104 -98 -315 -98q-65 0 -103 6zM256 1257q0 88 46 135.5t132 47.5 q133 0 133 -117q0 -89 -46 -136.5t-132 -47.5q-133 0 -133 118z" />
<glyph unicode="k" horiz-adv-x="1036" d="M39 0l219 1247q4 21 1 29.5t-21 15.5l-68 29l47 121h299q10 0 15 -1t8.5 -6.5t1.5 -17.5l-140 -792l398 379h299l-471 -445l295 -559h-271l-200 403l-107 -100l-53 -303h-252z" />
<glyph unicode="l" horiz-adv-x="542" d="M45 20l215 1227q4 21 1 29.5t-21 15.5l-68 29l47 121h309q10 0 15 -1t8.5 -6.5t1.5 -17.5l-215 -1222q-4 -21 -1 -29.5t21 -15.5l68 -29l-45 -121h-320q-11 0 -14 4t-2 16z" />
<glyph unicode="m" horiz-adv-x="1820" d="M49 0l144 809q4 21 0.5 29.5t-21.5 15.5l-68 29l48 121h301q14 0 20.5 -4.5t3.5 -20.5l-10 -59q120 108 276 108q102 0 176.5 -36t106.5 -93q126 129 358 129q158 0 246 -80t88 -221q0 -67 -12 -131l-70 -401q-4 -21 -0.5 -29.5t21.5 -15.5l67 -29l-45 -121h-319 q-11 0 -14.5 4t-2.5 16l103 576q8 58 8 84q0 139 -158 139q-139 0 -225 -57q4 -20 4 -46q0 -41 -10 -98l-109 -618h-262l107 596q10 48 10 84q0 139 -160 139q-112 0 -205 -59l-135 -760h-262z" />
<glyph unicode="n" horiz-adv-x="1198" d="M49 0l144 809q4 21 0.5 29.5t-21.5 15.5l-68 29l48 121h301q14 0 20.5 -4.5t3.5 -20.5l-10 -59q117 108 283 108q164 0 255 -82t91 -229q0 -64 -13 -131l-69 -391q-4 -21 -1 -29.5t21 -15.5l68 -29l-45 -121h-320q-11 0 -14 4t-2 16l100 566q8 47 8 84q0 149 -167 149 q-105 0 -216 -59l-135 -760h-262z" />
<glyph unicode="o" horiz-adv-x="1148" d="M57 348q0 318 154.5 499t427.5 181q225 0 339 -94t114 -279q0 -319 -154.5 -499.5t-429.5 -180.5q-224 0 -337.5 94.5t-113.5 278.5zM324 379q0 -199 200 -199q138 0 219.5 121t81.5 324q0 198 -200 198q-138 0 -219.5 -120.5t-81.5 -323.5z" />
<glyph unicode="p" horiz-adv-x="1177" d="M-25 -426l218 1235q4 21 0.5 29.5t-21.5 15.5l-68 29l48 121h297q10 0 14.5 -1t8 -6.5t1.5 -17.5l-10 -59q52 49 129 78.5t158 29.5q180 0 275 -92t95 -264q0 -320 -136 -508.5t-366 -188.5q-89 0 -165 28t-125 81l-90 -510h-263zM356 252q98 -72 211 -72q131 0 209 123 t78 328q0 94 -48 143t-138 49q-214 0 -252 -225z" />
<glyph unicode="q" horiz-adv-x="1165" d="M57 332q0 319 135.5 507.5t364.5 188.5q100 0 184.5 -33t135.5 -92l41 101h210l-247 -1407l-273 -46l94 525q-98 -101 -276 -101t-273.5 93t-95.5 264zM324 375q0 -96 48 -145.5t138 -49.5q61 0 121 19.5t100 52.5l57 313q11 64 11 109q0 67 -52.5 108t-136.5 41 q-130 0 -208 -122t-78 -326z" />
<glyph unicode="r" horiz-adv-x="813" d="M49 0l144 809q4 21 0.5 29.5t-21.5 15.5l-68 29l48 121h301q14 0 20.5 -4.5t3.5 -20.5l-16 -98q116 147 291 147q74 0 112 -10l-37 -213q-56 14 -112 14q-81 0 -142.5 -24t-132.5 -74l-129 -721h-262z" />
<glyph unicode="s" horiz-adv-x="940" d="M10 33l35 205q174 -68 340 -68q98 0 152.5 35t54.5 102q0 35 -26.5 58.5t-69 37t-93.5 25.5t-102.5 31.5t-94 48t-69 81t-26.5 124.5q0 147 115.5 231t320.5 84q215 0 360 -59l-73 -195q-124 60 -271 60q-95 0 -148 -29.5t-53 -89.5q0 -25 16.5 -43t44.5 -29.5t64 -21.5 t76 -20t80 -23t76 -33.5t64 -48t44.5 -71t16.5 -97.5q0 -166 -115.5 -259.5t-329.5 -93.5q-202 0 -389 58z" />
<glyph unicode="t" horiz-adv-x="802" d="M49 854l57 150h130l51 288h262l-51 -288h313l-35 -199h-315l-76 -432q-6 -34 -6 -68q0 -64 37.5 -94.5t115.5 -30.5q62 0 136 15l-37 -205q-96 -15 -162 -15q-356 0 -356 279q0 46 10 108l70 406q5 31 2 38.5t-19 12.5z" />
<glyph unicode="u" horiz-adv-x="1169" d="M88 883l47 121h311q10 0 15 -1t8.5 -6.5t1.5 -17.5l-102 -571q-9 -61 -9 -84q0 -66 47 -105t128 -39q104 0 160 48t75 151l111 625h262l-115 -646q-35 -200 -160 -291.5t-362 -91.5q-192 0 -301 80t-109 221q0 64 10 132l72 401q4 21 1 29.5t-21 15.5z" />
<glyph unicode="v" horiz-adv-x="1071" d="M102 1004h271q41 -422 114 -752q180 316 383 752h275q-86 -193 -263.5 -505.5t-306.5 -498.5h-262q-64 192 -130 504t-81 500z" />
<glyph unicode="w" horiz-adv-x="1687" d="M104 1004h256q23 -375 89 -750h2q139 262 340 717h241q23 -355 86 -717h2q189 355 355 750h254q-211 -487 -515 -1004h-262q-75 331 -100 625h-4q-146 -342 -313 -625h-273q-118 497 -158 1004z" />
<glyph unicode="x" horiz-adv-x="1071" d="M-63 0l438 524l-244 480h264l160 -330l266 330h295l-424 -508l252 -496h-266l-166 346l-279 -346h-296z" />
<glyph unicode="y" d="M88 883l47 121h311q10 0 15 -1t8.5 -6.5t1.5 -17.5l-102 -571q-9 -61 -9 -84q0 -66 47 -105t128 -39q104 0 161 55.5t78 170.5l107 598h262l-178 -1006q-20 -113 -58.5 -193.5t-105 -139.5t-167.5 -87.5t-239 -28.5q-147 0 -215 19l37 199q84 -19 178 -19q80 0 138 18 t90.5 52t49.5 70.5t25 84.5l19 103q-46 -48 -118.5 -74.5t-149.5 -26.5q-158 0 -255.5 81t-97.5 220q0 64 10 132l72 401q4 21 1 29.5t-21 15.5z" />
<glyph unicode="z" horiz-adv-x="980" d="M-12 0l35 188l628 617h-506l35 199h817l-32 -189l-629 -616h538l-34 -199h-852z" />
<glyph unicode="{" horiz-adv-x="673" d="M10 489l35 201h21q87 0 134 41t62 129l45 254q31 178 123 253t283 75h82l-37 -199h-33q-80 0 -124.5 -39.5t-57.5 -122.5l-45 -262q-39 -206 -197 -246q117 -29 117 -170q0 -26 -8 -84l-39 -204q-6 -35 -6 -68q0 -110 139 -110h24l-34 -199h-68q-158 0 -234.5 58.5 t-76.5 178.5q0 56 10 107l43 237q6 30 6 64q0 106 -131 106h-33z" />
<glyph unicode="|" horiz-adv-x="491" d="M135 -459v1966h221v-1966h-221z" />
<glyph unicode="}" horiz-adv-x="673" d="M-92 -262l37 199h30q82 0 127 39t58 122l45 262q39 206 196 246q-116 29 -116 170q0 45 8 84l37 205q6 35 6 68q0 58 -34.5 84t-104.5 26h-23l35 199h67q158 0 235 -59t77 -179q0 -38 -10 -106l-43 -238q-7 -35 -7 -63q0 -107 131 -107h33l-35 -201h-20 q-87 0 -133.5 -40.5t-63.5 -129.5l-45 -253q-31 -178 -122.5 -253t-282.5 -75h-82z" />
<glyph unicode="~" d="M72 395q2 209 79 305.5t244 96.5q62 0 114.5 -19.5t88 -47.5t66 -55.5t63 -47t64.5 -19.5q65 0 93.5 41.5t30.5 134.5h220q0 -209 -77.5 -305t-244.5 -96q-62 0 -115 19.5t-88.5 47t-66 55t-63 47t-64.5 19.5q-64 0 -93.5 -42t-29.5 -134h-221z" />
<glyph unicode="&#xa1;" horiz-adv-x="542" d="M-16 -373l176 942h239l-153 -942h-262zM170 838q0 90 47.5 139t134.5 49q70 0 103.5 -30t33.5 -93q0 -89 -47 -137.5t-135 -48.5q-70 0 -103.5 29.5t-33.5 91.5z" />
<glyph unicode="&#xa2;" d="M205 535q0 281 119.5 455t339.5 214l61 346h242l-62 -342q115 -12 215 -41l-35 -206q-139 49 -272 49q-165 0 -253.5 -112.5t-88.5 -322.5q0 -208 244 -208q141 0 272 32l-37 -206q-121 -25 -229 -31l-59 -336h-242l61 354q-276 64 -276 355z" />
<glyph unicode="&#xa3;" d="M45 0l37 205h176l68 395h-144l35 201h143l33 184q38 212 163.5 314t348.5 102q130 0 297 -41l-35 -205q-132 37 -231 37q-120 0 -185.5 -57t-88.5 -181l-29 -153h364l-34 -201h-365l-68 -395h486l-37 -205h-934z" />
<glyph unicode="&#xa4;" d="M80 319l149 150q-41 81 -41 219t41 219l-149 150l156 155l149 -151q85 43 219 43q135 0 217 -43l152 151l155 -155l-151 -150q41 -81 41 -219t-41 -219l151 -150l-155 -155l-152 151q-76 -43 -217 -43q-140 0 -219 43l-149 -151zM393 688q0 -112 49.5 -161.5t161.5 -49.5 t160.5 49t48.5 162t-48.5 162t-160.5 49t-161.5 -49.5t-49.5 -161.5z" />
<glyph unicode="&#xa5;" d="M109 244l28 157h297l29 158h-299l26 160h234l-291 657h285l219 -549l403 549h314l-512 -657h219l-27 -160h-299l-28 -158h299l-29 -157h-297l-43 -244h-272l43 244h-299z" />
<glyph unicode="&#xa6;" horiz-adv-x="491" d="M135 -360v786h221v-786h-221zM135 623v786h221v-786h-221z" />
<glyph unicode="&#xa7;" horiz-adv-x="1155" d="M-23 -244l37 213q209 -80 408 -80q124 0 189 47t65 140q0 40 -19.5 68t-52 44.5t-75 28.5t-89 23t-93.5 24.5t-89.5 37t-75 56t-52 86t-19.5 123.5q0 175 131 293q-25 58 -25 133q0 193 131.5 300.5t376.5 107.5q208 0 416 -64l-37 -213q-197 68 -363 68 q-119 0 -182 -45.5t-63 -132.5q0 -38 19.5 -65t52 -42.5t75 -27t89 -22t93.5 -24t89.5 -38t75 -58t52 -88.5t19.5 -127q0 -184 -131 -299q24 -55 24 -127q0 -198 -132.5 -306.5t-383.5 -108.5q-242 0 -461 75zM379 588q0 -47 24.5 -78t66 -46.5t86.5 -26t98 -26.5t87 -38 q52 52 52 129q0 48 -23.5 80t-65 49t-85.5 28t-97.5 27t-87.5 37q-55 -58 -55 -135z" />
<glyph unicode="&#xa8;" horiz-adv-x="491" d="M8 1257q0 86 44 132.5t128 46.5q66 0 97.5 -27.5t31.5 -85.5q0 -86 -44.5 -132t-129.5 -46q-66 0 -96.5 27t-30.5 85zM451 1257q0 85 45 132t129 47q66 0 96.5 -27t30.5 -86q0 -87 -44 -132.5t-128 -45.5q-66 0 -97.5 27t-31.5 85z" />
<glyph unicode="&#xa9;" horiz-adv-x="1703" d="M111 688q0 391 183.5 572.5t590.5 181.5t590.5 -181.5t183.5 -572.5t-183.5 -572.5t-590.5 -181.5t-590.5 181.5t-183.5 572.5zM262 688q0 -326 152 -474t471 -148t470.5 148t151.5 474q0 330 -146 476.5t-476 146.5t-476.5 -146.5t-146.5 -476.5zM483 688q0 234 103 338 t336 104q128 0 262 -32v-160q-119 35 -230 35q-145 0 -207.5 -66.5t-62.5 -218.5t62.5 -218.5t207.5 -66.5q111 0 230 35v-159q-139 -33 -262 -33q-233 0 -336 104t-103 338z" />
<glyph unicode="&#xaa;" horiz-adv-x="778" d="M74 438l26 152h623l-27 -152h-622zM139 866q0 114 74.5 175t214.5 61q95 0 168 -25l8 43q6 21 6 45q0 86 -151 86q-95 0 -203 -24l25 141q119 25 227 25q133 0 209 -56t76 -153q0 -36 -7 -80l-69 -393h-131l-8 49q-85 -66 -209 -66q-230 0 -230 172zM326 893 q0 -68 102 -68q125 0 141 95l9 43q-50 20 -123 20q-129 0 -129 -90z" />
<glyph unicode="&#xab;" horiz-adv-x="1083" d="M35 502l348 407h244l-334 -420l203 -395h-232zM512 502l348 407h244l-336 -420l205 -395h-232z" />
<glyph unicode="&#xac;" d="M158 479v221h893v-557h-222v336h-671z" />
<glyph unicode="&#xad;" horiz-adv-x="688" d="M29 410l34 200h566l-35 -200h-565z" />
<glyph unicode="&#xae;" horiz-adv-x="1703" d="M111 688q0 391 183.5 572.5t590.5 181.5t590.5 -181.5t183.5 -572.5t-183.5 -572.5t-590.5 -181.5t-590.5 181.5t-183.5 572.5zM262 688q0 -326 152 -474t471 -148t470.5 148t151.5 474q0 330 -146 476.5t-476 146.5t-476.5 -146.5t-146.5 -476.5zM549 262v852h391 q169 0 244.5 -64t75.5 -208q0 -210 -177 -250l199 -330h-209l-178 309h-160v-309h-186zM735 721h189q75 0 107 28.5t32 94.5q0 65 -32 93t-107 28h-189v-244z" />
<glyph unicode="&#xaf;" horiz-adv-x="491" d="M35 1200l31 178h661l-31 -178h-661z" />
<glyph unicode="&#xb0;" horiz-adv-x="739" d="M188 1063q0 159 87 247.5t243 88.5q248 0 248 -228q0 -158 -86.5 -246.5t-243.5 -88.5q-248 0 -248 227zM336 1087q0 -108 119 -108q78 0 120.5 44t42.5 124q0 108 -118 108q-78 0 -121 -44t-43 -124z" />
<glyph unicode="&#xb1;" d="M158 0v221h893v-221h-893zM158 694v219h336v338h221v-338h336v-219h-336v-336h-221v336h-336z" />
<glyph unicode="&#xb2;" horiz-adv-x="720" d="M98 786l25 142l350 276q133 106 133 193q0 52 -34.5 76t-108.5 24q-76 0 -221 -29l26 156q124 31 246 31q146 0 216.5 -50.5t70.5 -154.5q0 -176 -176 -317l-236 -191h332l-27 -156h-596z" />
<glyph unicode="&#xb3;" horiz-adv-x="720" d="M109 809l24 154q118 -43 213 -43q108 0 159.5 36.5t51.5 114.5q0 90 -178 90h-55l20 123l227 207h-333l24 147h553l-27 -141l-227 -209q92 -13 142.5 -64.5t50.5 -131.5q0 -322 -408 -322q-125 0 -237 39z" />
<glyph unicode="&#xb4;" horiz-adv-x="491" d="M205 1139l289 303h290l-333 -303h-246z" />
<glyph unicode="&#xb5;" horiz-adv-x="1165" d="M-45 -426l252 1430h262l-102 -580q-13 -63 -13 -86q0 -74 46 -114t132 -40q196 0 234 211l108 609h263l-179 -1004h-188l-12 96q-105 -114 -275 -114q-62 0 -110.5 17.5t-71.5 49.5l-84 -475h-262z" />
<glyph unicode="&#xb6;" horiz-adv-x="1243" d="M127 834q0 248 151 395t404 147h573l-294 -1671h-222l260 1473h-211l-122 -693h-103q-231 0 -333.5 82.5t-102.5 266.5z" />
<glyph unicode="&#xb7;" horiz-adv-x="509" d="M92 477q0 91 49 141t138 50q137 0 137 -125q0 -91 -48 -141t-137 -50q-139 0 -139 125z" />
<glyph unicode="&#xb8;" horiz-adv-x="491" d="M-145 -457l24 142q83 -27 154 -27q57 0 88 22.5t31 63.5q0 59 -107 59h-12l35 197h178l-15 -90q61 -12 93 -51t32 -99q0 -116 -80 -180.5t-225 -64.5q-81 0 -196 28z" />
<glyph unicode="&#xb9;" horiz-adv-x="581" d="M213 1386l29 162l264 90h149l-149 -852h-193l119 674z" />
<glyph unicode="&#xba;" horiz-adv-x="825" d="M74 438l26 152h672l-27 -152h-671zM158 944q0 211 104.5 330t288.5 119q307 0 307 -250q0 -211 -103.5 -330t-289.5 -119q-152 0 -229.5 63.5t-77.5 186.5zM354 967q0 -119 123 -119q86 0 135.5 73.5t49.5 198.5q0 121 -123 121q-85 0 -135 -74.5t-50 -199.5z" />
<glyph unicode="&#xbb;" horiz-adv-x="1083" d="M-18 94l333 420l-202 395h231l227 -407l-346 -408h-243zM457 94l336 420l-205 395h231l230 -407l-349 -408h-243z" />
<glyph unicode="&#xbc;" horiz-adv-x="1769" d="M254 1124l29 162l264 90h149l-149 -852h-193l119 674zM406 0l849 1376h172l-847 -1376h-174zM977 172l27 147l483 533h205l-95 -539h113l-24 -141h-115l-29 -172h-174l31 172h-422zM1178 313h245l60 336z" />
<glyph unicode="&#xbd;" horiz-adv-x="1769" d="M254 1124l29 162l264 90h149l-149 -852h-193l119 674zM406 0l849 1376h172l-847 -1376h-174zM991 0l25 141l350 277q133 106 133 192q0 52 -34.5 76.5t-108.5 24.5q-76 0 -221 -29l26 156q120 30 246 30q146 0 216.5 -50t70.5 -154q0 -177 -176 -318l-236 -190h332 l-27 -156h-596z" />
<glyph unicode="&#xbe;" horiz-adv-x="1769" d="M80 547l24 153q118 -43 213 -43q108 0 159.5 37t51.5 115q0 90 -178 90h-55l20 123l228 207h-334l24 147h553l-26 -141l-228 -209q92 -13 142.5 -65t50.5 -132q0 -321 -408 -321q-125 0 -237 39zM406 0l849 1376h172l-847 -1376h-174zM977 172l27 147l483 533h205 l-95 -539h113l-24 -141h-115l-29 -172h-174l31 172h-422zM1178 313h245l60 336z" />
<glyph unicode="&#xbf;" horiz-adv-x="860" d="M-35 -96q0 85 24 152.5t63 111.5t86.5 80t96.5 66t91 59.5t73 70.5t39 91l6 34h222l-9 -49q-10 -77 -39.5 -139t-67.5 -101.5t-82 -72t-85.5 -59t-75.5 -54t-55 -64.5t-21 -83q0 -72 51 -106t158 -34q138 0 322 48l-37 -205q-155 -47 -336 -47q-218 0 -321 73.5 t-103 227.5zM444 838q0 89 47.5 138.5t135.5 49.5q70 0 103.5 -30t33.5 -93q0 -89 -47 -137.5t-135 -48.5q-138 0 -138 121z" />
<glyph unicode="&#xc0;" horiz-adv-x="1349" d="M-92 0q128 296 366 728.5t396 647.5h299q81 -211 165.5 -641.5t110.5 -734.5h-270q-1 6 -37 322h-606q-64 -131 -152 -322h-272zM432 522h475q-51 311 -129 615q-163 -263 -346 -615zM541 1802h256l198 -303h-213z" />
<glyph unicode="&#xc1;" horiz-adv-x="1349" d="M-92 0q128 296 366 728.5t396 647.5h299q81 -211 165.5 -641.5t110.5 -734.5h-270q-1 6 -37 322h-606q-64 -131 -152 -322h-272zM432 522h475q-51 311 -129 615q-163 -263 -346 -615zM694 1499l289 303h291l-334 -303h-246z" />
<glyph unicode="&#xc2;" horiz-adv-x="1349" d="M-92 0q128 296 366 728.5t396 647.5h299q81 -211 165.5 -641.5t110.5 -734.5h-270q-1 6 -37 322h-606q-64 -131 -152 -322h-272zM432 522h475q-51 311 -129 615q-163 -263 -346 -615zM457 1499l303 303h254l200 -303h-213l-124 166l-185 -166h-235z" />
<glyph unicode="&#xc3;" horiz-adv-x="1349" d="M-92 0q128 296 366 728.5t396 647.5h299q81 -211 165.5 -641.5t110.5 -734.5h-270q-1 6 -37 322h-606q-64 -131 -152 -322h-272zM432 522h475q-51 311 -129 615q-163 -263 -346 -615zM500 1509l4 33q15 127 69.5 182.5t163.5 55.5q45 0 91 -21t83.5 -42t61.5 -21 q66 0 80 78l2 16h186l-4 -33q-17 -126 -72 -180.5t-164 -54.5q-45 0 -91 21t-83 42t-61 21q-67 0 -78 -78l-4 -19h-184z" />
<glyph unicode="&#xc4;" horiz-adv-x="1349" d="M-92 0q128 296 366 728.5t396 647.5h299q81 -211 165.5 -641.5t110.5 -734.5h-270q-1 6 -37 322h-606q-64 -131 -152 -322h-272zM432 522h475q-51 311 -129 615q-163 -263 -346 -615zM498 1618q0 85 44 131.5t128 46.5q66 0 97.5 -27.5t31.5 -85.5q0 -86 -44.5 -132 t-129.5 -46q-66 0 -96.5 27t-30.5 86zM940 1618q0 85 45 131.5t129 46.5q66 0 96.5 -27t30.5 -86q0 -87 -44 -132.5t-128 -45.5q-66 0 -97.5 27.5t-31.5 85.5z" />
<glyph unicode="&#xc5;" horiz-adv-x="1349" d="M-92 0q128 296 366 728.5t396 647.5h299q81 -211 165.5 -641.5t110.5 -734.5h-270q-1 6 -37 322h-606q-64 -131 -152 -322h-272zM432 522h475q-51 311 -129 615q-163 -263 -346 -615zM625 1606q0 118 73 186t201 68q109 0 162 -40t53 -124q0 -119 -73.5 -186.5 t-200.5 -67.5q-109 0 -162 40t-53 124zM768 1624q0 -72 84 -72q54 0 86.5 34t32.5 91q0 70 -84 70q-54 0 -86.5 -33t-32.5 -90z" />
<glyph unicode="&#xc6;" horiz-adv-x="2078" d="M-111 0q270 376 596.5 769t538.5 607h1118l-37 -209h-702l-66 -366h555l-34 -201h-555l-70 -391h719l-37 -209h-991l57 322h-565q-96 -123 -242 -322h-285zM571 522h445l117 662q-230 -248 -562 -662z" />
<glyph unicode="&#xc7;" horiz-adv-x="1236" d="M96 477q0 447 209.5 685.5t577.5 238.5q237 0 424 -76l-76 -211q-181 72 -340 72q-245 0 -380.5 -172.5t-135.5 -489.5q0 -334 368 -334q179 0 373 48l-39 -220q-163 -37 -348 -43l-10 -65q61 -12 93 -51t32 -99q0 -116 -80 -180.5t-225 -64.5q-81 0 -197 28l25 142 q83 -27 153 -27q57 0 88 22.5t31 63.5q0 59 -107 59h-12l31 181q-225 28 -340 152.5t-115 340.5z" />
<glyph unicode="&#xc8;" horiz-adv-x="1214" d="M61 0l207 1184q4 22 0.5 29.5t-22.5 15.5l-68 28l43 119h1057l-35 -209h-702l-66 -366h555l-37 -201h-553l-69 -391h719l-37 -209h-992zM502 1802h256l198 -303h-213z" />
<glyph unicode="&#xc9;" horiz-adv-x="1214" d="M61 0l207 1184q4 22 0.5 29.5t-22.5 15.5l-68 28l43 119h1057l-35 -209h-702l-66 -366h555l-37 -201h-553l-69 -391h719l-37 -209h-992zM655 1499l289 303h291l-334 -303h-246z" />
<glyph unicode="&#xca;" horiz-adv-x="1214" d="M61 0l207 1184q4 22 0.5 29.5t-22.5 15.5l-68 28l43 119h1057l-35 -209h-702l-66 -366h555l-37 -201h-553l-69 -391h719l-37 -209h-992zM418 1499l303 303h254l201 -303h-213l-125 166l-185 -166h-235z" />
<glyph unicode="&#xcb;" horiz-adv-x="1214" d="M61 0l207 1184q4 22 0.5 29.5t-22.5 15.5l-68 28l43 119h1057l-35 -209h-702l-66 -366h555l-37 -201h-553l-69 -391h719l-37 -209h-992zM459 1618q0 85 44 131.5t128 46.5q66 0 97.5 -27.5t31.5 -85.5q0 -86 -44.5 -132t-129.5 -46q-66 0 -96.5 27t-30.5 86zM901 1618 q0 85 45 131.5t129 46.5q66 0 96.5 -27t30.5 -86q0 -87 -44 -132.5t-128 -45.5q-66 0 -97.5 27.5t-31.5 85.5z" />
<glyph unicode="&#xcc;" horiz-adv-x="563" d="M61 0l207 1184q4 22 0.5 29.5t-22.5 15.5l-68 28l43 119h326q11 0 15 -0.5t7.5 -6t1.5 -17.5l-237 -1352h-273zM164 1802h256l198 -303h-212z" />
<glyph unicode="&#xcd;" horiz-adv-x="563" d="M61 0l207 1184q4 22 0.5 29.5t-22.5 15.5l-68 28l43 119h326q11 0 15 -0.5t7.5 -6t1.5 -17.5l-237 -1352h-273zM317 1499l289 303h291l-334 -303h-246z" />
<glyph unicode="&#xce;" horiz-adv-x="563" d="M61 0l207 1184q4 22 0.5 29.5t-22.5 15.5l-68 28l43 119h326q11 0 15 -0.5t7.5 -6t1.5 -17.5l-237 -1352h-273zM80 1499l303 303h254l201 -303h-213l-125 166l-185 -166h-235z" />
<glyph unicode="&#xcf;" horiz-adv-x="563" d="M61 0l207 1184q4 22 0.5 29.5t-22.5 15.5l-68 28l43 119h326q11 0 15 -0.5t7.5 -6t1.5 -17.5l-237 -1352h-273zM121 1618q0 85 44 131.5t128 46.5q66 0 97.5 -27.5t31.5 -85.5q0 -86 -44.5 -132t-129.5 -46q-66 0 -96.5 27t-30.5 86zM563 1618q0 85 45 131.5t129 46.5 q66 0 96.5 -27t30.5 -86q0 -87 -44 -132.5t-128 -45.5q-66 0 -97.5 27.5t-31.5 85.5z" />
<glyph unicode="&#xd0;" horiz-adv-x="1482" d="M66 606l34 189h133l68 389q4 22 0.5 29.5t-22.5 15.5l-68 28l43 119h561q325 0 480 -124.5t155 -385.5q0 -416 -211 -641t-600 -225h-545l107 606h-135zM401 209h248q251 0 386.5 166.5t135.5 470.5q0 166 -95.5 243.5t-301.5 77.5h-203l-65 -372h332l-35 -189h-332z" />
<glyph unicode="&#xd1;" horiz-adv-x="1499" d="M61 0l207 1184q4 22 0.5 29.5t-22.5 15.5l-68 28l43 119h309q31 0 39 -6t27 -41l487 -956l177 1003h251l-241 -1376h-269l-509 1004l-179 -1004h-252zM580 1509l4 33q15 127 69.5 182.5t163.5 55.5q45 0 91 -21t83.5 -42t61.5 -21q66 0 80 78l2 16h186l-4 -33 q-17 -126 -72 -180.5t-164 -54.5q-45 0 -91 21t-83 42t-61 21q-67 0 -78 -78l-4 -19h-184z" />
<glyph unicode="&#xd2;" horiz-adv-x="1488" d="M96 477q0 436 203.5 680t566.5 244q290 0 440 -127.5t150 -374.5q0 -436 -203.5 -680t-566.5 -244q-290 0 -440 127.5t-150 374.5zM375 508q0 -318 327 -318q223 0 349.5 180t126.5 498t-328 318q-223 0 -349 -180t-126 -498zM610 1802h256l199 -303h-213z" />
<glyph unicode="&#xd3;" horiz-adv-x="1488" d="M96 477q0 436 203.5 680t566.5 244q290 0 440 -127.5t150 -374.5q0 -436 -203.5 -680t-566.5 -244q-290 0 -440 127.5t-150 374.5zM375 508q0 -318 327 -318q223 0 349.5 180t126.5 498t-328 318q-223 0 -349 -180t-126 -498zM764 1499l289 303h290l-333 -303h-246z" />
<glyph unicode="&#xd4;" horiz-adv-x="1488" d="M96 477q0 436 203.5 680t566.5 244q290 0 440 -127.5t150 -374.5q0 -436 -203.5 -680t-566.5 -244q-290 0 -440 127.5t-150 374.5zM375 508q0 -318 327 -318q223 0 349.5 180t126.5 498t-328 318q-223 0 -349 -180t-126 -498zM526 1499l303 303h254l201 -303h-213 l-125 166l-184 -166h-236z" />
<glyph unicode="&#xd5;" horiz-adv-x="1488" d="M96 477q0 436 203.5 680t566.5 244q290 0 440 -127.5t150 -374.5q0 -436 -203.5 -680t-566.5 -244q-290 0 -440 127.5t-150 374.5zM375 508q0 -318 327 -318q223 0 349.5 180t126.5 498t-328 318q-223 0 -349 -180t-126 -498zM569 1509l4 33q15 127 70 182.5t164 55.5 q45 0 91 -21t83 -42t61 -21q66 0 80 78l2 16h187l-4 -33q-17 -126 -72 -180.5t-164 -54.5q-45 0 -91 21t-83 42t-61 21q-67 0 -78 -78l-4 -19h-185z" />
<glyph unicode="&#xd6;" horiz-adv-x="1488" d="M96 477q0 436 203.5 680t566.5 244q290 0 440 -127.5t150 -374.5q0 -436 -203.5 -680t-566.5 -244q-290 0 -440 127.5t-150 374.5zM375 508q0 -318 327 -318q223 0 349.5 180t126.5 498t-328 318q-223 0 -349 -180t-126 -498zM567 1618q0 85 44 131.5t128 46.5 q66 0 97.5 -27.5t31.5 -85.5q0 -86 -44.5 -132t-129.5 -46q-66 0 -96.5 27t-30.5 86zM1010 1618q0 85 45 131.5t129 46.5q66 0 96.5 -27t30.5 -86q0 -87 -44 -132.5t-128 -45.5q-66 0 -97.5 27.5t-31.5 85.5z" />
<glyph unicode="&#xd7;" d="M164 305l285 285l-285 284l155 156l285 -285l285 285l155 -156l-284 -284l284 -285l-155 -155l-285 284l-285 -284z" />
<glyph unicode="&#xd8;" horiz-adv-x="1488" d="M-2 -66l197 222q-99 120 -99 321q0 436 203.5 680t566.5 244q227 0 369 -80l106 121h213l-196 -221q98 -128 98 -322q0 -436 -203.5 -680t-566.5 -244q-225 0 -369 78l-106 -119h-213zM354 504q0 -85 23 -144l698 783q-83 53 -223 53q-230 0 -364 -185.5t-134 -506.5z M477 233q79 -53 223 -53q230 0 364 185.5t134 506.5q0 80 -22 144z" />
<glyph unicode="&#xd9;" horiz-adv-x="1499" d="M141 375q0 68 19 180l108 629q3 22 -0.5 30t-21.5 15l-68 28l43 119h326q11 0 15 -0.5t7.5 -6t1.5 -17.5l-139 -797q-14 -75 -14 -133q0 -106 75.5 -169t204.5 -63q173 0 266.5 77.5t122.5 242.5l152 866h272l-155 -887q-46 -269 -209 -391.5t-475 -122.5 q-245 0 -388 108t-143 292zM621 1802h256l198 -303h-213z" />
<glyph unicode="&#xda;" horiz-adv-x="1499" d="M141 375q0 68 19 180l108 629q3 22 -0.5 30t-21.5 15l-68 28l43 119h326q11 0 15 -0.5t7.5 -6t1.5 -17.5l-139 -797q-14 -75 -14 -133q0 -106 75.5 -169t204.5 -63q173 0 266.5 77.5t122.5 242.5l152 866h272l-155 -887q-46 -269 -209 -391.5t-475 -122.5 q-245 0 -388 108t-143 292zM774 1499l289 303h291l-334 -303h-246z" />
<glyph unicode="&#xdb;" horiz-adv-x="1499" d="M141 375q0 68 19 180l108 629q3 22 -0.5 30t-21.5 15l-68 28l43 119h326q11 0 15 -0.5t7.5 -6t1.5 -17.5l-139 -797q-14 -75 -14 -133q0 -106 75.5 -169t204.5 -63q173 0 266.5 77.5t122.5 242.5l152 866h272l-155 -887q-46 -269 -209 -391.5t-475 -122.5 q-245 0 -388 108t-143 292zM537 1499l303 303h254l200 -303h-213l-125 166l-184 -166h-235z" />
<glyph unicode="&#xdc;" horiz-adv-x="1499" d="M141 375q0 68 19 180l108 629q3 22 -0.5 30t-21.5 15l-68 28l43 119h326q11 0 15 -0.5t7.5 -6t1.5 -17.5l-139 -797q-14 -75 -14 -133q0 -106 75.5 -169t204.5 -63q173 0 266.5 77.5t122.5 242.5l152 866h272l-155 -887q-46 -269 -209 -391.5t-475 -122.5 q-245 0 -388 108t-143 292zM578 1618q0 85 44 131.5t128 46.5q66 0 97.5 -27.5t31.5 -85.5q0 -86 -44.5 -132t-129.5 -46q-66 0 -96.5 27t-30.5 86zM1020 1618q0 85 45 131.5t129 46.5q66 0 96.5 -27t30.5 -86q0 -87 -44 -132.5t-128 -45.5q-66 0 -97.5 27.5t-31.5 85.5z " />
<glyph unicode="&#xdd;" horiz-adv-x="1247" d="M152 1376h286l226 -575l423 575h316l-637 -827l-94 -549h-273l99 571zM643 1499l289 303h291l-334 -303h-246z" />
<glyph unicode="&#xde;" horiz-adv-x="1302" d="M61 0l207 1184q4 22 0.5 29.5t-22.5 15.5l-68 28l43 119h316q11 0 15 -0.5t7.5 -6t1.5 -17.5l-37 -207h291q243 0 355 -80.5t112 -255.5q0 -268 -151 -410.5t-435 -142.5h-327l-45 -256h-263zM406 465h290q320 0 320 303q0 86 -59.5 127t-184.5 41h-285z" />
<glyph unicode="&#xdf;" horiz-adv-x="1165" d="M29 0l186 1055q73 411 526 411q199 0 302.5 -80t103.5 -237q0 -135 -59.5 -237t-165.5 -146q178 -59 178 -285q0 -236 -135 -371t-373 -135q-78 0 -201 21l35 197q73 -13 133 -13q132 0 208.5 78t76.5 213q0 95 -54.5 138.5t-173.5 43.5h-51l35 201h55q111 0 175.5 71 t64.5 187q0 150 -176 150q-215 0 -258 -238l-180 -1024h-252z" />
<glyph unicode="&#xe0;" horiz-adv-x="1189" d="M57 332q0 319 135.5 507.5t364.5 188.5q100 0 184.5 -33t135.5 -92l41 101h210l-143 -809q-4 -21 -0.5 -29.5t21.5 -15.5l67 -29l-45 -121h-254q-11 0 -13.5 3.5t-2.5 16.5v103q-142 -148 -332 -148q-178 0 -273.5 93t-95.5 264zM324 375q0 -96 48 -145.5t138 -49.5 q209 0 250 226l61 344q-88 73 -211 73q-133 0 -209.5 -121.5t-76.5 -326.5zM385 1442h256l199 -303h-213z" />
<glyph unicode="&#xe1;" horiz-adv-x="1189" d="M57 332q0 319 135.5 507.5t364.5 188.5q100 0 184.5 -33t135.5 -92l41 101h210l-143 -809q-4 -21 -0.5 -29.5t21.5 -15.5l67 -29l-45 -121h-254q-11 0 -13.5 3.5t-2.5 16.5v103q-142 -148 -332 -148q-178 0 -273.5 93t-95.5 264zM324 375q0 -96 48 -145.5t138 -49.5 q209 0 250 226l61 344q-88 73 -211 73q-133 0 -209.5 -121.5t-76.5 -326.5zM498 1139l288 303h291l-334 -303h-245z" />
<glyph unicode="&#xe2;" horiz-adv-x="1189" d="M57 332q0 319 135.5 507.5t364.5 188.5q100 0 184.5 -33t135.5 -92l41 101h210l-143 -809q-4 -21 -0.5 -29.5t21.5 -15.5l67 -29l-45 -121h-254q-11 0 -13.5 3.5t-2.5 16.5v103q-142 -148 -332 -148q-178 0 -273.5 93t-95.5 264zM281 1139l303 303h254l200 -303h-213 l-125 166l-184 -166h-235zM324 375q0 -96 48 -145.5t138 -49.5q209 0 250 226l61 344q-88 73 -211 73q-133 0 -209.5 -121.5t-76.5 -326.5z" />
<glyph unicode="&#xe3;" horiz-adv-x="1189" d="M57 332q0 319 135.5 507.5t364.5 188.5q100 0 184.5 -33t135.5 -92l41 101h210l-143 -809q-4 -21 -0.5 -29.5t21.5 -15.5l67 -29l-45 -121h-254q-11 0 -13.5 3.5t-2.5 16.5v103q-142 -148 -332 -148q-178 0 -273.5 93t-95.5 264zM324 375q0 -96 48 -145.5t138 -49.5 q209 0 250 226l61 344q-88 73 -211 73q-133 0 -209.5 -121.5t-76.5 -326.5zM344 1149l4 33q15 127 70 182t164 55q45 0 91 -21t83 -42t61 -21q66 0 80 78l2 17h186l-4 -33q-17 -126 -71.5 -181t-163.5 -55q-45 0 -91 21t-83.5 42t-61.5 21q-67 0 -78 -78l-4 -18h-184z" />
<glyph unicode="&#xe4;" horiz-adv-x="1189" d="M57 332q0 319 135.5 507.5t364.5 188.5q100 0 184.5 -33t135.5 -92l41 101h210l-143 -809q-4 -21 -0.5 -29.5t21.5 -15.5l67 -29l-45 -121h-254q-11 0 -13.5 3.5t-2.5 16.5v103q-142 -148 -332 -148q-178 0 -273.5 93t-95.5 264zM322 1257q0 86 44 132.5t128 46.5 q66 0 97.5 -27.5t31.5 -85.5q0 -86 -44.5 -132t-129.5 -46q-66 0 -96.5 27t-30.5 85zM324 375q0 -96 48 -145.5t138 -49.5q209 0 250 226l61 344q-88 73 -211 73q-133 0 -209.5 -121.5t-76.5 -326.5zM764 1257q0 85 45 132t129 47q66 0 96.5 -27t30.5 -86q0 -87 -44 -132.5 t-128 -45.5q-66 0 -97.5 27t-31.5 85z" />
<glyph unicode="&#xe5;" horiz-adv-x="1189" d="M57 332q0 319 135.5 507.5t364.5 188.5q100 0 184.5 -33t135.5 -92l41 101h210l-143 -809q-4 -21 -0.5 -29.5t21.5 -15.5l67 -29l-45 -121h-254q-11 0 -13.5 3.5t-2.5 16.5v103q-142 -148 -332 -148q-178 0 -273.5 93t-95.5 264zM324 375q0 -96 48 -145.5t138 -49.5 q209 0 250 226l61 344q-88 73 -211 73q-133 0 -209.5 -121.5t-76.5 -326.5zM449 1245q0 118 73 186t201 68q109 0 162 -40t53 -124q0 -119 -73.5 -186.5t-200.5 -67.5q-109 0 -162 40t-53 124zM592 1264q0 -72 84 -72q54 0 86.5 34t32.5 91q0 69 -84 69q-54 0 -86.5 -32.5 t-32.5 -89.5z" />
<glyph unicode="&#xe6;" horiz-adv-x="1738" d="M25 231q0 172 109.5 261.5t322.5 89.5q149 0 268 -39l12 67q6 30 6 70q0 149 -235 149q-154 0 -303 -38l35 198q160 39 329 39q258 0 342 -135q135 135 346 135t313.5 -89.5t102.5 -276.5q0 -117 -35 -236h-686q-3 -41 2 -80q7 -83 76 -127.5t191 -44.5q165 0 340 41 l-35 -201q-165 -39 -336 -39q-148 0 -253.5 42t-158.5 120q-62 -77 -163.5 -119.5t-227.5 -42.5q-180 0 -271 65t-91 191zM283 268q0 -108 168 -108q96 0 156.5 40.5t74.5 112.5l12 64q-81 37 -200 37q-211 0 -211 -146zM981 594h438q8 31 8 78q0 87 -44.5 129.5 t-137.5 42.5q-104 0 -171.5 -64.5t-92.5 -185.5z" />
<glyph unicode="&#xe7;" horiz-adv-x="956" d="M57 348q0 331 162 505.5t443 174.5q185 0 313 -53l-74 -197q-108 45 -235 45q-164 0 -253 -113t-89 -319q0 -211 241 -211q141 0 273 33l-35 -207q-131 -28 -262 -31l-11 -65q61 -12 93 -51t32 -99q0 -116 -80 -180.5t-225 -64.5q-80 0 -196 28l24 142q83 -27 154 -27 q57 0 88 22.5t31 63.5q0 59 -107 59h-12l33 185q-308 56 -308 360z" />
<glyph unicode="&#xe8;" horiz-adv-x="1097" d="M57 348q0 320 147 500t412 180q210 0 313 -89.5t103 -276.5q0 -117 -35 -236h-686q-3 -36 0 -78q18 -174 269 -174q148 0 340 41l-35 -201q-165 -39 -338 -39q-242 0 -366 95t-124 278zM340 594h438q6 35 6 78q0 87 -44 129.5t-138 42.5q-104 0 -171.5 -64.5 t-90.5 -185.5zM344 1442h256l199 -303h-213z" />
<glyph unicode="&#xe9;" horiz-adv-x="1097" d="M57 348q0 320 147 500t412 180q210 0 313 -89.5t103 -276.5q0 -117 -35 -236h-686q-3 -36 0 -78q18 -174 269 -174q148 0 340 41l-35 -201q-165 -39 -338 -39q-242 0 -366 95t-124 278zM340 594h438q6 35 6 78q0 87 -44 129.5t-138 42.5q-104 0 -171.5 -64.5 t-90.5 -185.5zM498 1139l288 303h291l-334 -303h-245z" />
<glyph unicode="&#xea;" horiz-adv-x="1097" d="M57 348q0 320 147 500t412 180q210 0 313 -89.5t103 -276.5q0 -117 -35 -236h-686q-3 -36 0 -78q18 -174 269 -174q148 0 340 41l-35 -201q-165 -39 -338 -39q-242 0 -366 95t-124 278zM260 1139l303 303h254l201 -303h-213l-125 166l-184 -166h-236zM340 594h438 q6 35 6 78q0 87 -44 129.5t-138 42.5q-104 0 -171.5 -64.5t-90.5 -185.5z" />
<glyph unicode="&#xeb;" horiz-adv-x="1097" d="M57 348q0 320 147 500t412 180q210 0 313 -89.5t103 -276.5q0 -117 -35 -236h-686q-3 -36 0 -78q18 -174 269 -174q148 0 340 41l-35 -201q-165 -39 -338 -39q-242 0 -366 95t-124 278zM301 1257q0 86 44 132.5t128 46.5q66 0 97.5 -27.5t31.5 -85.5q0 -86 -44.5 -132 t-129.5 -46q-66 0 -96.5 27t-30.5 85zM340 594h438q6 35 6 78q0 87 -44 129.5t-138 42.5q-104 0 -171.5 -64.5t-90.5 -185.5zM743 1257q0 85 45.5 132t129.5 47q66 0 96 -27t30 -86q0 -87 -44 -132.5t-128 -45.5q-66 0 -97.5 27t-31.5 85z" />
<glyph unicode="&#xec;" horiz-adv-x="538" d="M57 0l144 809q4 21 0.5 29.5t-21.5 15.5l-69 29l47 121h311q10 0 15 -1t8.5 -6.5t1.5 -17.5l-175 -979h-262zM76 1442h256l198 -303h-213z" />
<glyph unicode="&#xed;" horiz-adv-x="538" d="M57 0l144 809q4 21 0.5 29.5t-21.5 15.5l-69 29l47 121h311q10 0 15 -1t8.5 -6.5t1.5 -17.5l-175 -979h-262zM229 1139l289 303h291l-334 -303h-246z" />
<glyph unicode="&#xee;" horiz-adv-x="538" d="M-8 1139l303 303h254l201 -303h-213l-125 166l-185 -166h-235zM57 0l144 809q4 21 0.5 29.5t-21.5 15.5l-69 29l47 121h311q10 0 15 -1t8.5 -6.5t1.5 -17.5l-175 -979h-262z" />
<glyph unicode="&#xef;" horiz-adv-x="538" d="M33 1257q0 86 44 132.5t128 46.5q66 0 97.5 -27.5t31.5 -85.5q0 -86 -44.5 -132t-129.5 -46q-66 0 -96.5 27t-30.5 85zM57 0l144 809q4 21 0.5 29.5t-21.5 15.5l-69 29l47 121h311q10 0 15 -1t8.5 -6.5t1.5 -17.5l-175 -979h-262zM475 1257q0 85 45 132t129 47 q66 0 96.5 -27t30.5 -86q0 -87 -44 -132.5t-128 -45.5q-66 0 -97.5 27t-31.5 85z" />
<glyph unicode="&#xf0;" horiz-adv-x="1165" d="M66 348q0 292 138 465.5t371 173.5q84 0 157.5 -28.5t115.5 -79.5q0 190 -105 284l-73 -80h-238l152 162q-95 25 -193 33l35 188q185 -9 315 -53l78 82h238l-156 -166q203 -155 203 -530q0 -394 -158.5 -609t-445.5 -215q-217 0 -325.5 95.5t-108.5 277.5zM328 369 q0 -98 48 -148.5t140 -50.5q137 0 218 116t81 312q0 96 -51 145.5t-148 49.5q-132 0 -210 -115t-78 -309z" />
<glyph unicode="&#xf1;" horiz-adv-x="1198" d="M49 0l144 809q4 21 0.5 29.5t-21.5 15.5l-68 29l48 121h301q14 0 20.5 -4.5t3.5 -20.5l-10 -59q117 108 283 108q164 0 255 -82t91 -229q0 -64 -13 -131l-69 -391q-4 -21 -1 -29.5t21 -15.5l68 -29l-45 -121h-320q-11 0 -14 4t-2 16l100 566q8 47 8 84q0 149 -167 149 q-105 0 -216 -59l-135 -760h-262zM367 1149l4 33q15 127 69.5 182t163.5 55q45 0 91 -21t83.5 -42t61.5 -21q66 0 80 78l2 17h186l-4 -33q-17 -126 -72 -181t-164 -55q-45 0 -91 21t-83 42t-61 21q-67 0 -78 -78l-4 -18h-184z" />
<glyph unicode="&#xf2;" horiz-adv-x="1148" d="M57 348q0 318 154.5 499t427.5 181q225 0 339 -94t114 -279q0 -319 -154.5 -499.5t-429.5 -180.5q-224 0 -337.5 94.5t-113.5 278.5zM324 379q0 -199 200 -199q138 0 219.5 121t81.5 324q0 198 -200 198q-138 0 -219.5 -120.5t-81.5 -323.5zM375 1442h256l198 -303h-213z " />
<glyph unicode="&#xf3;" horiz-adv-x="1148" d="M57 348q0 318 154.5 499t427.5 181q225 0 339 -94t114 -279q0 -319 -154.5 -499.5t-429.5 -180.5q-224 0 -337.5 94.5t-113.5 278.5zM324 379q0 -199 200 -199q138 0 219.5 121t81.5 324q0 198 -200 198q-138 0 -219.5 -120.5t-81.5 -323.5zM528 1139l289 303h291 l-334 -303h-246z" />
<glyph unicode="&#xf4;" horiz-adv-x="1148" d="M57 348q0 318 154.5 499t427.5 181q225 0 339 -94t114 -279q0 -319 -154.5 -499.5t-429.5 -180.5q-224 0 -337.5 94.5t-113.5 278.5zM291 1139l303 303h254l201 -303h-213l-125 166l-185 -166h-235zM324 379q0 -199 200 -199q138 0 219.5 121t81.5 324q0 198 -200 198 q-138 0 -219.5 -120.5t-81.5 -323.5z" />
<glyph unicode="&#xf5;" horiz-adv-x="1148" d="M57 348q0 318 154.5 499t427.5 181q225 0 339 -94t114 -279q0 -319 -154.5 -499.5t-429.5 -180.5q-224 0 -337.5 94.5t-113.5 278.5zM324 379q0 -199 200 -199q138 0 219.5 121t81.5 324q0 198 -200 198q-138 0 -219.5 -120.5t-81.5 -323.5zM334 1149l4 33 q15 127 69.5 182t163.5 55q45 0 91 -21t83.5 -42t61.5 -21q66 0 80 78l2 17h186l-4 -33q-17 -126 -71.5 -181t-163.5 -55q-45 0 -91 21t-83.5 42t-61.5 21q-67 0 -78 -78l-4 -18h-184z" />
<glyph unicode="&#xf6;" horiz-adv-x="1148" d="M57 348q0 318 154.5 499t427.5 181q225 0 339 -94t114 -279q0 -319 -154.5 -499.5t-429.5 -180.5q-224 0 -337.5 94.5t-113.5 278.5zM324 379q0 -199 200 -199q138 0 219.5 121t81.5 324q0 198 -200 198q-138 0 -219.5 -120.5t-81.5 -323.5zM332 1257q0 86 44 132.5 t128 46.5q66 0 97.5 -27.5t31.5 -85.5q0 -86 -44.5 -132t-129.5 -46q-66 0 -96.5 27t-30.5 85zM774 1257q0 85 45 132t129 47q66 0 96.5 -27t30.5 -86q0 -87 -44 -132.5t-128 -45.5q-66 0 -97.5 27t-31.5 85z" />
<glyph unicode="&#xf7;" d="M158 489v201h893v-201h-893zM463 229q0 71 33 103.5t108 32.5q73 0 106 -32.5t33 -103.5t-33 -103t-106 -32q-75 0 -108 32t-33 103zM463 950q0 71 33 103t108 32q73 0 106 -32t33 -103t-33 -103t-106 -32q-75 0 -108 32t-33 103z" />
<glyph unicode="&#xf8;" horiz-adv-x="1148" d="M-20 -66l153 172q-76 91 -76 242q0 318 154.5 499t427.5 181q162 0 266 -49l80 90h184l-153 -174q76 -92 76 -240q0 -319 -154.5 -499.5t-429.5 -180.5q-161 0 -264 50l-80 -91h-184zM293 385q0 -55 10 -86l457 516q-56 29 -133 29q-150 0 -242 -127t-92 -332zM387 186 q51 -26 135 -26q150 0 242 126.5t92 331.5q0 42 -10 87z" />
<glyph unicode="&#xf9;" horiz-adv-x="1169" d="M88 883l47 121h311q10 0 15 -1t8.5 -6.5t1.5 -17.5l-102 -571q-9 -61 -9 -84q0 -66 47 -105t128 -39q104 0 160 48t75 151l111 625h262l-115 -646q-35 -200 -160 -291.5t-362 -91.5q-192 0 -301 80t-109 221q0 64 10 132l72 401q4 21 1 29.5t-21 15.5zM393 1442h256 l199 -303h-213z" />
<glyph unicode="&#xfa;" horiz-adv-x="1169" d="M88 883l47 121h311q10 0 15 -1t8.5 -6.5t1.5 -17.5l-102 -571q-9 -61 -9 -84q0 -66 47 -105t128 -39q104 0 160 48t75 151l111 625h262l-115 -646q-35 -200 -160 -291.5t-362 -91.5q-192 0 -301 80t-109 221q0 64 10 132l72 401q4 21 1 29.5t-21 15.5zM547 1139l289 303 h290l-333 -303h-246z" />
<glyph unicode="&#xfb;" horiz-adv-x="1169" d="M88 883l47 121h311q10 0 15 -1t8.5 -6.5t1.5 -17.5l-102 -571q-9 -61 -9 -84q0 -66 47 -105t128 -39q104 0 160 48t75 151l111 625h262l-115 -646q-35 -200 -160 -291.5t-362 -91.5q-192 0 -301 80t-109 221q0 64 10 132l72 401q4 21 1 29.5t-21 15.5zM309 1139l303 303 h254l201 -303h-213l-125 166l-184 -166h-236z" />
<glyph unicode="&#xfc;" horiz-adv-x="1169" d="M88 883l47 121h311q10 0 15 -1t8.5 -6.5t1.5 -17.5l-102 -571q-9 -61 -9 -84q0 -66 47 -105t128 -39q104 0 160 48t75 151l111 625h262l-115 -646q-35 -200 -160 -291.5t-362 -91.5q-192 0 -301 80t-109 221q0 64 10 132l72 401q4 21 1 29.5t-21 15.5zM350 1257 q0 86 44 132.5t128 46.5q66 0 97.5 -27.5t31.5 -85.5q0 -86 -44.5 -132t-129.5 -46q-66 0 -96.5 27t-30.5 85zM793 1257q0 85 45 132t129 47q66 0 96.5 -27t30.5 -86q0 -87 -44 -132.5t-128 -45.5q-66 0 -97.5 27t-31.5 85z" />
<glyph unicode="&#xfd;" d="M88 883l47 121h311q10 0 15 -1t8.5 -6.5t1.5 -17.5l-102 -571q-9 -61 -9 -84q0 -66 47 -105t128 -39q104 0 161 55.5t78 170.5l107 598h262l-178 -1006q-20 -113 -58.5 -193.5t-105 -139.5t-167.5 -87.5t-239 -28.5q-147 0 -215 19l37 199q84 -19 178 -19q80 0 138 18 t90.5 52t49.5 70.5t25 84.5l19 103q-46 -48 -118.5 -74.5t-149.5 -26.5q-158 0 -255.5 81t-97.5 220q0 64 10 132l72 401q4 21 1 29.5t-21 15.5zM494 1139l288 303h291l-334 -303h-245z" />
<glyph unicode="&#xfe;" horiz-adv-x="1169" d="M-33 -426l293 1673q4 21 1 29.5t-21 15.5l-68 29l47 121h309q10 0 15 -1t8.5 -6.5t1.5 -17.5l-86 -487q47 42 120.5 70t153.5 28q180 0 275.5 -92t95.5 -264q0 -320 -136 -508.5t-366 -188.5q-89 0 -165.5 28t-125.5 81l-90 -510h-262zM348 252q98 -72 211 -72 q131 0 209 123t78 328q0 94 -48.5 143t-138.5 49q-213 0 -251 -225z" />
<glyph unicode="&#xff;" d="M88 883l47 121h311q10 0 15 -1t8.5 -6.5t1.5 -17.5l-102 -571q-9 -61 -9 -84q0 -66 47 -105t128 -39q104 0 161 55.5t78 170.5l107 598h262l-178 -1006q-20 -113 -58.5 -193.5t-105 -139.5t-167.5 -87.5t-239 -28.5q-147 0 -215 19l37 199q84 -19 178 -19q80 0 138 18 t90.5 52t49.5 70.5t25 84.5l19 103q-46 -48 -118.5 -74.5t-149.5 -26.5q-158 0 -255.5 81t-97.5 220q0 64 10 132l72 401q4 21 1 29.5t-21 15.5zM344 1257q0 86 44 132.5t128 46.5q66 0 97.5 -27.5t31.5 -85.5q0 -86 -44.5 -132t-129.5 -46q-66 0 -96.5 27t-30.5 85z M786 1257q0 85 45.5 132t129.5 47q66 0 96 -27t30 -86q0 -87 -44 -132.5t-128 -45.5q-66 0 -97.5 27t-31.5 85z" />
<glyph unicode="&#x152;" horiz-adv-x="2068" d="M96 510q0 416 211 641t600 225h1225l-35 -205h-692l-64 -370h543l-37 -201h-542l-68 -395h707l-37 -205h-1176q-325 0 -480 124.5t-155 385.5zM375 530q0 -166 95.5 -243.5t301.5 -77.5h193l168 958h-236q-251 0 -386.5 -166.5t-135.5 -470.5z" />
<glyph unicode="&#x153;" horiz-adv-x="1851" d="M57 348q0 320 153.5 500t428.5 180q283 0 365 -172q130 172 368 172q211 0 312.5 -89.5t101.5 -276.5q0 -117 -35 -236h-684q-3 -42 0 -78q9 -85 77 -129.5t191 -44.5q150 0 342 41l-35 -201q-165 -39 -337 -39q-153 0 -257 46t-147 133q-137 -179 -393 -179 q-224 0 -337.5 94.5t-113.5 278.5zM324 379q0 -199 200 -199q139 0 220 119.5t81 325.5q0 198 -200 198q-141 0 -221 -119t-80 -325zM1096 594h436q6 35 6 78q0 87 -43.5 129.5t-136.5 42.5q-103 0 -170 -64.5t-92 -185.5z" />
<glyph unicode="&#x178;" horiz-adv-x="1247" d="M152 1376h286l226 -575l423 575h316l-637 -827l-94 -549h-273l99 571zM446 1618q0 85 44 131.5t128 46.5q66 0 98 -27.5t32 -85.5q0 -86 -45 -132t-130 -46q-66 0 -96.5 27t-30.5 86zM889 1618q0 85 45 131.5t129 46.5q66 0 96.5 -27t30.5 -86q0 -87 -44 -132.5 t-128 -45.5q-66 0 -97.5 27.5t-31.5 85.5z" />
<glyph unicode="&#x2c6;" horiz-adv-x="491" d="M-33 1139l303 303h254l201 -303h-213l-125 166l-184 -166h-236z" />
<glyph unicode="&#x2dc;" horiz-adv-x="491" d="M10 1149l4 33q15 127 70 182t164 55q45 0 91 -21t83 -42t61 -21q66 0 80 78l2 17h187l-4 -33q-17 -126 -72 -181t-164 -55q-45 0 -91 21t-83.5 42t-61.5 21q-66 0 -77 -78l-4 -18h-185z" />
<glyph unicode="&#x2000;" horiz-adv-x="930" />
<glyph unicode="&#x2001;" horiz-adv-x="1860" />
<glyph unicode="&#x2002;" horiz-adv-x="930" />
<glyph unicode="&#x2003;" horiz-adv-x="1860" />
<glyph unicode="&#x2004;" horiz-adv-x="620" />
<glyph unicode="&#x2005;" horiz-adv-x="465" />
<glyph unicode="&#x2006;" horiz-adv-x="310" />
<glyph unicode="&#x2007;" horiz-adv-x="310" />
<glyph unicode="&#x2008;" horiz-adv-x="232" />
<glyph unicode="&#x2009;" horiz-adv-x="372" />
<glyph unicode="&#x200a;" horiz-adv-x="103" />
<glyph unicode="&#x2010;" horiz-adv-x="655" d="M29 410l34 200h566l-35 -200h-565z" />
<glyph unicode="&#x2011;" horiz-adv-x="655" d="M29 410l34 200h566l-35 -200h-565z" />
<glyph unicode="&#x2012;" horiz-adv-x="655" d="M29 410l34 200h566l-35 -200h-565z" />
<glyph unicode="&#x2013;" d="M29 410l34 200h1090l-35 -200h-1089z" />
<glyph unicode="&#x2014;" horiz-adv-x="1769" d="M29 410l34 200h1680l-35 -200h-1679z" />
<glyph unicode="&#x2018;" horiz-adv-x="509" d="M123 858l254 518h215l-197 -518h-272z" />
<glyph unicode="&#x2019;" horiz-adv-x="509" d="M131 858l199 518h272l-254 -518h-217z" />
<glyph unicode="&#x201a;" horiz-adv-x="509" d="M-104 -295l198 518h273l-254 -518h-217z" />
<glyph unicode="&#x201c;" horiz-adv-x="952" d="M123 858l254 518h215l-197 -518h-272zM567 858l254 518h215l-196 -518h-273z" />
<glyph unicode="&#x201d;" horiz-adv-x="952" d="M131 858l199 518h272l-254 -518h-217zM575 858l199 518h273l-254 -518h-218z" />
<glyph unicode="&#x201e;" horiz-adv-x="952" d="M-104 -295l198 518h273l-254 -518h-217zM340 -295l199 518h272l-254 -518h-217z" />
<glyph unicode="&#x2022;" horiz-adv-x="983" d="M213 590q0 123 86 209t209 86t209 -86t86 -209t-86 -209t-209 -86t-209 86t-86 209z" />
<glyph unicode="&#x2026;" horiz-adv-x="1769" d="M70 102q0 91 48.5 141t137.5 50q137 0 137 -125q0 -91 -47.5 -141t-136.5 -50q-139 0 -139 125zM659 102q0 91 49 141t138 50q137 0 137 -125q0 -91 -47.5 -141t-136.5 -50q-140 0 -140 125zM1249 102q0 91 49 141t138 50q137 0 137 -125q0 -91 -47.5 -141t-136.5 -50 q-140 0 -140 125z" />
<glyph unicode="&#x202f;" horiz-adv-x="372" />
<glyph unicode="&#x2039;" horiz-adv-x="608" d="M35 502l348 407h244l-334 -420l203 -395h-232z" />
<glyph unicode="&#x203a;" horiz-adv-x="608" d="M-18 94l333 420l-202 395h231l227 -407l-346 -408h-243z" />
<glyph unicode="&#x205f;" horiz-adv-x="465" />
<glyph unicode="&#x20ac;" d="M76 463l28 158h117q8 71 25 159h-115l29 158h133q87 224 255.5 343.5t405.5 119.5q174 0 326 -47l-35 -195q-130 47 -270 47q-131 0 -233.5 -69.5t-166.5 -198.5h455l-29 -158h-485q-21 -86 -29 -159h488l-29 -158h-465q3 -155 79 -224t241 -69q127 0 276 33l-35 -197 q-143 -31 -290 -31q-278 0 -408.5 114t-130.5 357v17h-137z" />
<glyph unicode="&#x2122;" horiz-adv-x="1939" d="M125 1221v155h737v-155h-268v-697h-201v697h-268zM1010 524v852h188l264 -444l267 444h188v-852h-184v561l-205 -340h-131l-203 340v-561h-184z" />
<glyph unicode="&#x25fc;" horiz-adv-x="1003" d="M0 0v1004h1004v-1004h-1004z" />
</font>
</defs>
</svg>
